  0
SECTION
  2
HEADER
  9
$ACADVER
  1
AC1014
  9
$ACADMAINTVER
 70
     9
  9
$DWGCODEPAGE
  3
ANSI_1252
  9
$INSBASE
 10
0.0
 20
0.0
 30
0.0
  9
$EXTMIN
 10
1.000000000000000E+20
 20
1.000000000000000E+20
 30
1.000000000000000E+20
  9
$EXTMAX
 10
-1.000000000000000E+20
 20
-1.000000000000000E+20
 30
-1.000000000000000E+20
  9
$LIMMIN
 10
0.0
 20
0.0
  9
$LIMMAX
 10
12.0
 20
9.0
  9
$ORTHOMODE
 70
     0
  9
$REGENMODE
 70
     1
  9
$FILLMODE
 70
     1
  9
$QTEXTMODE
 70
     0
  9
$MIRRTEXT
 70
     1
  9
$DRAGMODE
 70
     2
  9
$LTSCALE
 40
1.0
  9
$OSMODE
 70
    37
  9
$ATTMODE
 70
     1
  9
$TEXTSIZE
 40
0.2
  9
$TRACEWID
 40
0.05
  9
$TEXTSTYLE
  7
STANDARD
  9
$CLAYER
  8
0
  9
$CELTYPE
  6
BYLAYER
  9
$CECOLOR
 62
   256
  9
$CELTSCALE
 40
1.0
  9
$DELOBJ
 70
     1
  9
$DISPSILH
 70
     0
  9
$DIMSCALE
 40
1.0
  9
$DIMASZ
 40
0.18
  9
$DIMEXO
 40
0.0625
  9
$DIMDLI
 40
0.38
  9
$DIMRND
 40
0.0
  9
$DIMDLE
 40
0.0
  9
$DIMEXE
 40
0.18
  9
$DIMTP
 40
0.0
  9
$DIMTM
 40
0.0
  9
$DIMTXT
 40
0.18
  9
$DIMCEN
 40
0.09
  9
$DIMTSZ
 40
0.0
  9
$DIMTOL
 70
     0
  9
$DIMLIM
 70
     0
  9
$DIMTIH
 70
     1
  9
$DIMTOH
 70
     1
  9
$DIMSE1
 70
     0
  9
$DIMSE2
 70
     0
  9
$DIMTAD
 70
     0
  9
$DIMZIN
 70
     0
  9
$DIMBLK
  1

  9
$DIMASO
 70
     1
  9
$DIMSHO
 70
     1
  9
$DIMPOST
  1

  9
$DIMAPOST
  1

  9
$DIMALT
 70
     0
  9
$DIMALTD
 70
     2
  9
$DIMALTF
 40
0.0393700787401575
  9
$DIMLFAC
 40
1.0
  9
$DIMTOFL
 70
     0
  9
$DIMTVP
 40
0.0
  9
$DIMTIX
 70
     0
  9
$DIMSOXD
 70
     0
  9
$DIMSAH
 70
     0
  9
$DIMBLK1
  1

  9
$DIMBLK2
  1

  9
$DIMSTYLE
  2
STANDARD
  9
$DIMCLRD
 70
     0
  9
$DIMCLRE
 70
     0
  9
$DIMCLRT
 70
     0
  9
$DIMTFAC
 40
1.0
  9
$DIMGAP
 40
0.09
  9
$DIMJUST
 70
     0
  9
$DIMSD1
 70
     0
  9
$DIMSD2
 70
     0
  9
$DIMTOLJ
 70
     1
  9
$DIMTZIN
 70
     0
  9
$DIMALTZ
 70
     0
  9
$DIMALTTZ
 70
     0
  9
$DIMFIT
 70
     3
  9
$DIMUPT
 70
     0
  9
$DIMUNIT
 70
     2
  9
$DIMDEC
 70
     4
  9
$DIMTDEC
 70
     4
  9
$DIMALTU
 70
     2
  9
$DIMALTTD
 70
     2
  9
$DIMTXSTY
  7
STANDARD
  9
$DIMAUNIT
 70
     0
  9
$LUNITS
 70
     2
  9
$LUPREC
 70
     4
  9
$SKETCHINC
 40
0.1
  9
$FILLETRAD
 40
0.5
  9
$AUNITS
 70
     0
  9
$AUPREC
 70
     0
  9
$MENU
  1
.
  9
$ELEVATION
 40
0.0
  9
$PELEVATION
 40
0.0
  9
$THICKNESS
 40
0.0
  9
$LIMCHECK
 70
     0
  9
$CHAMFERA
 40
0.0
  9
$CHAMFERB
 40
0.0
  9
$CHAMFERC
 40
0.0
  9
$CHAMFERD
 40
0.0
  9
$SKPOLY
 70
     0
  9
$TDCREATE
 40
2458630.9135361
  9
$TDUPDATE
 40
2458630.913536146
  9
$TDINDWG
 40
0.0000000116
  9
$TDUSRTIMER
 40
0.0000000116
  9
$USRTIMER
 70
     1
  9
$ANGBASE
 50
0.0
  9
$ANGDIR
 70
     0
  9
$PDMODE
 70
     0
  9
$PDSIZE
 40
0.0
  9
$PLINEWID
 40
0.0
  9
$COORDS
 70
     1
  9
$SPLFRAME
 70
     0
  9
$SPLINETYPE
 70
     6
  9
$SPLINESEGS
 70
     8
  9
$ATTDIA
 70
     0
  9
$ATTREQ
 70
     1
  9
$HANDLING
 70
     1
  9
$HANDSEED
  5
1000024E
  9
$SURFTAB1
 70
     6
  9
$SURFTAB2
 70
     6
  9
$SURFTYPE
 70
     6
  9
$SURFU
 70
     6
  9
$SURFV
 70
     6
  9
$UCSNAME
  2

  9
$UCSORG
 10
0.0
 20
0.0
 30
0.0
  9
$UCSXDIR
 10
1.0
 20
0.0
 30
0.0
  9
$UCSYDIR
 10
0.0
 20
1.0
 30
0.0
  9
$PUCSNAME
  2

  9
$PUCSORG
 10
0.0
 20
0.0
 30
0.0
  9
$PUCSXDIR
 10
1.0
 20
0.0
 30
0.0
  9
$PUCSYDIR
 10
0.0
 20
1.0
 30
0.0
  9
$USERI1
 70
     0
  9
$USERI2
 70
     0
  9
$USERI3
 70
     0
  9
$USERI4
 70
     0
  9
$USERI5
 70
     0
  9
$USERR1
 40
0.0
  9
$USERR2
 40
0.0
  9
$USERR3
 40
0.0
  9
$USERR4
 40
0.0
  9
$USERR5
 40
0.0
  9
$WORLDVIEW
 70
     1
  9
$SHADEDGE
 70
     3
  9
$SHADEDIF
 70
    70
  9
$TILEMODE
 70
     1
  9
$MAXACTVP
 70
    64
  9
$PINSBASE
 10
0.0
 20
0.0
 30
0.0
  9
$PLIMCHECK
 70
     0
  9
$PEXTMIN
 10
1.000000000000000E+20
 20
1.000000000000000E+20
 30
1.000000000000000E+20
  9
$PEXTMAX
 10
-1.000000000000000E+20
 20
-1.000000000000000E+20
 30
-1.000000000000000E+20
  9
$PLIMMIN
 10
0.0
 20
0.0
  9
$PLIMMAX
 10
12.0
 20
9.0
  9
$UNITMODE
 70
     0
  9
$VISRETAIN
 70
     1
  9
$PLINEGEN
 70
     0
  9
$PSLTSCALE
 70
     1
  9
$TREEDEPTH
 70
  3020
  9
$PICKSTYLE
 70
     1
  9
$CMLSTYLE
  2
STANDARD
  9
$CMLJUST
 70
     0
  9
$CMLSCALE
 40
1.0
  9
$PROXYGRAPHICS
 70
     1
  9
$MEASUREMENT
 70
     0
  0
ENDSEC
  0
SECTION
  2
CLASSES
  0
CLASS
  1
ACDBDICTIONARYWDFLT
  2
AcDbDictionaryWithDefault
  3
ObjectDBX Classes
 90
        0
280
     0
281
     0
  0
CLASS
  1
VISUALSTYLE
  2
AcDbVisualStyle
  3
ObjectDBX Classes
 90
     4095
280
     0
281
     0
  0
CLASS
  1
MATERIAL
  2
AcDbMaterial
  3
ObjectDBX Classes
 90
     1153
280
     0
281
     0
  0
CLASS
  1
SCALE
  2
AcDbScale
  3
ObjectDBX Classes
 90
     1153
280
     0
281
     0
  0
CLASS
  1
TABLESTYLE
  2
AcDbTableStyle
  3
ObjectDBX Classes
 90
     4095
280
     0
281
     0
  0
CLASS
  1
MLEADERSTYLE
  2
AcDbMLeaderStyle
  3
ACDB_MLEADERSTYLE_CLASS
 90
     4095
280
     0
281
     0
  0
CLASS
  1
SUN
  2
AcDbSun
  3
SCENEOE
 90
     1153
280
     0
281
     0
  0
CLASS
  1
SORTENTSTABLE
  2
AcDbSortentsTable
  3
ObjectDBX Classes
 90
        0
280
     0
281
     0
  0
CLASS
  1
DICTIONARYVAR
  2
AcDbDictionaryVar
  3
ObjectDBX Classes
 90
        0
280
     0
281
     0
  0
CLASS
  1
XRECORD
  2
AcDbXrecord
  3
ObjectDBX Classes
 90
        0
280
     0
281
     0
  0
CLASS
  1
LWPOLYLINE
  2
AcDbPolyline
  3
ObjectDBX Classes
 90
        0
280
     0
281
     1
  0
CLASS
  1
HATCH
  2
AcDbHatch
  3
ObjectDBX Classes
 90
        0
280
     0
281
     1
  0
CLASS
  1
ACDBPLACEHOLDER
  2
AcDbPlaceHolder
  3
ObjectDBX Classes
 90
        0
280
     0
281
     0
  0
CLASS
  1
LAYOUT
  2
AcDbLayout
  3
ObjectDBX Classes
 90
        0
280
     0
281
     0
  0
ENDSEC
  0
SECTION
  2
TABLES
  0
TABLE
  2
VPORT
  5
8
102
{ACAD_XDICTIONARY
360
10000243
102
}
330
0
100
AcDbSymbolTable
 70
     1
  0
VPORT
  5
29
330
8
100
AcDbSymbolTableRecord
100
AcDbViewportTableRecord
  2
*ACTIVE
 70
     0
 10
0.0
 20
0.0
 11
1.0
 21
1.0
 12
10.42990654205607
 22
4.5
 13
0.0
 23
0.0
 14
0.5
 24
0.5
 15
0.5
 25
0.5
 16
0.0
 26
0.0
 36
1.0
 17
0.0
 27
0.0
 37
0.0
 40
9.0
 41
1.972972972850329
 42
50.0
 43
0.0
 44
0.0
 50
0.0
 51
0.0
 71
     0
 72
   100
 73
     1
 74
     3
 75
     0
 76
     0
 77
     0
 78
     0
  0
ENDTAB
  0
TABLE
  2
LTYPE
  5
5
330
0
100
AcDbSymbolTable
 70
     7
  0
LTYPE
  5
14
330
5
100
AcDbSymbolTableRecord
100
AcDbLinetypeTableRecord
  2
BYBLOCK
 70
     0
  3

 72
    65
 73
     0
 40
0.0
  0
LTYPE
  5
15
330
5
100
AcDbSymbolTableRecord
100
AcDbLinetypeTableRecord
  2
BYLAYER
 70
     0
  3

 72
    65
 73
     0
 40
0.0
  0
LTYPE
  5
16
330
5
100
AcDbSymbolTableRecord
100
AcDbLinetypeTableRecord
  2
CONTINUOUS
 70
     0
  3
Solid line
 72
    65
 73
     0
 40
0.0
  0
LTYPE
  5
10000024
330
5
100
AcDbSymbolTableRecord
100
AcDbLinetypeTableRecord
  2
ONS_PHANTOM
 70
     0
  3
Onshape Phantom line ______ __ __ ______
 72
    65
 73
     6
 40
0.4999999999999999
 49
0.25
 74
     0
 49
-0.05
 74
     0
 49
0.05
 74
     0
 49
-0.05
 74
     0
 49
0.05
 74
     0
 49
-0.05
 74
     0
  0
LTYPE
  5
10000025
330
5
100
AcDbSymbolTableRecord
100
AcDbLinetypeTableRecord
  2
CENTER
 70
     0
  3
Center line ____ _ ____ _ ____ _
 72
    65
 73
     4
 40
0.7199999999999999
 49
0.45
 74
     0
 49
-0.09
 74
     0
 49
0.09
 74
     0
 49
-0.09
 74
     0
  0
LTYPE
  5
10000026
330
5
100
AcDbSymbolTableRecord
100
AcDbLinetypeTableRecord
  2
DASHED
 70
     0
  3
Dashed line __ __ __ __ __
 72
    65
 73
     2
 40
0.75
 49
0.5
 74
     0
 49
-0.25
 74
     0
  0
LTYPE
  5
10000027
330
5
100
AcDbSymbolTableRecord
100
AcDbLinetypeTableRecord
  2
ONS_DASHDOT
 70
     0
  3
Onshape Dashed with Dot _ . ____ . ____
 72
    65
 73
     4
 40
0.71
 49
0.5
 74
     0
 49
-0.1
 74
     0
 49
0.01
 74
     0
 49
-0.1
 74
     0
  0
LTYPE
  5
10000028
330
5
100
AcDbSymbolTableRecord
100
AcDbLinetypeTableRecord
  2
ONS_DOTTED
 70
     0
  3
Onshape Dotted line . . . . . . .
 72
    65
 73
     2
 40
0.11
 49
0.01
 74
     0
 49
-0.1
 74
     0
  0
LTYPE
  5
10000029
330
5
100
AcDbSymbolTableRecord
100
AcDbLinetypeTableRecord
  2
HIDDEN
 70
     0
  3
Hidden line ____ ____ ____ ____ 
 72
    65
 73
     2
 40
0.15
 49
0.1
 74
     0
 49
-0.05
 74
     0
  0
ENDTAB
  0
TABLE
  2
LAYER
  5
2
330
0
100
AcDbSymbolTable
 70
    36
  0
LAYER
  5
10
330
2
100
AcDbSymbolTableRecord
100
AcDbLayerTableRecord
  2
0
 70
     0
 62
     7
  6
CONTINUOUS
  0
LAYER
  5
1000002A
330
2
100
AcDbSymbolTableRecord
100
AcDbLayerTableRecord
  2
SECTION_CUTTING_LINE
 70
     0
 62
     7
  6
ONS_PHANTOM
  0
LAYER
  5
1000002B
330
2
100
AcDbSymbolTableRecord
100
AcDbLayerTableRecord
  2
DETAIL_VIEW_BORDER
 70
     0
 62
     7
  6
CONTINUOUS
  0
LAYER
  5
1000002C
330
2
100
AcDbSymbolTableRecord
100
AcDbLayerTableRecord
  2
DETAIL_VIEW_PARENT_BORDER
 70
     0
 62
     7
  6
ONS_PHANTOM
  0
LAYER
  5
1000002D
330
2
100
AcDbSymbolTableRecord
100
AcDbLayerTableRecord
  2
TEXT
 70
     0
 62
     7
  6
CONTINUOUS
  0
LAYER
  5
1000002E
330
2
100
AcDbSymbolTableRecord
100
AcDbLayerTableRecord
  2
SKETCHED_GEOMETRY
 70
     0
 62
    -7
  6
CONTINUOUS
  0
LAYER
  5
1000002F
330
2
100
AcDbSymbolTableRecord
100
AcDbLayerTableRecord
  2
VIRTUAL_SHARPS
 70
     0
 62
    -7
  6
CONTINUOUS
  0
LAYER
  5
10000030
330
2
100
AcDbSymbolTableRecord
100
AcDbLayerTableRecord
  2
CENTERLINES
 70
     0
 62
    -7
  6
CENTER
  0
LAYER
  5
10000031
330
2
100
AcDbSymbolTableRecord
100
AcDbLayerTableRecord
  2
CENTERMARKS
 70
     0
 62
    -7
  6
CONTINUOUS
  0
LAYER
  5
10000032
330
2
100
AcDbSymbolTableRecord
100
AcDbLayerTableRecord
  2
TABLES
 70
     0
 62
     7
  6
CONTINUOUS
  0
LAYER
  5
10000033
330
2
100
AcDbSymbolTableRecord
100
AcDbLayerTableRecord
  2
IMAGES
 70
     0
 62
    -7
  6
CONTINUOUS
  0
LAYER
  5
10000034
330
2
100
AcDbSymbolTableRecord
100
AcDbLayerTableRecord
  2
ANNOTATION_LINES
 70
     0
 62
    -7
  6
CONTINUOUS
  0
LAYER
  5
10000035
330
2
100
AcDbSymbolTableRecord
100
AcDbLayerTableRecord
  2
ANNOTATION_TEXT
 70
     0
 62
    -7
  6
CONTINUOUS
  0
LAYER
  5
10000036
330
2
100
AcDbSymbolTableRecord
100
AcDbLayerTableRecord
  2
SIDE_THREAD_SYMBOLS
 70
     0
 62
     7
  6
HIDDEN
  0
LAYER
  5
10000037
330
2
100
AcDbSymbolTableRecord
100
AcDbLayerTableRecord
  2
SIDE_THREAD_SYMBOLS_HIDDEN
 70
     0
 62
    -7
  6
HIDDEN
  0
LAYER
  5
10000038
330
2
100
AcDbSymbolTableRecord
100
AcDbLayerTableRecord
  2
SURFACE_THREAD_SYMBOLS
 70
     0
 62
     7
  6
HIDDEN
  0
LAYER
  5
10000039
330
2
100
AcDbSymbolTableRecord
100
AcDbLayerTableRecord
  2
SURFACE_THREAD_SYMBOLS_ON_
 70
     0
 62
     7
  6
HIDDEN
  0
LAYER
  5
1000003A
330
2
100
AcDbSymbolTableRecord
100
AcDbLayerTableRecord
  2
SURFACE_THREAD_SYMBOLS_HID
 70
     0
 62
    -7
  6
HIDDEN
  0
LAYER
  5
1000003B
330
2
100
AcDbSymbolTableRecord
100
AcDbLayerTableRecord
  2
BLIND_THREAD_SYMBOLS
 70
     0
 62
     7
  6
CONTINUOUS
  0
LAYER
  5
1000003C
330
2
100
AcDbSymbolTableRecord
100
AcDbLayerTableRecord
  2
BLIND_THREAD_SYMBOLS_HIDDE
 70
     0
 62
    -7
  6
HIDDEN
  0
LAYER
  5
1000003D
330
2
100
AcDbSymbolTableRecord
100
AcDbLayerTableRecord
  2
EXPLODE_LINES
 70
     0
 62
     7
  6
CONTINUOUS
  0
LAYER
  5
1000003E
330
2
100
AcDbSymbolTableRecord
100
AcDbLayerTableRecord
  2
BREAK_LINES
 70
     0
 62
    -7
  6
CONTINUOUS
  0
LAYER
  5
1000003F
330
2
100
AcDbSymbolTableRecord
100
AcDbLayerTableRecord
  2
SHEETMETAL_BEND_LINES_UP
 70
     0
 62
     7
  6
CENTER
  0
LAYER
  5
10000040
330
2
100
AcDbSymbolTableRecord
100
AcDbLayerTableRecord
  2
SHEETMETAL_BEND_LINES_DOWN
 70
     0
 62
     7
  6
CENTER
  0
LAYER
  5
10000041
330
2
100
AcDbSymbolTableRecord
100
AcDbLayerTableRecord
  2
SHEETMETAL_BEND_TANGENT_LI
 70
     0
 62
     7
  6
CONTINUOUS
  0
LAYER
  5
10000042
330
2
100
AcDbSymbolTableRecord
100
AcDbLayerTableRecord
  2
SHEETMETAL_CUT_LINES
 70
     0
 62
     7
  6
CONTINUOUS
  0
LAYER
  5
10000043
330
2
100
AcDbSymbolTableRecord
100
AcDbLayerTableRecord
  2
HIDDEN
 70
     0
 62
    -7
  6
HIDDEN
  0
LAYER
  5
10000044
330
2
100
AcDbSymbolTableRecord
100
AcDbLayerTableRecord
  2
VISIBLE
 70
     0
 62
     7
  6
CONTINUOUS
  0
LAYER
  5
10000045
330
2
100
AcDbSymbolTableRecord
100
AcDbLayerTableRecord
  2
MODELSKETCH_VISIBLE
 70
     0
 62
     7
  6
CONTINUOUS
  0
LAYER
  5
10000046
330
2
100
AcDbSymbolTableRecord
100
AcDbLayerTableRecord
  2
MODELSKETCH_CONSTRUCTION
 70
     0
 62
    -7
  6
CENTER
  0
LAYER
  5
10000047
330
2
100
AcDbSymbolTableRecord
100
AcDbLayerTableRecord
  2
HIDDEN_BASE_VIEW
 70
     0
 62
     7
  6
CONTINUOUS
  0
LAYER
  5
10000048
330
2
100
AcDbSymbolTableRecord
100
AcDbLayerTableRecord
  2
TANGENT_LINES
 70
     0
 62
    -7
  6
CONTINUOUS
  0
LAYER
  5
10000049
330
2
100
AcDbSymbolTableRecord
100
AcDbLayerTableRecord
  2
TANGENT_HIDDEN
 70
     0
 62
    -7
  6
HIDDEN
  0
LAYER
  5
1000004A
330
2
100
AcDbSymbolTableRecord
100
AcDbLayerTableRecord
  2
INVISIBLE_LINES
 70
     0
 62
    -7
  6
CONTINUOUS
  0
LAYER
  5
1000004B
330
2
100
AcDbSymbolTableRecord
100
AcDbLayerTableRecord
  2
VIEW_HATCHES
 70
     0
 62
    -7
  6
CONTINUOUS
  0
LAYER
  5
1000004C
330
2
100
AcDbSymbolTableRecord
100
AcDbLayerTableRecord
  2
SECTION_JOG_LINES
 70
     0
 62
    -7
  6
CONTINUOUS
  0
ENDTAB
  0
TABLE
  2
STYLE
  5
3
330
0
100
AcDbSymbolTable
 70
     2
  0
STYLE
  5
11
330
3
100
AcDbSymbolTableRecord
100
AcDbTextStyleTableRecord
  2
STANDARD
 70
     0
 40
0.0
 41
1.0
 50
0.0
 71
     0
 42
0.2
  3
txt
  4

  0
STYLE
  5
10000004
330
3
100
AcDbSymbolTableRecord
100
AcDbTextStyleTableRecord
  2
TTFSTYLE
 70
     0
 40
0.0
 41
1.0
 50
0.0
 71
     0
 42
0.2
  3
Verdana.ttf
  4

1001
ACAD
1000
Verdana
1071
       34
  0
ENDTAB
  0
TABLE
  2
VIEW
  5
6
330
0
100
AcDbSymbolTable
 70
     0
  0
ENDTAB
  0
TABLE
  2
UCS
  5
7
330
0
100
AcDbSymbolTable
 70
     0
  0
ENDTAB
  0
TABLE
  2
APPID
  5
9
330
0
100
AcDbSymbolTable
 70
     2
  0
APPID
  5
12
330
9
100
AcDbSymbolTableRecord
100
AcDbRegAppTableRecord
  2
ACAD
 70
     0
  0
APPID
  5
1000024D
330
9
100
AcDbSymbolTableRecord
100
AcDbRegAppTableRecord
  2
ACAD_MLEADERVER
 70
     0
  0
ENDTAB
  0
TABLE
  2
DIMSTYLE
  5
A
330
0
100
AcDbSymbolTable
 70
     1
  0
DIMSTYLE
105
27
330
A
100
AcDbSymbolTableRecord
100
AcDbDimStyleTableRecord
  2
STANDARD
 70
     0
  3

  4

  5

  6

  7

 40
1.0
 41
0.18
 42
0.0625
 43
0.38
 44
0.18
 45
0.0
 46
0.0
 47
0.0
 48
0.0
140
0.18
141
0.09
142
0.0
143
25.4
144
1.0
145
0.0
146
1.0
147
0.09
 71
     0
 72
     0
 73
     1
 74
     1
 75
     0
 76
     0
 77
     0
 78
     0
170
     0
171
     2
172
     0
173
     0
174
     0
175
     0
176
     0
177
     0
178
     0
270
     2
271
     4
272
     4
273
     2
274
     2
340
11
275
     0
280
     0
281
     0
282
     0
283
     1
284
     0
285
     0
286
     0
287
     3
288
     0
  0
ENDTAB
  0
TABLE
  2
BLOCK_RECORD
  5
1
330
0
100
AcDbSymbolTable
 70
     0
  0
BLOCK_RECORD
  5
1F
102
{ACAD_XDICTIONARY
360
10000218
102
}
330
1
100
AcDbSymbolTableRecord
100
AcDbBlockTableRecord
  2
*MODEL_SPACE
  0
BLOCK_RECORD
  5
1B
330
1
100
AcDbSymbolTableRecord
100
AcDbBlockTableRecord
  2
*PAPER_SPACE
  0
ENDTAB
  0
ENDSEC
  0
SECTION
  2
BLOCKS
  0
BLOCK
  5
20
330
1F
100
AcDbEntity
  8
0
100
AcDbBlockBegin
  2
*MODEL_SPACE
 70
     0
 10
0.0
 20
0.0
 30
0.0
  3
*MODEL_SPACE
  1

  0
ENDBLK
  5
21
330
1F
100
AcDbEntity
  8
0
100
AcDbBlockEnd
  0
BLOCK
  5
1C
330
1B
100
AcDbEntity
 67
     1
  8
0
100
AcDbBlockBegin
  2
*PAPER_SPACE
 70
     0
 10
0.0
 20
0.0
 30
0.0
  3
*PAPER_SPACE
  1

  0
ENDBLK
  5
1D
330
1B
100
AcDbEntity
 67
     1
  8
0
100
AcDbBlockEnd
  0
ENDSEC
  0
SECTION
  2
ENTITIES
  0
LINE
  5
1000004D
102
{ACAD_XDICTIONARY
360
1000004E
102
}
330
1F
100
AcDbEntity
  8
VISIBLE
100
AcDbLine
 10
463.9861680613359
 20
116.2692084811994
 30
0.0
 11
463.665223574449
 21
115.980543654165
 31
0.0
  0
SPLINE
  5
10000050
102
{ACAD_XDICTIONARY
360
10000051
102
}
330
1F
100
AcDbEntity
  8
VISIBLE
100
AcDbSpline
210
0.0
220
0.0
230
1.0
 70
    24
 71
     3
 72
     8
 73
     4
 74
     0
 42
0.000000001
 43
0.00000001
 40
0.0
 40
0.0
 40
0.0
 40
0.0
 40
1.0
 40
1.0
 40
1.0
 40
1.0
 10
3.16879111111109
 20
99.2325436111111
 30
0.0
 10
3.002632777777743
 20
99.23477787037034
 30
0.0
 10
2.836474444444396
 20
99.23701212962962
 30
0.0
 10
2.67031611111105
 20
99.2392463888889
 30
0.0
  0
SPLINE
  5
10000053
102
{ACAD_XDICTIONARY
360
10000054
102
}
330
1F
100
AcDbEntity
  8
VISIBLE
100
AcDbSpline
210
0.0
220
0.0
230
1.0
 70
     8
 71
     3
 72
     9
 73
     5
 74
     0
 42
0.000000001
 43
0.00000001
 40
0.0
 40
0.0
 40
0.0
 40
0.0
 40
0.5002589828530893
 40
1.0
 40
1.0
 40
1.0
 40
1.0
 10
17.178655
 20
101.4021269444444
 30
0.0
 10
14.8924538344661
 20
100.7053467347064
 30
0.0
 10
10.32241862491287
 20
99.31250775805452
 30
0.0
 10
5.552510066026649
 20
99.2591891210171
 30
0.0
 10
3.16879111111109
 20
99.2325436111111
 30
0.0
  0
SPLINE
  5
10000056
102
{ACAD_XDICTIONARY
360
10000057
102
}
330
1F
100
AcDbEntity
  8
VISIBLE
100
AcDbSpline
210
0.0
220
0.0
230
1.0
 70
    24
 71
     3
 72
     8
 73
     4
 74
     0
 42
0.000000001
 43
0.00000001
 40
0.0
 40
0.0
 40
0.0
 40
0.0
 40
1.0
 40
1.0
 40
1.0
 40
1.0
 10
26.37592444444445
 20
103.3582797222222
 30
0.0
 10
23.31016796296297
 20
102.7062287962963
 30
0.0
 10
20.24441148148149
 20
102.0541778703703
 30
0.0
 10
17.178655
 20
101.4021269444444
 30
0.0
  0
SPLINE
  5
10000059
102
{ACAD_XDICTIONARY
360
1000005A
102
}
330
1F
100
AcDbEntity
  8
VISIBLE
100
AcDbSpline
210
0.0
220
0.0
230
1.0
 70
     8
 71
     3
 72
     9
 73
     5
 74
     0
 42
0.000000001
 43
0.00000001
 40
0.0
 40
0.0
 40
0.0
 40
0.0
 40
0.5040393064393679
 40
1.0
 40
1.0
 40
1.0
 40
1.0
 10
33.2579133333333
 20
105.3461825
 30
0.0
 10
32.11642178928294
 20
104.9082878798567
 30
0.0
 10
29.85173423522273
 20
104.0395171023617
 30
0.0
 10
27.5282709211531
 20
103.584132557118
 30
0.0
 10
26.37592444444445
 20
103.3582797222222
 30
0.0
  0
SPLINE
  5
1000005C
102
{ACAD_XDICTIONARY
360
1000005D
102
}
330
1F
100
AcDbEntity
  8
VISIBLE
100
AcDbSpline
210
0.0
220
0.0
230
1.0
 70
    24
 71
     3
 72
     8
 73
     4
 74
     0
 42
0.000000001
 43
0.00000001
 40
0.0
 40
0.0
 40
0.0
 40
0.0
 40
1.0
 40
1.0
 40
1.0
 40
1.0
 10
46.3420883333333
 20
104.4039130555556
 30
0.0
 10
45.55986240740737
 20
104.5961769444445
 30
0.0
 10
44.77763648148143
 20
104.7884408333333
 30
0.0
 10
43.99541055555549
 20
104.9807047222222
 30
0.0
  0
SPLINE
  5
1000005F
102
{ACAD_XDICTIONARY
360
10000060
102
}
330
1F
100
AcDbEntity
  8
VISIBLE
100
AcDbSpline
210
0.0
220
0.0
230
1.0
 70
     8
 71
     3
 72
    13
 73
     9
 74
     0
 42
0.000000001
 43
0.00000001
 40
0.0
 40
0.0
 40
0.0
 40
0.0
 40
0.2181098631046981
 40
0.3603248175102385
 40
0.4984913370804919
 40
0.63684708154664
 40
0.7799324890250625
 40
1.0
 40
1.0
 40
1.0
 40
1.0
 10
58.33759111111111
 20
104.570071388889
 30
0.0
 10
58.31186486558494
 20
104.3469148713375
 30
0.0
 10
58.26936424414357
 20
103.9782528112253
 30
0.0
 10
58.14014920914227
 20
103.744374189752
 30
0.0
 10
57.98816460950732
 20
103.5438840744899
 30
0.0
 10
57.78103775298602
 20
103.399789568439
 30
0.0
 10
57.53943105162656
 20
103.2784376254835
 30
0.0
 10
57.16325740405187
 20
103.2473165818469
 30
0.0
 10
56.9352994444444
 20
103.2284575
 30
0.0
  0
SPLINE
  5
10000062
102
{ACAD_XDICTIONARY
360
10000063
102
}
330
1F
100
AcDbEntity
  8
VISIBLE
100
AcDbSpline
210
0.0
220
0.0
230
1.0
 70
    24
 71
     3
 72
     8
 73
     4
 74
     0
 42
0.000000001
 43
0.00000001
 40
0.0
 40
0.0
 40
0.0
 40
0.0
 40
1.0
 40
1.0
 40
1.0
 40
1.0
 10
58.3375911111111
 20
104.570071388889
 30
0.0
 10
58.43060685185183
 20
104.7044797222223
 30
0.0
 10
58.52362259259257
 20
104.8388880555555
 30
0.0
 10
58.61663833333331
 20
104.9732963888888
 30
0.0
  0
SPLINE
  5
10000065
102
{ACAD_XDICTIONARY
360
10000066
102
}
330
1F
100
AcDbEntity
  8
VISIBLE
100
AcDbSpline
210
0.0
220
0.0
230
1.0
 70
     8
 71
     3
 72
    11
 73
     7
 74
     0
 42
0.000000001
 43
0.00000001
 40
0.0
 40
0.0
 40
0.0
 40
0.0
 40
0.3718684829423193
 40
0.4615108182100605
 40
0.7180667574328432
 40
1.0
 40
1.0
 40
1.0
 40
1.0
 10
61.64064944444441
 20
103.4358908333332
 30
0.0
 10
61.0000111381609
 20
103.7554706235403
 30
0.0
 10
60.20494104625566
 20
104.1520880762884
 30
0.0
 10
60.12521488020453
 20
104.1948879156323
 30
0.0
 10
59.37560834277093
 20
104.5830406644616
 30
0.0
 10
58.87745382230499
 20
104.8391873512132
 30
0.0
 10
58.6166383333334
 20
104.973296388889
 30
0.0
  0
SPLINE
  5
10000068
102
{ACAD_XDICTIONARY
360
10000069
102
}
330
1F
100
AcDbEntity
  8
VISIBLE
100
AcDbSpline
210
0.0
220
0.0
230
1.0
 70
    24
 71
     3
 72
     8
 73
     4
 74
     0
 42
0.000000001
 43
0.00000001
 40
0.0
 40
0.0
 40
0.0
 40
0.0
 40
1.0
 40
1.0
 40
1.0
 40
1.0
 10
66.3964466666666
 20
101.2370269444444
 30
0.0
 10
64.81118092592587
 20
101.969981574074
 30
0.0
 10
63.22591518518512
 20
102.7029362037036
 30
0.0
 10
61.6406494444444
 20
103.4358908333332
 30
0.0
  0
SPLINE
  5
1000006B
102
{ACAD_XDICTIONARY
360
1000006C
102
}
330
1F
100
AcDbEntity
  8
VISIBLE
100
AcDbSpline
210
0.0
220
0.0
230
1.0
 70
     8
 71
     3
 72
    10
 73
     6
 74
     0
 42
0.000000001
 43
0.00000001
 40
0.0
 40
0.0
 40
0.0
 40
0.0
 40
0.2730918978912891
 40
0.5630300401951411
 40
1.0
 40
1.0
 40
1.0
 40
1.0
 10
74.88780777777772
 20
101.2624269444444
 30
0.0
 10
74.71307742016401
 20
101.2314201304459
 30
0.0
 10
74.35283809768622
 20
101.167493782331
 30
0.0
 10
73.75788917999562
 20
101.289550081605
 30
0.0
 10
72.96137906203279
 20
101.4669410253565
 30
0.0
 10
72.48256888888889
 20
101.5735769444444
 30
0.0
  0
SPLINE
  5
1000006E
102
{ACAD_XDICTIONARY
360
1000006F
102
}
330
1F
100
AcDbEntity
  8
VISIBLE
100
AcDbSpline
210
0.0
220
0.0
230
1.0
 70
     8
 71
     3
 72
    10
 73
     6
 74
     0
 42
0.000000001
 43
0.00000001
 40
0.0
 40
0.0
 40
0.0
 40
0.0
 40
0.2046292016364516
 40
0.5000045860380675
 40
1.0
 40
1.0
 40
1.0
 40
1.0
 10
72.48256888888889
 20
101.5735769444444
 30
0.0
 10
72.4695416284979
 20
101.5609445802165
 30
0.0
 10
72.43770995497853
 20
101.5300778222174
 30
0.0
 10
72.34660749609974
 20
101.4414368065036
 30
0.0
 10
72.19788365439994
 20
101.3016303819742
 30
0.0
 10
72.1043911111111
 20
101.213743611111
 30
0.0
  0
SPLINE
  5
10000071
102
{ACAD_XDICTIONARY
360
10000072
102
}
330
1F
100
AcDbEntity
  8
VISIBLE
100
AcDbSpline
210
0.0
220
0.0
230
1.0
 70
     8
 71
     3
 72
    14
 73
    10
 74
     0
 42
0.000000001
 43
0.00000001
 40
0.0
 40
0.0
 40
0.0
 40
0.0
 40
0.1465956482450357
 40
0.2384642095995389
 40
0.3287547652986531
 40
0.4173482201158769
 40
0.511409554831385
 40
0.6531096145786515
 40
1.0
 40
1.0
 40
1.0
 40
1.0
 10
77.40381888888889
 20
102.1732991666666
 30
0.0
 10
77.37454350155059
 20
102.2066409964908
 30
0.0
 10
77.32692181437281
 20
102.2608774843457
 30
0.0
 10
77.2825095509177
 20
102.2804504295692
 30
0.0
 10
77.23710007505075
 20
102.2920025541793
 30
0.0
 10
77.19324807648904
 20
102.2897172132636
 30
0.0
 10
77.14056307693643
 20
102.2764902169851
 30
0.0
 10
77.02433394670724
 20
102.2238607931703
 30
0.0
 10
76.72471833547321
 20
101.9999529919903
 30
0.0
 10
76.5119966666666
 20
101.8409825
 30
0.0
  0
SPLINE
  5
10000074
102
{ACAD_XDICTIONARY
360
10000075
102
}
330
1F
100
AcDbEntity
  8
VISIBLE
100
AcDbSpline
210
0.0
220
0.0
230
1.0
 70
     8
 71
     3
 72
    11
 73
     7
 74
     0
 42
0.000000001
 43
0.00000001
 40
0.0
 40
0.0
 40
0.0
 40
0.0
 40
0.2381520116270465
 40
0.4881457764338196
 40
0.74534764818384
 40
1.0
 40
1.0
 40
1.0
 40
1.0
 10
81.7204077777778
 20
101.137896388889
 30
0.0
 10
81.51033352897562
 20
101.2543391072477
 30
0.0
 10
81.07973940302348
 20
101.4930144842683
 30
0.0
 10
80.27998699819865
 20
101.5987414905865
 30
0.0
 10
79.44406349465564
 20
101.6317025983107
 30
0.0
 10
78.89319877736573
 20
101.6510750675697
 30
0.0
 10
78.6191383333333
 20
101.6607130555556
 30
0.0
  0
SPLINE
  5
10000077
102
{ACAD_XDICTIONARY
360
10000078
102
}
330
1F
100
AcDbEntity
  8
VISIBLE
100
AcDbSpline
210
0.0
220
0.0
230
1.0
 70
     8
 71
     3
 72
    10
 73
     6
 74
     0
 42
0.000000001
 43
0.00000001
 40
0.0
 40
0.0
 40
0.0
 40
0.0
 40
0.4382065807909018
 40
0.803990060095763
 40
1.0
 40
1.0
 40
1.0
 40
1.0
 10
87.2950022222222
 20
100.3356797222222
 30
0.0
 10
87.53613243445403
 20
100.2433691588672
 30
0.0
 10
87.97854088362267
 20
100.074004346396
 30
0.0
 10
88.5302010832787
 20
99.9715473817751
 30
0.0
 10
88.65302831086174
 20
100.0053334253122
 30
0.0
 10
88.69588277777781
 20
100.017121388889
 30
0.0
  0
SPLINE
  5
1000007A
102
{ACAD_XDICTIONARY
360
1000007B
102
}
330
1F
100
AcDbEntity
  8
VISIBLE
100
AcDbSpline
210
0.0
220
0.0
230
1.0
 70
     8
 71
     3
 72
    10
 73
     6
 74
     0
 42
0.000000001
 43
0.00000001
 40
0.0
 40
0.0
 40
0.0
 40
0.0
 40
0.4213333927046354
 40
0.7151703182823738
 40
1.0
 40
1.0
 40
1.0
 40
1.0
 10
103.2634883333332
 20
97.4721825
 30
0.0
 10
103.6420567498625
 20
97.40169631350666
 30
0.0
 10
104.2846378973071
 20
97.28205322491745
 30
0.0
 10
104.7845640949593
 20
97.11480995449116
 30
0.0
 10
105.0609978652245
 20
96.9278140147099
 30
0.0
 10
105.1970633333334
 20
96.8357713888889
 30
0.0
  0
SPLINE
  5
1000007D
102
{ACAD_XDICTIONARY
360
1000007E
102
}
330
1F
100
AcDbEntity
  8
VISIBLE
100
AcDbSpline
210
0.0
220
0.0
230
1.0
 70
     8
 71
     3
 72
    10
 73
     6
 74
     0
 42
0.000000001
 43
0.00000001
 40
0.0
 40
0.0
 40
0.0
 40
0.0
 40
0.4067688969938547
 40
0.6937731932101366
 40
1.0
 40
1.0
 40
1.0
 40
1.0
 10
108.6945022222222
 20
96.59623527777781
 30
0.0
 10
108.0651628676517
 20
96.42107803450823
 30
0.0
 10
106.9917799790879
 20
96.12233493769067
 30
0.0
 10
106.0586419884083
 20
96.26495255165587
 30
0.0
 10
105.4903938799531
 20
96.64143207864699
 30
0.0
 10
105.1970633333334
 20
96.8357713888889
 30
0.0
  0
SPLINE
  5
10000080
102
{ACAD_XDICTIONARY
360
10000081
102
}
330
1F
100
AcDbEntity
  8
VISIBLE
100
AcDbSpline
210
0.0
220
0.0
230
1.0
 70
     8
 71
     3
 72
    10
 73
     6
 74
     0
 42
0.000000001
 43
0.00000001
 40
0.0
 40
0.0
 40
0.0
 40
0.0
 40
0.412200797102312
 40
0.7029247069079276
 40
1.0
 40
1.0
 40
1.0
 40
1.0
 10
94.8557355555556
 20
98.96549083333329
 30
0.0
 10
93.76734193587555
 20
99.30608003074926
 30
0.0
 10
91.91130776153075
 20
99.88688570471354
 30
0.0
 10
90.3547029164044
 20
100.2819230357485
 30
0.0
 10
89.25279167401438
 20
100.1060221620592
 30
0.0
 10
88.69588277777781
 20
100.017121388889
 30
0.0
  0
SPLINE
  5
10000083
102
{ACAD_XDICTIONARY
360
10000084
102
}
330
1F
100
AcDbEntity
  8
VISIBLE
100
AcDbSpline
210
0.0
220
0.0
230
1.0
 70
    24
 71
     3
 72
     8
 73
     4
 74
     0
 42
0.000000001
 43
0.00000001
 40
0.0
 40
0.0
 40
0.0
 40
0.0
 40
1.0
 40
1.0
 40
1.0
 40
1.0
 10
126.5214216666666
 20
103.1907102777778
 30
0.0
 10
125.363017037037
 20
102.4304741666667
 30
0.0
 10
124.2046124074074
 20
101.6702380555555
 30
0.0
 10
123.0462077777778
 20
100.9100019444444
 30
0.0
  0
SPLINE
  5
10000086
102
{ACAD_XDICTIONARY
360
10000087
102
}
330
1F
100
AcDbEntity
  8
VISIBLE
100
AcDbSpline
210
0.0
220
0.0
230
1.0
 70
     8
 71
     3
 72
    13
 73
     9
 74
     0
 42
0.000000001
 43
0.00000001
 40
0.0
 40
0.0
 40
0.0
 40
0.0
 40
0.2300107628258285
 40
0.3701973859175717
 40
0.5018289029029712
 40
0.6331233533837464
 40
0.7723648618461647
 40
1.0
 40
1.0
 40
1.0
 40
1.0
 10
72.1043911111111
 20
101.213743611111
 30
0.0
 10
71.71424287537614
 20
100.8761779138951
 30
0.0
 10
71.08630766393216
 20
100.3328731695889
 30
0.0
 10
70.61412347588947
 20
100.0946412003077
 30
0.0
 10
70.1638556820928
 20
99.95348311864409
 30
0.0
 10
69.69456265410065
 20
99.9625004209991
 30
0.0
 10
69.18172642584031
 20
100.0585745251186
 30
0.0
 10
68.44322274114732
 20
100.4006908803863
 30
0.0
 10
67.985005
 20
100.6129630555556
 30
0.0
  0
SPLINE
  5
10000089
102
{ACAD_XDICTIONARY
360
1000008A
102
}
330
1F
100
AcDbEntity
  8
VISIBLE
100
AcDbSpline
210
0.0
220
0.0
230
1.0
 70
     8
 71
     3
 72
     9
 73
     5
 74
     0
 42
0.000000001
 43
0.00000001
 40
0.0
 40
0.0
 40
0.0
 40
0.0
 40
0.5009468025597607
 40
1.0
 40
1.0
 40
1.0
 40
1.0
 10
128.7954272222222
 20
103.414018611111
 30
0.0
 10
128.4051963353862
 20
103.4720739404758
 30
0.0
 10
127.6262096548803
 20
103.5879651470234
 30
0.0
 10
126.8892191397336
 20
103.3229612966437
 30
0.0
 10
126.5214216666666
 20
103.1907102777778
 30
0.0
  0
SPLINE
  5
1000008C
102
{ACAD_XDICTIONARY
360
1000008D
102
}
330
1F
100
AcDbEntity
  8
VISIBLE
100
AcDbSpline
210
0.0
220
0.0
230
1.0
 70
     8
 71
     3
 72
    11
 73
     7
 74
     0
 42
0.000000001
 43
0.00000001
 40
0.0
 40
0.0
 40
0.0
 40
0.0
 40
0.2534622223176143
 40
0.4978403861198195
 40
0.7425674461699979
 40
1.0
 40
1.0
 40
1.0
 40
1.0
 10
133.0322883333334
 20
104.6311019444444
 30
0.0
 10
132.7295937162488
 20
104.3684966317017
 30
0.0
 10
132.1350530242756
 20
103.8526977520992
 30
0.0
 10
131.1172859234995
 20
103.3802491015901
 30
0.0
 10
130.0015950429319
 20
103.1856077714497
 30
0.0
 10
129.2042082439762
 20
103.336608142341
 30
0.0
 10
128.7954272222222
 20
103.414018611111
 30
0.0
  0
SPLINE
  5
1000008F
102
{ACAD_XDICTIONARY
360
10000090
102
}
330
1F
100
AcDbEntity
  8
VISIBLE
100
AcDbSpline
210
0.0
220
0.0
230
1.0
 70
     8
 71
     3
 72
    10
 73
     6
 74
     0
 42
0.000000001
 43
0.00000001
 40
0.0
 40
0.0
 40
0.0
 40
0.0
 40
0.4235900229589362
 40
0.7271505138574802
 40
1.0
 40
1.0
 40
1.0
 40
1.0
 10
134.9909105555556
 20
106.3311380555556
 30
0.0
 10
135.0999765493147
 20
106.4153374235444
 30
0.0
 10
135.2872033231002
 20
106.5598772152794
 30
0.0
 10
135.470533375886
 20
106.6462081266118
 30
0.0
 10
135.5810192731651
 20
106.6612658741733
 30
0.0
 10
135.6333188888888
 20
106.668393611111
 30
0.0
  0
SPLINE
  5
10000092
102
{ACAD_XDICTIONARY
360
10000093
102
}
330
1F
100
AcDbEntity
  8
VISIBLE
100
AcDbSpline
210
0.0
220
0.0
230
1.0
 70
    24
 71
     3
 72
     8
 73
     4
 74
     0
 42
0.000000001
 43
0.00000001
 40
0.0
 40
0.0
 40
0.0
 40
0.0
 40
1.0
 40
1.0
 40
1.0
 40
1.0
 10
148.520291111111
 20
103.7787908333332
 30
0.0
 10
145.8035494444443
 20
104.7267047222222
 30
0.0
 10
143.0868077777777
 20
105.6746186111111
 30
0.0
 10
140.370066111111
 20
106.6225325
 30
0.0
  0
SPLINE
  5
10000095
102
{ACAD_XDICTIONARY
360
10000096
102
}
330
1F
100
AcDbEntity
  8
VISIBLE
100
AcDbSpline
210
0.0
220
0.0
230
1.0
 70
     8
 71
     3
 72
     9
 73
     5
 74
     0
 42
0.000000001
 43
0.00000001
 40
0.0
 40
0.0
 40
0.0
 40
0.0
 40
0.5020788515901036
 40
1.0
 40
1.0
 40
1.0
 40
1.0
 10
151.690352222222
 20
103.0316075
 30
0.0
 10
151.1336657285751
 20
103.0609588663779
 30
0.0
 10
150.0249026490632
 20
103.1194185411578
 30
0.0
 10
149.0204361993109
 20
103.5596101312661
 30
0.0
 10
148.520291111111
 20
103.7787908333332
 30
0.0
  0
SPLINE
  5
10000098
102
{ACAD_XDICTIONARY
360
10000099
102
}
330
1F
100
AcDbEntity
  8
VISIBLE
100
AcDbSpline
210
0.0
220
0.0
230
1.0
 70
     8
 71
     3
 72
    10
 73
     6
 74
     0
 42
0.000000001
 43
0.00000001
 40
0.0
 40
0.0
 40
0.0
 40
0.0
 40
0.2818419270702088
 40
0.5687264318639446
 40
1.0
 40
1.0
 40
1.0
 40
1.0
 10
154.8762883333335
 20
101.7679575
 30
0.0
 10
154.6793792758028
 20
101.9576337069808
 30
0.0
 10
154.2820381603227
 20
102.3403797147414
 30
0.0
 10
153.5329961168829
 20
102.7898904761022
 30
0.0
 10
152.3817231388236
 20
102.940913839193
 30
0.0
 10
151.690352222222
 20
103.0316075
 30
0.0
  0
SPLINE
  5
1000009B
102
{ACAD_XDICTIONARY
360
1000009C
102
}
330
1F
100
AcDbEntity
  8
VISIBLE
100
AcDbSpline
210
0.0
220
0.0
230
1.0
 70
    24
 71
     3
 72
     8
 73
     4
 74
     0
 42
0.000000001
 43
0.00000001
 40
0.0
 40
0.0
 40
0.0
 40
0.0
 40
1.0
 40
1.0
 40
1.0
 40
1.0
 10
170.5985355555555
 20
109.6906408333332
 30
0.0
 10
168.2752587037037
 20
108.5514037962962
 30
0.0
 10
165.9519818518519
 20
107.4121667592592
 30
0.0
 10
163.628705
 20
106.2729297222222
 30
0.0
  0
SPLINE
  5
1000009E
102
{ACAD_XDICTIONARY
360
1000009F
102
}
330
1F
100
AcDbEntity
  8
VISIBLE
100
AcDbSpline
210
0.0
220
0.0
230
1.0
 70
    24
 71
     3
 72
     8
 73
     4
 74
     0
 42
0.000000001
 43
0.00000001
 40
0.0
 40
0.0
 40
0.0
 40
0.0
 40
1.0
 40
1.0
 40
1.0
 40
1.0
 10
172.374066111111
 20
110.3065908333332
 30
0.0
 10
171.7822225925925
 20
110.1012741666665
 30
0.0
 10
171.190379074074
 20
109.8959574999999
 30
0.0
 10
170.5985355555555
 20
109.6906408333332
 30
0.0
  0
SPLINE
  5
100000A1
102
{ACAD_XDICTIONARY
360
100000A2
102
}
330
1F
100
AcDbEntity
  8
VISIBLE
100
AcDbSpline
210
0.0
220
0.0
230
1.0
 70
     8
 71
     3
 72
    11
 73
     7
 74
     0
 42
0.000000001
 43
0.00000001
 40
0.0
 40
0.0
 40
0.0
 40
0.0
 40
0.1379839676577952
 40
0.3226092999496881
 40
0.6191585228657601
 40
1.0
 40
1.0
 40
1.0
 40
1.0
 10
172.374066111111
 20
110.3065908333332
 30
0.0
 10
172.4006979383774
 20
110.3101611988601
 30
0.0
 10
172.4629636877729
 20
110.3185087854875
 30
0.0
 10
172.6233305194688
 20
110.3082381614723
 30
0.0
 10
173.0179242179933
 20
110.2656555656798
 30
0.0
 10
173.4085654466945
 20
110.1999507374504
 30
0.0
 10
173.628191111111
 20
110.1630102777778
 30
0.0
  0
SPLINE
  5
100000A4
102
{ACAD_XDICTIONARY
360
100000A5
102
}
330
1F
100
AcDbEntity
  8
VISIBLE
100
AcDbSpline
210
0.0
220
0.0
230
1.0
 70
    24
 71
     3
 72
     8
 73
     4
 74
     0
 42
0.000000001
 43
0.00000001
 40
0.0
 40
0.0
 40
0.0
 40
0.0
 40
1.0
 40
1.0
 40
1.0
 40
1.0
 10
181.781943888889
 20
108.4153491666666
 30
0.0
 10
179.0640262962963
 20
108.9979028703703
 30
0.0
 10
176.3461087037037
 20
109.5804565740741
 30
0.0
 10
173.628191111111
 20
110.1630102777778
 30
0.0
  0
SPLINE
  5
100000A7
102
{ACAD_XDICTIONARY
360
100000A8
102
}
330
1F
100
AcDbEntity
  8
VISIBLE
100
AcDbSpline
210
0.0
220
0.0
230
1.0
 70
    24
 71
     3
 72
     8
 73
     4
 74
     0
 42
0.000000001
 43
0.00000001
 40
0.0
 40
0.0
 40
0.0
 40
0.0
 40
1.0
 40
1.0
 40
1.0
 40
1.0
 10
189.3215105555555
 20
106.9601408333332
 30
0.0
 10
186.8083216666667
 20
107.4452102777777
 30
0.0
 10
184.2951327777779
 20
107.9302797222221
 30
0.0
 10
181.781943888889
 20
108.4153491666666
 30
0.0
  0
SPLINE
  5
100000AA
102
{ACAD_XDICTIONARY
360
100000AB
102
}
330
1F
100
AcDbEntity
  8
VISIBLE
100
AcDbSpline
210
0.0
220
0.0
230
1.0
 70
    24
 71
     3
 72
     8
 73
     4
 74
     0
 42
0.000000001
 43
0.00000001
 40
0.0
 40
0.0
 40
0.0
 40
0.0
 40
1.0
 40
1.0
 40
1.0
 40
1.0
 10
192.133502222222
 20
106.1960241666666
 30
0.0
 10
191.1961716666665
 20
106.4507297222221
 30
0.0
 10
190.258841111111
 20
106.7054352777777
 30
0.0
 10
189.3215105555555
 20
106.9601408333332
 30
0.0
  0
SPLINE
  5
100000AD
102
{ACAD_XDICTIONARY
360
100000AE
102
}
330
1F
100
AcDbEntity
  8
VISIBLE
100
AcDbSpline
210
0.0
220
0.0
230
1.0
 70
    24
 71
     3
 72
     8
 73
     4
 74
     0
 42
0.000000001
 43
0.00000001
 40
0.0
 40
0.0
 40
0.0
 40
0.0
 40
1.0
 40
1.0
 40
1.0
 40
1.0
 10
133.0322883333334
 20
104.6311019444444
 30
0.0
 10
133.6851624074075
 20
105.1977806481482
 30
0.0
 10
134.3380364814815
 20
105.7644593518519
 30
0.0
 10
134.9909105555556
 20
106.3311380555556
 30
0.0
  0
SPLINE
  5
100000B0
102
{ACAD_XDICTIONARY
360
100000B1
102
}
330
1F
100
AcDbEntity
  8
VISIBLE
100
AcDbSpline
210
0.0
220
0.0
230
1.0
 70
     8
 71
     3
 72
    11
 73
     7
 74
     0
 42
0.000000001
 43
0.00000001
 40
0.0
 40
0.0
 40
0.0
 40
0.0
 40
0.1361405899114261
 40
0.4762046589019976
 40
0.7668805076166669
 40
1.0
 40
1.0
 40
1.0
 40
1.0
 10
203.263641111111
 20
108.2918769444444
 30
0.0
 10
203.2439778116072
 20
108.294717504772
 30
0.0
 10
203.1751977744471
 20
108.3046534692243
 30
0.0
 10
202.6745190978496
 20
108.2822090918577
 30
0.0
 10
202.3446466817849
 20
108.2531903437808
 30
0.0
 10
202.1784019431048
 20
108.2228362759243
 30
0.0
 10
202.1044133333335
 20
108.2093269444444
 30
0.0
  0
SPLINE
  5
100000B3
102
{ACAD_XDICTIONARY
360
100000B4
102
}
330
1F
100
AcDbEntity
  8
VISIBLE
100
AcDbSpline
210
0.0
220
0.0
230
1.0
 70
    24
 71
     3
 72
     8
 73
     4
 74
     0
 42
0.000000001
 43
0.00000001
 40
0.0
 40
0.0
 40
0.0
 40
0.0
 40
1.0
 40
1.0
 40
1.0
 40
1.0
 10
220.024466111111
 20
105.2308241666666
 30
0.0
 10
217.9337874074074
 20
105.3867519444444
 30
0.0
 10
215.8431087037037
 20
105.5426797222222
 30
0.0
 10
213.75243
 20
105.6986075
 30
0.0
  0
SPLINE
  5
100000B6
102
{ACAD_XDICTIONARY
360
100000B7
102
}
330
1F
100
AcDbEntity
  8
VISIBLE
100
AcDbSpline
210
0.0
220
0.0
230
1.0
 70
     8
 71
     3
 72
    10
 73
     6
 74
     0
 42
0.000000001
 43
0.00000001
 40
0.0
 40
0.0
 40
0.0
 40
0.0
 40
0.4145957520530106
 40
0.6992488259965739
 40
1.0
 40
1.0
 40
1.0
 40
1.0
 10
225.0660133333335
 20
104.179193611111
 30
0.0
 10
224.1501404125583
 20
104.0888279871411
 30
0.0
 10
222.6054476330427
 20
103.936419149958
 30
0.0
 10
221.40636406317
 20
104.2890391597317
 30
0.0
 10
220.7325749636168
 20
104.8729729064598
 30
0.0
 10
220.386416111111
 20
105.172968611111
 30
0.0
  0
SPLINE
  5
100000B9
102
{ACAD_XDICTIONARY
360
100000BA
102
}
330
1F
100
AcDbEntity
  8
VISIBLE
100
AcDbSpline
210
0.0
220
0.0
230
1.0
 70
     8
 71
     3
 72
     9
 73
     5
 74
     0
 42
0.000000001
 43
0.00000001
 40
0.0
 40
0.0
 40
0.0
 40
0.0
 40
0.4965383188455716
 40
1.0
 40
1.0
 40
1.0
 40
1.0
 10
118.270655
 20
99.70491305555561
 30
0.0
 10
118.1696120031065
 20
99.72541263975432
 30
0.0
 10
117.9661171406588
 20
99.76669763916054
 30
0.0
 10
117.7615681395381
 20
99.71128949068982
 30
0.0
 10
117.6585855555554
 20
99.6833936111111
 30
0.0
  0
SPLINE
  5
100000BC
102
{ACAD_XDICTIONARY
360
100000BD
102
}
330
1F
100
AcDbEntity
  8
VISIBLE
100
AcDbSpline
210
0.0
220
0.0
230
1.0
 70
     8
 71
     3
 72
     9
 73
     5
 74
     0
 42
0.000000001
 43
0.00000001
 40
0.0
 40
0.0
 40
0.0
 40
0.0
 40
0.5004926688826351
 40
1.0
 40
1.0
 40
1.0
 40
1.0
 10
232.9728216666665
 20
104.7214130555556
 30
0.0
 10
231.6590464538876
 20
104.5245891315177
 30
0.0
 10
229.0340825044416
 20
104.1313287777201
 30
0.0
 10
226.3878339074766
 20
104.1632491507637
 30
0.0
 10
225.0660133333335
 20
104.179193611111
 30
0.0
  0
SPLINE
  5
100000BF
102
{ACAD_XDICTIONARY
360
100000C0
102
}
330
1F
100
AcDbEntity
  8
VISIBLE
100
AcDbSpline
210
0.0
220
0.0
230
1.0
 70
     8
 71
     3
 72
     9
 73
     5
 74
     0
 42
0.000000001
 43
0.00000001
 40
0.0
 40
0.0
 40
0.0
 40
0.0
 40
0.4995267107481094
 40
1.0
 40
1.0
 40
1.0
 40
1.0
 10
51.0611966666666
 20
103.2189325
 30
0.0
 10
50.23239704537122
 20
103.2399584207919
 30
0.0
 10
48.57322726833538
 20
103.2820501054595
 30
0.0
 10
47.08627048544291
 20
104.0297228285477
 30
0.0
 10
46.3420883333333
 20
104.4039130555556
 30
0.0
  0
SPLINE
  5
100000C2
102
{ACAD_XDICTIONARY
360
100000C3
102
}
330
1F
100
AcDbEntity
  8
VISIBLE
100
AcDbSpline
210
0.0
220
0.0
230
1.0
 70
    24
 71
     3
 72
     8
 73
     4
 74
     0
 42
0.000000001
 43
0.00000001
 40
0.0
 40
0.0
 40
0.0
 40
0.0
 40
1.0
 40
1.0
 40
1.0
 40
1.0
 10
247.058532777778
 20
106.9707241666666
 30
0.0
 10
245.3239244444447
 20
106.5555047222221
 30
0.0
 10
243.5893161111114
 20
106.1402852777777
 30
0.0
 10
241.854707777778
 20
105.7250658333332
 30
0.0
  0
SPLINE
  5
100000C5
102
{ACAD_XDICTIONARY
360
100000C6
102
}
330
1F
100
AcDbEntity
  8
VISIBLE
100
AcDbSpline
210
0.0
220
0.0
230
1.0
 70
     8
 71
     3
 72
     9
 73
     5
 74
     0
 42
0.000000001
 43
0.00000001
 40
0.0
 40
0.0
 40
0.0
 40
0.0
 40
0.4963914716826246
 40
1.0
 40
1.0
 40
1.0
 40
1.0
 10
254.4703938888891
 20
108.3553769444444
 30
0.0
 10
254.0107187304509
 20
108.133568049269
 30
0.0
 10
253.0846851769735
 20
107.6867253699949
 30
0.0
 10
252.034521053273
 20
107.6661703130756
 30
0.0
 10
251.5056494444445
 20
107.655818611111
 30
0.0
  0
SPLINE
  5
100000C8
102
{ACAD_XDICTIONARY
360
100000C9
102
}
330
1F
100
AcDbEntity
  8
VISIBLE
100
AcDbSpline
210
0.0
220
0.0
230
1.0
 70
     8
 71
     3
 72
     9
 73
     5
 74
     0
 42
0.000000001
 43
0.00000001
 40
0.0
 40
0.0
 40
0.0
 40
0.0
 40
0.5591958299604998
 40
1.0
 40
1.0
 40
1.0
 40
1.0
 10
257.3000244444445
 20
108.9681519444444
 30
0.0
 10
256.6479196508191
 20
108.9711996996388
 30
0.0
 10
255.4817721964087
 20
108.9766499462807
 30
0.0
 10
254.7798181567477
 20
108.5454511652421
 30
0.0
 10
254.470393888889
 20
108.3553769444444
 30
0.0
  0
SPLINE
  5
100000CB
102
{ACAD_XDICTIONARY
360
100000CC
102
}
330
1F
100
AcDbEntity
  8
VISIBLE
100
AcDbSpline
210
0.0
220
0.0
230
1.0
 70
     8
 71
     3
 72
     9
 73
     5
 74
     0
 42
0.000000001
 43
0.00000001
 40
0.0
 40
0.0
 40
0.0
 40
0.0
 40
0.5004839603963707
 40
1.0
 40
1.0
 40
1.0
 40
1.0
 10
265.7631633333336
 20
106.4045158333332
 30
0.0
 10
264.4238149588149
 20
107.0792589162087
 30
0.0
 10
261.7477084688932
 20
108.4274401493118
 30
0.0
 10
258.7816288092023
 20
108.7880310205342
 30
0.0
 10
257.3000244444445
 20
108.9681519444444
 30
0.0
  0
SPLINE
  5
100000CE
102
{ACAD_XDICTIONARY
360
100000CF
102
}
330
1F
100
AcDbEntity
  8
VISIBLE
100
AcDbSpline
210
0.0
220
0.0
230
1.0
 70
     8
 71
     3
 72
    10
 73
     6
 74
     0
 42
0.000000001
 43
0.00000001
 40
0.0
 40
0.0
 40
0.0
 40
0.0
 40
0.4105266927315319
 40
0.6993258799090665
 40
1.0
 40
1.0
 40
1.0
 40
1.0
 10
196.264882777778
 20
106.3710019444444
 30
0.0
 10
195.5323208262956
 20
106.1579428972013
 30
0.0
 10
194.2844128573896
 20
105.7950001012176
 30
0.0
 10
193.2101735513638
 20
105.7987395728524
 30
0.0
 10
192.4971804114375
 20
106.0618293220833
 30
0.0
 10
192.133502222222
 20
106.1960241666666
 30
0.0
  0
SPLINE
  5
100000D1
102
{ACAD_XDICTIONARY
360
100000D2
102
}
330
1F
100
AcDbEntity
  8
VISIBLE
100
AcDbSpline
210
0.0
220
0.0
230
1.0
 70
     8
 71
     3
 72
    11
 73
     7
 74
     0
 42
0.000000001
 43
0.00000001
 40
0.0
 40
0.0
 40
0.0
 40
0.0
 40
0.2457740670718154
 40
0.5015713550820798
 40
0.7564349438152478
 40
1.0
 40
1.0
 40
1.0
 40
1.0
 10
267.5598605555555
 20
106.284218611111
 30
0.0
 10
267.4177702109237
 20
106.2435223722623
 30
0.0
 10
267.1277947568405
 20
106.160470210131
 30
0.0
 10
266.6430053545278
 20
106.1554595742131
 30
0.0
 10
266.1646275895345
 20
106.2189977246787
 30
0.0
 10
265.8949470182523
 20
106.3436181080687
 30
0.0
 10
265.7631633333336
 20
106.4045158333332
 30
0.0
  0
SPLINE
  5
100000D4
102
{ACAD_XDICTIONARY
360
100000D5
102
}
330
1F
100
AcDbEntity
  8
VISIBLE
100
AcDbSpline
210
0.0
220
0.0
230
1.0
 70
    24
 71
     3
 72
     8
 73
     4
 74
     0
 42
0.000000001
 43
0.00000001
 40
0.0
 40
0.0
 40
0.0
 40
0.0
 40
1.0
 40
1.0
 40
1.0
 40
1.0
 10
275.901291111111
 20
109.719921388889
 30
0.0
 10
275.7570049999998
 20
109.6452500925927
 30
0.0
 10
275.6127188888887
 20
109.5705787962963
 30
0.0
 10
275.4684327777775
 20
109.4959075
 30
0.0
  0
SPLINE
  5
100000D7
102
{ACAD_XDICTIONARY
360
100000D8
102
}
330
1F
100
AcDbEntity
  8
VISIBLE
100
AcDbSpline
210
0.0
220
0.0
230
1.0
 70
     8
 71
     3
 72
    11
 73
     7
 74
     0
 42
0.000000001
 43
0.00000001
 40
0.0
 40
0.0
 40
0.0
 40
0.0
 40
0.2452081256356473
 40
0.499499092896745
 40
0.7541016218900333
 40
1.0
 40
1.0
 40
1.0
 40
1.0
 10
282.875707777778
 20
110.4921519444444
 30
0.0
 10
282.7383001613122
 20
110.416096715246
 30
0.0
 10
282.4583951638581
 20
110.2611690679822
 30
0.0
 10
281.9611045444561
 20
110.1410264918586
 30
0.0
 10
281.4512962347499
 20
110.0900322743854
 30
0.0
 10
281.1337669291927
 20
110.1399141807929
 30
0.0
 10
280.9777633333336
 20
110.164421388889
 30
0.0
  0
SPLINE
  5
100000DA
102
{ACAD_XDICTIONARY
360
100000DB
102
}
330
1F
100
AcDbEntity
  8
VISIBLE
100
AcDbSpline
210
0.0
220
0.0
230
1.0
 70
    24
 71
     3
 72
     8
 73
     4
 74
     0
 42
0.000000001
 43
0.00000001
 40
0.0
 40
0.0
 40
0.0
 40
0.0
 40
1.0
 40
1.0
 40
1.0
 40
1.0
 10
290.4015161111111
 20
115.7485408333334
 30
0.0
 10
287.8929133333334
 20
113.9964112037037
 30
0.0
 10
285.3843105555557
 20
112.2442815740741
 30
0.0
 10
282.875707777778
 20
110.4921519444444
 30
0.0
  0
SPLINE
  5
100000DD
102
{ACAD_XDICTIONARY
360
100000DE
102
}
330
1F
100
AcDbEntity
  8
VISIBLE
100
AcDbSpline
210
0.0
220
0.0
230
1.0
 70
     8
 71
     3
 72
    10
 73
     6
 74
     0
 42
0.000000001
 43
0.00000001
 40
0.0
 40
0.0
 40
0.0
 40
0.0
 40
0.4138417017763489
 40
0.7038870765286142
 40
1.0
 40
1.0
 40
1.0
 40
1.0
 10
294.1984633333336
 20
118.0419491666666
 30
0.0
 10
293.6868425884628
 20
117.5446285120447
 30
0.0
 10
292.8166469826243
 20
116.6987553673699
 30
0.0
 10
291.9218838331047
 20
116.2786149907136
 30
0.0
 10
291.2638241092155
 20
116.1202767073174
 30
0.0
 10
290.9313883333335
 20
116.0402880555556
 30
0.0
  0
SPLINE
  5
100000E0
102
{ACAD_XDICTIONARY
360
100000E1
102
}
330
1F
100
AcDbEntity
  8
VISIBLE
100
AcDbSpline
210
0.0
220
0.0
230
1.0
 70
     8
 71
     3
 72
    10
 73
     6
 74
     0
 42
0.000000001
 43
0.00000001
 40
0.0
 40
0.0
 40
0.0
 40
0.0
 40
0.4134377703391537
 40
0.704363346938967
 40
1.0
 40
1.0
 40
1.0
 40
1.0
 10
493.139377222222
 20
108.220968611111
 30
0.0
 10
491.0064020910488
 20
108.0656869221961
 30
0.0
 10
487.3725069558793
 20
107.801137483395
 30
0.0
 10
484.4073052617537
 20
108.0940838835576
 30
0.0
 10
482.5077037101846
 20
108.8560836574001
 30
0.0
 10
481.550274444444
 20
109.240143611111
 30
0.0
  0
SPLINE
  5
100000E3
102
{ACAD_XDICTIONARY
360
100000E4
102
}
330
1F
100
AcDbEntity
  8
VISIBLE
100
AcDbSpline
210
0.0
220
0.0
230
1.0
 70
    24
 71
     3
 72
     8
 73
     4
 74
     0
 42
0.000000001
 43
0.00000001
 40
0.0
 40
0.0
 40
0.0
 40
0.0
 40
1.0
 40
1.0
 40
1.0
 40
1.0
 10
202.1044133333335
 20
108.2093269444444
 30
0.0
 10
200.1579031481483
 20
107.5965519444444
 30
0.0
 10
198.2113929629632
 20
106.9837769444444
 30
0.0
 10
196.264882777778
 20
106.3710019444444
 30
0.0
  0
SPLINE
  5
100000E6
102
{ACAD_XDICTIONARY
360
100000E7
102
}
330
1F
100
AcDbEntity
  8
VISIBLE
100
AcDbSpline
210
0.0
220
0.0
230
1.0
 70
     8
 71
     3
 72
    10
 73
     6
 74
     0
 42
0.000000001
 43
0.00000001
 40
0.0
 40
0.0
 40
0.0
 40
0.0
 40
0.2953232580002275
 40
0.5866084761495857
 40
1.0
 40
1.0
 40
1.0
 40
1.0
 10
447.8490605555555
 20
107.9489769444444
 30
0.0
 10
447.3196609101956
 20
108.0253292358911
 30
0.0
 10
446.2681002530989
 20
108.1769898319421
 30
0.0
 10
444.907250669574
 20
108.9131247046563
 30
0.0
 10
443.3032680503172
 20
109.9034351626038
 30
0.0
 10
442.362307777778
 20
110.4843908333332
 30
0.0
  0
SPLINE
  5
100000E9
102
{ACAD_XDICTIONARY
360
100000EA
102
}
330
1F
100
AcDbEntity
  8
VISIBLE
100
AcDbSpline
210
0.0
220
0.0
230
1.0
 70
     8
 71
     3
 72
    10
 73
     6
 74
     0
 42
0.000000001
 43
0.00000001
 40
0.0
 40
0.0
 40
0.0
 40
0.0
 40
0.2974039510826018
 40
0.5883607526012946
 40
1.0
 40
1.0
 40
1.0
 40
1.0
 10
503.723416111111
 20
106.2108408333332
 30
0.0
 10
503.095071653588
 20
106.0975676488643
 30
0.0
 10
501.8520040461292
 20
105.8734768261935
 30
0.0
 10
500.013605706128
 20
106.0247526786988
 30
0.0
 10
497.9761969628234
 20
106.9122107137681
 30
0.0
 10
496.7825133333329
 20
107.4321575
 30
0.0
  0
SPLINE
  5
100000EC
102
{ACAD_XDICTIONARY
360
100000ED
102
}
330
1F
100
AcDbEntity
  8
VISIBLE
100
AcDbSpline
210
0.0
220
0.0
230
1.0
 70
     8
 71
     3
 72
    10
 73
     6
 74
     0
 42
0.000000001
 43
0.00000001
 40
0.0
 40
0.0
 40
0.0
 40
0.0
 40
0.4221797803296991
 40
0.7252351542345608
 40
1.0
 40
1.0
 40
1.0
 40
1.0
 10
503.723416111111
 20
106.2108408333332
 30
0.0
 10
503.8148317328589
 20
106.2303107881998
 30
0.0
 10
503.9718686768974
 20
106.2637569558717
 30
0.0
 10
504.1096059347432
 20
106.2588141998901
 30
0.0
 10
504.1825965371686
 20
106.2346693873898
 30
0.0
 10
504.217305
 20
106.2231880555554
 30
0.0
  0
SPLINE
  5
100000EF
102
{ACAD_XDICTIONARY
360
100000F0
102
}
330
1F
100
AcDbEntity
  8
VISIBLE
100
AcDbSpline
210
0.0
220
0.0
230
1.0
 70
    24
 71
     3
 72
     8
 73
     4
 74
     0
 42
0.000000001
 43
0.00000001
 40
0.0
 40
0.0
 40
0.0
 40
0.0
 40
1.0
 40
1.0
 40
1.0
 40
1.0
 10
536.5328077777779
 20
102.7366852777778
 30
0.0
 10
535.9282642592592
 20
102.8235862037037
 30
0.0
 10
535.3237207407407
 20
102.9104871296297
 30
0.0
 10
534.719177222222
 20
102.9973880555556
 30
0.0
  0
SPLINE
  5
100000F2
102
{ACAD_XDICTIONARY
360
100000F3
102
}
330
1F
100
AcDbEntity
  8
VISIBLE
100
AcDbSpline
210
0.0
220
0.0
230
1.0
 70
     8
 71
     3
 72
    13
 73
     9
 74
     0
 42
0.000000001
 43
0.00000001
 40
0.0
 40
0.0
 40
0.0
 40
0.0
 40
0.189146868651703
 40
0.452273514268877
 40
0.6987064195570453
 40
0.8520033754292555
 40
0.9364137965561395
 40
1.0
 40
1.0
 40
1.0
 40
1.0
 10
404.2728911111111
 20
105.5493825
 30
0.0
 10
404.1993288085748
 20
105.5398596141748
 30
0.0
 10
404.0234322615003
 20
105.5170892185089
 30
0.0
 10
403.5629402773328
 20
105.5137669631675
 30
0.0
 10
403.1654810109893
 20
105.5158770714725
 30
0.0
 10
402.9941150925419
 20
105.5162181429561
 30
0.0
 10
402.9404556095761
 20
105.5158261451506
 30
0.0
 10
402.9199703185575
 20
105.5151155726358
 30
0.0
 10
402.911168888889
 20
105.5148102777778
 30
0.0
  0
SPLINE
  5
100000F5
102
{ACAD_XDICTIONARY
360
100000F6
102
}
330
1F
100
AcDbEntity
  8
VISIBLE
100
AcDbSpline
210
0.0
220
0.0
230
1.0
 70
    24
 71
     3
 72
     8
 73
     4
 74
     0
 42
0.000000001
 43
0.00000001
 40
0.0
 40
0.0
 40
0.0
 40
0.0
 40
1.0
 40
1.0
 40
1.0
 40
1.0
 10
320.0267355555555
 20
112.3470575
 30
0.0
 10
319.238042037037
 20
113.184669537037
 30
0.0
 10
318.4493485185185
 20
114.022281574074
 30
0.0
 10
317.660655
 20
114.859893611111
 30
0.0
  0
SPLINE
  5
100000F8
102
{ACAD_XDICTIONARY
360
100000F9
102
}
330
1F
100
AcDbEntity
  8
VISIBLE
100
AcDbSpline
210
0.0
220
0.0
230
1.0
 70
     8
 71
     3
 72
     9
 73
     5
 74
     0
 42
0.000000001
 43
0.00000001
 40
0.0
 40
0.0
 40
0.0
 40
0.0
 40
0.5053902109114954
 40
1.0
 40
1.0
 40
1.0
 40
1.0
 10
552.7983327777779
 20
108.919468611111
 30
0.0
 10
552.0629502244179
 20
108.4620634876724
 30
0.0
 10
550.607871480345
 20
107.5570100981071
 30
0.0
 10
548.9478916956454
 20
107.5239859910639
 30
0.0
 10
548.126849444444
 20
107.5076519444444
 30
0.0
  0
SPLINE
  5
100000FB
102
{ACAD_XDICTIONARY
360
100000FC
102
}
330
1F
100
AcDbEntity
  8
VISIBLE
100
AcDbSpline
210
0.0
220
0.0
230
1.0
 70
    24
 71
     3
 72
     8
 73
     4
 74
     0
 42
0.000000001
 43
0.00000001
 40
0.0
 40
0.0
 40
0.0
 40
0.0
 40
1.0
 40
1.0
 40
1.0
 40
1.0
 10
56.9352994444444
 20
103.2284575
 30
0.0
 10
54.97726518518514
 20
103.2252825
 30
0.0
 10
53.01923092592587
 20
103.2221075
 30
0.0
 10
51.0611966666666
 20
103.2189325
 30
0.0
  0
SPLINE
  5
100000FE
102
{ACAD_XDICTIONARY
360
100000FF
102
}
330
1F
100
AcDbEntity
  8
VISIBLE
100
AcDbSpline
210
0.0
220
0.0
230
1.0
 70
     8
 71
     3
 72
    10
 73
     6
 74
     0
 42
0.000000001
 43
0.00000001
 40
0.0
 40
0.0
 40
0.0
 40
0.0
 40
0.4222837501604109
 40
0.7158878718263184
 40
1.0
 40
1.0
 40
1.0
 40
1.0
 10
481.589432777778
 20
109.2666019444444
 30
0.0
 10
481.3601693554493
 20
109.2404005449184
 30
0.0
 10
480.97150437974
 20
109.195981918489
 30
0.0
 10
480.6587541663309
 20
109.1699642841285
 30
0.0
 10
480.4655838166587
 20
109.2167716684929
 30
0.0
 10
480.370585555556
 20
109.2397908333332
 30
0.0
  0
SPLINE
  5
10000101
102
{ACAD_XDICTIONARY
360
10000102
102
}
330
1F
100
AcDbEntity
  8
VISIBLE
100
AcDbSpline
210
0.0
220
0.0
230
1.0
 70
     8
 71
     3
 72
    10
 73
     6
 74
     0
 42
0.000000001
 43
0.00000001
 40
0.0
 40
0.0
 40
0.0
 40
0.0
 40
0.4120079837130917
 40
0.6994821298406955
 40
1.0
 40
1.0
 40
1.0
 40
1.0
 10
123.0462077777778
 20
100.9100019444444
 30
0.0
 10
122.2499288002335
 20
100.4314914737735
 30
0.0
 10
120.8980547172595
 20
99.61910546086288
 30
0.0
 10
119.617357437046
 20
99.3934570756259
 30
0.0
 10
118.726145877809
 20
99.59957029104095
 30
0.0
 10
118.270655
 20
99.70491305555561
 30
0.0
  0
SPLINE
  5
10000104
102
{ACAD_XDICTIONARY
360
10000105
102
}
330
1F
100
AcDbEntity
  8
VISIBLE
100
AcDbSpline
210
0.0
220
0.0
230
1.0
 70
     8
 71
     3
 72
    11
 73
     7
 74
     0
 42
0.000000001
 43
0.00000001
 40
0.0
 40
0.0
 40
0.0
 40
0.0
 40
0.2590249436462698
 40
0.5048187883686462
 40
0.7484886261227913
 40
1.0
 40
1.0
 40
1.0
 40
1.0
 10
427.337502222222
 20
109.9083047222222
 30
0.0
 10
427.206293988383
 20
109.7059859597852
 30
0.0
 10
426.9505796903768
 20
109.3116829591554
 30
0.0
 10
426.4379313406272
 20
108.9079832420201
 30
0.0
 10
425.8509344622191
 20
108.6519313733044
 30
0.0
 10
425.4085094484429
 20
108.6026551948254
 30
0.0
 10
425.183793888889
 20
108.5776269444444
 30
0.0
  0
SPLINE
  5
10000107
102
{ACAD_XDICTIONARY
360
10000108
102
}
330
1F
100
AcDbEntity
  8
VISIBLE
100
AcDbSpline
210
0.0
220
0.0
230
1.0
 70
    24
 71
     3
 72
     8
 73
     4
 74
     0
 42
0.000000001
 43
0.00000001
 40
0.0
 40
0.0
 40
0.0
 40
0.0
 40
1.0
 40
1.0
 40
1.0
 40
1.0
 10
275.4684327777775
 20
109.4959075
 30
0.0
 10
272.8322420370368
 20
108.425344537037
 30
0.0
 10
270.1960512962962
 20
107.354781574074
 30
0.0
 10
267.5598605555555
 20
106.284218611111
 30
0.0
  0
SPLINE
  5
1000010A
102
{ACAD_XDICTIONARY
360
1000010B
102
}
330
1F
100
AcDbEntity
  8
VISIBLE
100
AcDbSpline
210
0.0
220
0.0
230
1.0
 70
     8
 71
     3
 72
    10
 73
     6
 74
     0
 42
0.000000001
 43
0.00000001
 40
0.0
 40
0.0
 40
0.0
 40
0.0
 40
0.300166767896529
 40
0.5894976874240254
 40
1.0
 40
1.0
 40
1.0
 40
1.0
 10
349.912657777778
 20
111.0456602777778
 30
0.0
 10
349.6441983765928
 20
111.1648075427625
 30
0.0
 10
349.1169708048167
 20
111.3988009247201
 30
0.0
 10
348.3149842204609
 20
111.5685275872303
 30
0.0
 10
347.3272595772576
 20
111.4353066667051
 30
0.0
 10
346.7478883333335
 20
111.3571630555554
 30
0.0
  0
SPLINE
  5
1000010D
102
{ACAD_XDICTIONARY
360
1000010E
102
}
330
1F
100
AcDbEntity
  8
VISIBLE
100
AcDbSpline
210
0.0
220
0.0
230
1.0
 70
     8
 71
     3
 72
     9
 73
     5
 74
     0
 42
0.000000001
 43
0.00000001
 40
0.0
 40
0.0
 40
0.0
 40
0.0
 40
0.5004254211023756
 40
1.0
 40
1.0
 40
1.0
 40
1.0
 10
241.854707777778
 20
105.7250658333332
 30
0.0
 10
240.5321158533127
 20
105.2604843547941
 30
0.0
 10
237.8891807251335
 20
104.3321112966956
 30
0.0
 10
235.1072949634766
 20
104.5943072020867
 30
0.0
 10
233.7175355555555
 20
104.725293611111
 30
0.0
  0
SPLINE
  5
10000110
102
{ACAD_XDICTIONARY
360
10000111
102
}
330
1F
100
AcDbEntity
  8
VISIBLE
100
AcDbSpline
210
0.0
220
0.0
230
1.0
 70
    24
 71
     3
 72
     8
 73
     4
 74
     0
 42
0.000000001
 43
0.00000001
 40
0.0
 40
0.0
 40
0.0
 40
0.0
 40
1.0
 40
1.0
 40
1.0
 40
1.0
 10
558.2822633333329
 20
111.7378102777778
 30
0.0
 10
556.4542864814812
 20
110.7983630555555
 30
0.0
 10
554.6263096296295
 20
109.8589158333333
 30
0.0
 10
552.7983327777779
 20
108.919468611111
 30
0.0
  0
SPLINE
  5
10000113
102
{ACAD_XDICTIONARY
360
10000114
102
}
330
1F
100
AcDbEntity
  8
VISIBLE
100
AcDbSpline
210
0.0
220
0.0
230
1.0
 70
     8
 71
     3
 72
    11
 73
     7
 74
     0
 42
0.000000001
 43
0.00000001
 40
0.0
 40
0.0
 40
0.0
 40
0.0
 40
0.1568221887597556
 40
0.3308040569745271
 40
0.5994841552432572
 40
1.0
 40
1.0
 40
1.0
 40
1.0
 10
558.6223411111109
 20
111.8648102777778
 30
0.0
 10
558.6121486325668
 20
111.8678282947596
 30
0.0
 10
558.590648401766
 20
111.8741945639049
 30
0.0
 10
558.5484051357944
 20
111.8694687981762
 30
0.0
 10
558.4564104614259
 20
111.835936117964
 30
0.0
 10
558.347466582392
 20
111.7745500372378
 30
0.0
 10
558.2822633333329
 20
111.7378102777778
 30
0.0
  0
SPLINE
  5
10000116
102
{ACAD_XDICTIONARY
360
10000117
102
}
330
1F
100
AcDbEntity
  8
VISIBLE
100
AcDbSpline
210
0.0
220
0.0
230
1.0
 70
     8
 71
     3
 72
    10
 73
     6
 74
     0
 42
0.000000001
 43
0.00000001
 40
0.0
 40
0.0
 40
0.0
 40
0.0
 40
0.4410002289119251
 40
0.8067688345113816
 40
1.0
 40
1.0
 40
1.0
 40
1.0
 10
588.4489966666671
 20
121.2374102777778
 30
0.0
 10
588.5946108678876
 20
121.273216148224
 30
0.0
 10
588.8609984833699
 20
121.3387196524735
 30
0.0
 10
589.1417340135108
 20
121.4980361372536
 30
0.0
 10
589.181407582414
 20
121.5570786493118
 30
0.0
 10
589.1951216666672
 20
121.5774880555556
 30
0.0
  0
SPLINE
  5
10000119
102
{ACAD_XDICTIONARY
360
1000011A
102
}
330
1F
100
AcDbEntity
  8
VISIBLE
100
AcDbSpline
210
0.0
220
0.0
230
1.0
 70
    24
 71
     3
 72
     8
 73
     4
 74
     0
 42
0.000000001
 43
0.00000001
 40
0.0
 40
0.0
 40
0.0
 40
0.0
 40
1.0
 40
1.0
 40
1.0
 40
1.0
 10
87.2950022222222
 20
100.3356797222222
 30
0.0
 10
86.8710809259259
 20
100.4615037962963
 30
0.0
 10
86.4471596296296
 20
100.5873278703703
 30
0.0
 10
86.0232383333333
 20
100.7131519444444
 30
0.0
  0
SPLINE
  5
1000011C
102
{ACAD_XDICTIONARY
360
1000011D
102
}
330
1F
100
AcDbEntity
  8
VISIBLE
100
AcDbSpline
210
0.0
220
0.0
230
1.0
 70
    24
 71
     3
 72
     8
 73
     4
 74
     0
 42
0.000000001
 43
0.00000001
 40
0.0
 40
0.0
 40
0.0
 40
0.0
 40
1.0
 40
1.0
 40
1.0
 40
1.0
 10
598.14333
 20
122.718371388889
 30
0.0
 10
596.2193975925926
 20
122.7284843518519
 30
0.0
 10
594.2954651851853
 20
122.7385973148149
 30
0.0
 10
592.371532777778
 20
122.7487102777778
 30
0.0
  0
SPLINE
  5
1000011F
102
{ACAD_XDICTIONARY
360
10000120
102
}
330
1F
100
AcDbEntity
  8
VISIBLE
100
AcDbSpline
210
0.0
220
0.0
230
1.0
 70
     8
 71
     3
 72
     9
 73
     5
 74
     0
 42
0.000000001
 43
0.00000001
 40
0.0
 40
0.0
 40
0.0
 40
0.0
 40
0.5051272801927872
 40
1.0
 40
1.0
 40
1.0
 40
1.0
 10
570.716268888889
 20
115.7083241666666
 30
0.0
 10
570.120306143844
 20
115.1916780287506
 30
0.0
 10
568.9404792597815
 20
114.1688741569842
 30
0.0
 10
567.4940225310071
 20
113.7190253851965
 30
0.0
 10
566.778210555555
 20
113.4964075
 30
0.0
  0
SPLINE
  5
10000122
102
{ACAD_XDICTIONARY
360
10000123
102
}
330
1F
100
AcDbEntity
  8
VISIBLE
100
AcDbSpline
210
0.0
220
0.0
230
1.0
 70
    24
 71
     3
 72
     8
 73
     4
 74
     0
 42
0.000000001
 43
0.00000001
 40
0.0
 40
0.0
 40
0.0
 40
0.0
 40
1.0
 40
1.0
 40
1.0
 40
1.0
 10
526.2062966666671
 20
106.0764325
 30
0.0
 10
523.8418624074077
 20
105.489645462963
 30
0.0
 10
521.4774281481483
 20
104.902858425926
 30
0.0
 10
519.112993888889
 20
104.316071388889
 30
0.0
  0
SPLINE
  5
10000125
102
{ACAD_XDICTIONARY
360
10000126
102
}
330
1F
100
AcDbEntity
  8
VISIBLE
100
AcDbSpline
210
0.0
220
0.0
230
1.0
 70
     8
 71
     3
 72
    10
 73
     6
 74
     0
 42
0.000000001
 43
0.00000001
 40
0.0
 40
0.0
 40
0.0
 40
0.0
 40
0.412943834202909
 40
0.7044453002989918
 40
1.0
 40
1.0
 40
1.0
 40
1.0
 10
511.043907777778
 20
106.0690241666666
 30
0.0
 10
509.8030901000806
 20
105.9417435473966
 30
0.0
 10
507.686365961872
 20
105.7246141786123
 30
0.0
 10
505.9335518960625
 20
105.6470303602449
 30
0.0
 10
504.7920144850143
 20
106.0302535231646
 30
0.0
 10
504.217305
 20
106.2231880555554
 30
0.0
  0
SPLINE
  5
10000128
102
{ACAD_XDICTIONARY
360
10000129
102
}
330
1F
100
AcDbEntity
  8
VISIBLE
100
AcDbSpline
210
0.0
220
0.0
230
1.0
 70
    24
 71
     3
 72
     8
 73
     4
 74
     0
 42
0.000000001
 43
0.00000001
 40
0.0
 40
0.0
 40
0.0
 40
0.0
 40
1.0
 40
1.0
 40
1.0
 40
1.0
 10
-0.50009777777793
 20
61.9304836615003
 30
0.0
 10
202.4998772222221
 20
61.9304836615003
 30
0.0
 10
405.4998522222221
 20
61.9304836615003
 30
0.0
 10
608.499827222222
 20
61.9304836615003
 30
0.0
  0
SPLINE
  5
1000012B
102
{ACAD_XDICTIONARY
360
1000012C
102
}
330
1F
100
AcDbEntity
  8
VISIBLE
100
AcDbSpline
210
0.0
220
0.0
230
1.0
 70
     8
 71
     3
 72
    10
 73
     6
 74
     0
 42
0.000000001
 43
0.00000001
 40
0.0
 40
0.0
 40
0.0
 40
0.0
 40
0.4126998374607149
 40
0.6988348915940498
 40
1.0
 40
1.0
 40
1.0
 40
1.0
 10
280.9777633333335
 20
110.164421388889
 30
0.0
 10
280.031535491192
 20
110.3703627267577
 30
0.0
 10
278.4292643695098
 20
110.7190883124273
 30
0.0
 10
277.1010955069978
 20
110.521598103122
 30
0.0
 10
276.3079915559902
 20
109.9916675813897
 30
0.0
 10
275.901291111111
 20
109.719921388889
 30
0.0
  0
SPLINE
  5
1000012E
102
{ACAD_XDICTIONARY
360
1000012F
102
}
330
1F
100
AcDbEntity
  8
VISIBLE
100
AcDbSpline
210
0.0
220
0.0
230
1.0
 70
    24
 71
     3
 72
     8
 73
     4
 74
     0
 42
0.000000001
 43
0.00000001
 40
0.0
 40
0.0
 40
0.0
 40
0.0
 40
1.0
 40
1.0
 40
1.0
 40
1.0
 10
581.364866111111
 20
122.0858408333332
 30
0.0
 10
579.7393837037037
 20
121.6221732407407
 30
0.0
 10
578.1139012962964
 20
121.1585056481482
 30
0.0
 10
576.4884188888889
 20
120.6948380555556
 30
0.0
  0
SPLINE
  5
10000131
102
{ACAD_XDICTIONARY
360
10000132
102
}
330
1F
100
AcDbEntity
  8
VISIBLE
100
AcDbSpline
210
0.0
220
0.0
230
1.0
 70
    24
 71
     3
 72
     8
 73
     4
 74
     0
 42
0.000000001
 43
0.00000001
 40
0.0
 40
0.0
 40
0.0
 40
0.0
 40
1.0
 40
1.0
 40
1.0
 40
1.0
 10
607.718424444445
 20
124.8879547222222
 30
0.0
 10
606.4718253703707
 20
124.9312287962963
 30
0.0
 10
605.2252262962963
 20
124.9745028703703
 30
0.0
 10
603.978627222222
 20
125.0177769444444
 30
0.0
  0
SPLINE
  5
10000134
102
{ACAD_XDICTIONARY
360
10000135
102
}
330
1F
100
AcDbEntity
  8
VISIBLE
100
AcDbSpline
210
0.0
220
0.0
230
1.0
 70
     8
 71
     3
 72
    10
 73
     6
 74
     0
 42
0.000000001
 43
0.00000001
 40
0.0
 40
0.0
 40
0.0
 40
0.0
 40
0.4086866395018445
 40
0.6981190336459832
 40
1.0
 40
1.0
 40
1.0
 40
1.0
 10
299.5687994444445
 20
120.1437991666666
 30
0.0
 10
298.5308699690442
 20
119.9853658483261
 30
0.0
 10
296.7578775285713
 20
119.7147298538831
 30
0.0
 10
295.373840290197
 20
119.1444934926279
 30
0.0
 10
294.595716115736
 20
118.4145860459696
 30
0.0
 10
294.1984633333336
 20
118.0419491666666
 30
0.0
  0
SPLINE
  5
10000137
102
{ACAD_XDICTIONARY
360
10000138
102
}
330
1F
100
AcDbEntity
  8
VISIBLE
100
AcDbSpline
210
0.0
220
0.0
230
1.0
 70
     8
 71
     3
 72
    10
 73
     6
 74
     0
 42
0.000000001
 43
0.00000001
 40
0.0
 40
0.0
 40
0.0
 40
0.0
 40
0.4493172736296444
 40
0.7316508203720822
 40
1.0
 40
1.0
 40
1.0
 40
1.0
 10
583.4663633333331
 20
121.3989825
 30
0.0
 10
583.2176986521462
 20
121.4927932584444
 30
0.0
 10
582.8127827304448
 20
121.645551058787
 30
0.0
 10
582.574508632069
 20
121.8150086855924
 30
0.0
 10
582.4556967805363
 20
121.946108377313
 30
0.0
 10
582.397799444444
 20
122.009993611111
 30
0.0
  0
SPLINE
  5
1000013A
102
{ACAD_XDICTIONARY
360
1000013B
102
}
330
1F
100
AcDbEntity
  8
VISIBLE
100
AcDbSpline
210
0.0
220
0.0
230
1.0
 70
     8
 71
     3
 72
    11
 73
     7
 74
     0
 42
0.000000001
 43
0.00000001
 40
0.0
 40
0.0
 40
0.0
 40
0.0
 40
0.3620913517685437
 40
0.6164120428945047
 40
0.8018505011225442
 40
1.0
 40
1.0
 40
1.0
 40
1.0
 10
539.161002222222
 20
104.0606602777778
 30
0.0
 10
538.7690392227065
 20
103.6894171013402
 30
0.0
 10
538.101774699292
 20
103.0574253023623
 30
0.0
 10
537.396994268613
 20
102.7089681578022
 30
0.0
 10
536.9818390735485
 20
102.6596367787572
 30
0.0
 10
536.6857553408446
 20
102.7104412714599
 30
0.0
 10
536.5328077777779
 20
102.7366852777778
 30
0.0
  0
SPLINE
  5
1000013D
102
{ACAD_XDICTIONARY
360
1000013E
102
}
330
1F
100
AcDbEntity
  8
VISIBLE
100
AcDbSpline
210
0.0
220
0.0
230
1.0
 70
     8
 71
     3
 72
    10
 73
     6
 74
     0
 42
0.000000001
 43
0.00000001
 40
0.0
 40
0.0
 40
0.0
 40
0.0
 40
0.4118004836742519
 40
0.7009450994356387
 40
1.0
 40
1.0
 40
1.0
 40
1.0
 10
372.2318494444445
 20
108.1359491666666
 30
0.0
 10
371.7189400975631
 20
108.4845528309344
 30
0.0
 10
370.8458928151911
 20
109.0779276320848
 30
0.0
 10
369.9973521227958
 20
109.2436693384045
 30
0.0
 10
369.396069833163
 20
109.2539610535242
 30
0.0
 10
369.0903633333335
 20
109.259193611111
 30
0.0
  0
SPLINE
  5
10000140
102
{ACAD_XDICTIONARY
360
10000141
102
}
330
1F
100
AcDbEntity
  8
VISIBLE
100
AcDbSpline
210
0.0
220
0.0
230
1.0
 70
    24
 71
     3
 72
     8
 73
     4
 74
     0
 42
0.000000001
 43
0.00000001
 40
0.0
 40
0.0
 40
0.0
 40
0.0
 40
1.0
 40
1.0
 40
1.0
 40
1.0
 10
-0.500097777777796
 20
99.9843130555556
 30
0.0
 10
-0.500097777777796
 20
87.29970325753717
 30
0.0
 10
-0.500097777777796
 20
74.61509345951873
 30
0.0
 10
-0.500097777777796
 20
61.9304836615003
 30
0.0
  0
SPLINE
  5
10000143
102
{ACAD_XDICTIONARY
360
10000144
102
}
330
1F
100
AcDbEntity
  8
VISIBLE
100
AcDbSpline
210
0.0
220
0.0
230
1.0
 70
    24
 71
     3
 72
     8
 73
     4
 74
     0
 42
0.000000001
 43
0.00000001
 40
0.0
 40
0.0
 40
0.0
 40
0.0
 40
1.0
 40
1.0
 40
1.0
 40
1.0
 10
576.4884188888889
 20
120.6948380555556
 30
0.0
 10
574.5643688888889
 20
119.0326667592593
 30
0.0
 10
572.6403188888889
 20
117.3704954629629
 30
0.0
 10
570.716268888889
 20
115.7083241666666
 30
0.0
  0
SPLINE
  5
10000146
102
{ACAD_XDICTIONARY
360
10000147
102
}
330
1F
100
AcDbEntity
  8
VISIBLE
100
AcDbSpline
210
0.0
220
0.0
230
1.0
 70
     8
 71
     3
 72
     9
 73
     5
 74
     0
 42
0.000000001
 43
0.00000001
 40
0.0
 40
0.0
 40
0.0
 40
0.0
 40
0.5065168396000375
 40
1.0
 40
1.0
 40
1.0
 40
1.0
 10
290.4015161111111
 20
115.7485408333334
 30
0.0
 10
290.4849001012807
 20
115.8130550686929
 30
0.0
 10
290.6495224467797
 20
115.9404234606507
 30
0.0
 10
290.8382529889294
 20
116.007290364512
 30
0.0
 10
290.9313883333335
 20
116.0402880555556
 30
0.0
  0
SPLINE
  5
10000149
102
{ACAD_XDICTIONARY
360
1000014A
102
}
330
1F
100
AcDbEntity
  8
VISIBLE
100
AcDbSpline
210
0.0
220
0.0
230
1.0
 70
     8
 71
     3
 72
    11
 73
     7
 74
     0
 42
0.000000001
 43
0.00000001
 40
0.0
 40
0.0
 40
0.0
 40
0.0
 40
0.2540174828944591
 40
0.4992442803854341
 40
0.7426906065904887
 40
1.0
 40
1.0
 40
1.0
 40
1.0
 10
386.3443716666665
 20
108.7106241666666
 30
0.0
 10
385.9655901921432
 20
108.813478360728
 30
0.0
 10
385.2211355880076
 20
109.015627313287
 30
0.0
 10
384.1205857897687
 20
109.0418049294339
 30
0.0
 10
383.0512429344246
 20
108.7540938654041
 30
0.0
 10
382.4548728576334
 20
108.2278499260434
 30
0.0
 10
382.148432777778
 20
107.957443611111
 30
0.0
  0
SPLINE
  5
1000014C
102
{ACAD_XDICTIONARY
360
1000014D
102
}
330
1F
100
AcDbEntity
  8
VISIBLE
100
AcDbSpline
210
0.0
220
0.0
230
1.0
 70
     8
 71
     3
 72
     9
 73
     5
 74
     0
 42
0.000000001
 43
0.00000001
 40
0.0
 40
0.0
 40
0.0
 40
0.0
 40
0.4978133509289193
 40
1.0
 40
1.0
 40
1.0
 40
1.0
 10
588.4489966666672
 20
121.2374102777778
 30
0.0
 10
587.6216382958347
 20
121.0714824207656
 30
0.0
 10
585.9596531978286
 20
120.7381690278996
 30
0.0
 10
584.2998795165503
 20
121.17807006983
 30
0.0
 10
583.466363333333
 20
121.3989825
 30
0.0
  0
SPLINE
  5
1000014F
102
{ACAD_XDICTIONARY
360
10000150
102
}
330
1F
100
AcDbEntity
  8
VISIBLE
100
AcDbSpline
210
0.0
220
0.0
230
1.0
 70
     8
 71
     3
 72
    12
 73
     8
 74
     0
 42
0.000000001
 43
0.00000001
 40
0.0
 40
0.0
 40
0.0
 40
0.0
 40
0.3304444434145641
 40
0.5926798464608483
 40
0.7703639305007479
 40
0.8870412415881948
 40
1.0
 40
1.0
 40
1.0
 40
1.0
 10
581.364866111111
 20
122.0858408333332
 30
0.0
 10
581.5355440751774
 20
122.1181578938248
 30
0.0
 10
581.8416693302786
 20
122.1761212544803
 30
0.0
 10
582.1607489786937
 20
122.1521550940951
 30
0.0
 10
582.3042170680109
 20
122.0924970129884
 30
0.0
 10
582.3581091252629
 20
122.0548004339606
 30
0.0
 10
582.3847129387223
 20
122.0247671064038
 30
0.0
 10
582.397799444444
 20
122.009993611111
 30
0.0
  0
SPLINE
  5
10000152
102
{ACAD_XDICTIONARY
360
10000153
102
}
330
1F
100
AcDbEntity
  8
VISIBLE
100
AcDbSpline
210
0.0
220
0.0
230
1.0
 70
    24
 71
     3
 72
     8
 73
     4
 74
     0
 42
0.000000001
 43
0.00000001
 40
0.0
 40
0.0
 40
0.0
 40
0.0
 40
1.0
 40
1.0
 40
1.0
 40
1.0
 10
516.657660555556
 20
104.5397325
 30
0.0
 10
514.78640962963
 20
105.0494963888889
 30
0.0
 10
512.9151587037039
 20
105.5592602777777
 30
0.0
 10
511.043907777778
 20
106.0690241666666
 30
0.0
  0
SPLINE
  5
10000155
102
{ACAD_XDICTIONARY
360
10000156
102
}
330
1F
100
AcDbEntity
  8
VISIBLE
100
AcDbSpline
210
0.0
220
0.0
230
1.0
 70
    24
 71
     3
 72
     8
 73
     4
 74
     0
 42
0.000000001
 43
0.00000001
 40
0.0
 40
0.0
 40
0.0
 40
0.0
 40
1.0
 40
1.0
 40
1.0
 40
1.0
 10
481.589432777778
 20
109.2666019444442
 30
0.0
 10
481.5763799999999
 20
109.2577824999998
 30
0.0
 10
481.563327222222
 20
109.2489630555555
 30
0.0
 10
481.550274444444
 20
109.2401436111112
 30
0.0
  0
SPLINE
  5
10000158
102
{ACAD_XDICTIONARY
360
10000159
102
}
330
1F
100
AcDbEntity
  8
VISIBLE
100
AcDbSpline
210
0.0
220
0.0
230
1.0
 70
     8
 71
     3
 72
     9
 73
     5
 74
     0
 42
0.000000001
 43
0.00000001
 40
0.0
 40
0.0
 40
0.0
 40
0.0
 40
0.5006864546740541
 40
1.0
 40
1.0
 40
1.0
 40
1.0
 10
601.01988
 20
123.5773852777778
 30
0.0
 10
600.5744178891243
 20
123.314282537088
 30
0.0
 10
599.6847151485827
 20
122.7887984976584
 30
0.0
 10
598.6566545715352
 20
122.7418255952999
 30
0.0
 10
598.1433300000001
 20
122.718371388889
 30
0.0
  0
SPLINE
  5
1000015B
102
{ACAD_XDICTIONARY
360
1000015C
102
}
330
1F
100
AcDbEntity
  8
VISIBLE
100
AcDbSpline
210
0.0
220
0.0
230
1.0
 70
     8
 71
     3
 72
    10
 73
     6
 74
     0
 42
0.000000001
 43
0.00000001
 40
0.0
 40
0.0
 40
0.0
 40
0.0
 40
0.413542073817118
 40
0.7062157481949082
 40
1.0
 40
1.0
 40
1.0
 40
1.0
 10
420.8605022222221
 20
108.1472380555556
 30
0.0
 10
419.6311608668578
 20
108.2358860978147
 30
0.0
 10
417.5317850595743
 20
108.3872724922198
 30
0.0
 10
415.8317557119371
 20
108.0051023780224
 30
0.0
 10
414.7749630620329
 20
107.5211390647919
 30
0.0
 10
414.245566111111
 20
107.2786991666666
 30
0.0
  0
SPLINE
  5
1000015E
102
{ACAD_XDICTIONARY
360
1000015F
102
}
330
1F
100
AcDbEntity
  8
VISIBLE
100
AcDbSpline
210
0.0
220
0.0
230
1.0
 70
    24
 71
     3
 72
     8
 73
     4
 74
     0
 42
0.000000001
 43
0.00000001
 40
0.0
 40
0.0
 40
0.0
 40
0.0
 40
1.0
 40
1.0
 40
1.0
 40
1.0
 10
608.499827222222
 20
124.9842630555554
 30
0.0
 10
608.2393596296297
 20
124.9521602777777
 30
0.0
 10
607.9788920370373
 20
124.9200574999999
 30
0.0
 10
607.718424444445
 20
124.8879547222222
 30
0.0
  0
SPLINE
  5
10000161
102
{ACAD_XDICTIONARY
360
10000162
102
}
330
1F
100
AcDbEntity
  8
VISIBLE
100
AcDbSpline
210
0.0
220
0.0
230
1.0
 70
     8
 71
     3
 72
     9
 73
     5
 74
     0
 42
0.000000001
 43
0.00000001
 40
0.0
 40
0.0
 40
0.0
 40
0.0
 40
0.496244078934332
 40
1.0
 40
1.0
 40
1.0
 40
1.0
 10
603.978627222222
 20
125.0177769444444
 30
0.0
 10
603.458470235994
 20
124.8569886147736
 30
0.0
 10
602.410282442308
 20
124.532978039139
 30
0.0
 10
601.4856626799979
 20
123.8975073833134
 30
0.0
 10
601.01988
 20
123.5773852777778
 30
0.0
  0
SPLINE
  5
10000164
102
{ACAD_XDICTIONARY
360
10000165
102
}
330
1F
100
AcDbEntity
  8
VISIBLE
100
AcDbSpline
210
0.0
220
0.0
230
1.0
 70
     8
 71
     3
 72
    10
 73
     6
 74
     0
 42
0.000000001
 43
0.00000001
 40
0.0
 40
0.0
 40
0.0
 40
0.0
 40
0.2970071115103705
 40
0.5869639749368544
 40
1.0
 40
1.0
 40
1.0
 40
1.0
 10
548.126849444444
 20
107.5076519444444
 30
0.0
 10
547.2617928742955
 20
107.478160133862
 30
0.0
 10
545.5522141360035
 20
107.419876578699
 30
0.0
 10
543.1962428046706
 20
106.6659234501865
 30
0.0
 10
540.6544220701383
 20
105.0248535275293
 30
0.0
 10
539.1610022222221
 20
104.0606602777778
 30
0.0
  0
SPLINE
  5
10000167
102
{ACAD_XDICTIONARY
360
10000168
102
}
330
1F
100
AcDbEntity
  8
VISIBLE
100
AcDbSpline
210
0.0
220
0.0
230
1.0
 70
     8
 71
     3
 72
    11
 73
     7
 74
     0
 42
0.000000001
 43
0.00000001
 40
0.0
 40
0.0
 40
0.0
 40
0.0
 40
0.3883090839358869
 40
0.653936763925823
 40
0.833272382272707
 40
1.0
 40
1.0
 40
1.0
 40
1.0
 10
447.8490605555556
 20
107.9489769444444
 30
0.0
 10
448.0663305445476
 20
107.9399452519721
 30
0.0
 10
448.4322267838511
 20
107.9247353174315
 30
0.0
 10
448.7231383337592
 20
107.9798453006209
 30
0.0
 10
448.8506756593751
 20
108.0302004011237
 30
0.0
 10
448.9113318416028
 20
108.0782347697781
 30
0.0
 10
448.940555
 20
108.1013769444444
 30
0.0
  0
SPLINE
  5
1000016A
102
{ACAD_XDICTIONARY
360
1000016B
102
}
330
1F
100
AcDbEntity
  8
VISIBLE
100
AcDbSpline
210
0.0
220
0.0
230
1.0
 70
    24
 71
     3
 72
     8
 73
     4
 74
     0
 42
0.000000001
 43
0.00000001
 40
0.0
 40
0.0
 40
0.0
 40
0.0
 40
1.0
 40
1.0
 40
1.0
 40
1.0
 10
117.6585855555554
 20
99.6833936111111
 30
0.0
 10
114.6705577777776
 20
98.65434083333331
 30
0.0
 10
111.6825299999999
 20
97.62528805555556
 30
0.0
 10
108.6945022222222
 20
96.59623527777781
 30
0.0
  0
SPLINE
  5
1000016D
102
{ACAD_XDICTIONARY
360
1000016E
102
}
330
1F
100
AcDbEntity
  8
VISIBLE
100
AcDbSpline
210
0.0
220
0.0
230
1.0
 70
     8
 71
     3
 72
    11
 73
     7
 74
     0
 42
0.000000001
 43
0.00000001
 40
0.0
 40
0.0
 40
0.0
 40
0.0
 40
0.254427311877656
 40
0.49914061445998
 40
0.7429311521006047
 40
1.0
 40
1.0
 40
1.0
 40
1.0
 10
382.148432777778
 20
107.957443611111
 30
0.0
 10
381.8014363757442
 20
107.6241545595539
 30
0.0
 10
381.1206918595663
 20
106.9703013990606
 30
0.0
 10
379.9256231238514
 20
106.360041292135
 30
0.0
 10
378.5982901835669
 20
106.1206052153668
 30
0.0
 10
377.6616861075534
 20
106.3574103832145
 30
0.0
 10
377.180968888889
 20
106.4789519444444
 30
0.0
  0
SPLINE
  5
10000170
102
{ACAD_XDICTIONARY
360
10000171
102
}
330
1F
100
AcDbEntity
  8
VISIBLE
100
AcDbSpline
210
0.0
220
0.0
230
1.0
 70
    24
 71
     3
 72
     8
 73
     4
 74
     0
 42
0.000000001
 43
0.00000001
 40
0.0
 40
0.0
 40
0.0
 40
0.0
 40
1.0
 40
1.0
 40
1.0
 40
1.0
 10
335.796255
 20
112.4426602777778
 30
0.0
 10
331.6538207407406
 20
111.9276047222222
 30
0.0
 10
327.5113864814813
 20
111.4125491666666
 30
0.0
 10
323.368952222222
 20
110.897493611111
 30
0.0
  0
SPLINE
  5
10000173
102
{ACAD_XDICTIONARY
360
10000174
102
}
330
1F
100
AcDbEntity
  8
VISIBLE
100
AcDbSpline
210
0.0
220
0.0
230
1.0
 70
     8
 71
     3
 72
    10
 73
     6
 74
     0
 42
0.000000001
 43
0.00000001
 40
0.0
 40
0.0
 40
0.0
 40
0.0
 40
0.412334796720523
 40
0.6972222715782169
 40
1.0
 40
1.0
 40
1.0
 40
1.0
 10
592.371532777778
 20
122.7487102777778
 30
0.0
 10
591.7220383274197
 20
122.7380240969656
 30
0.0
 10
590.6237997124448
 20
122.7199546948204
 30
0.0
 10
589.8159341252514
 20
122.3276661279647
 30
0.0
 10
589.406216818635
 20
121.8325714579719
 30
0.0
 10
589.1951216666672
 20
121.5774880555556
 30
0.0
  0
SPLINE
  5
10000176
102
{ACAD_XDICTIONARY
360
10000177
102
}
330
1F
100
AcDbEntity
  8
VISIBLE
100
AcDbSpline
210
0.0
220
0.0
230
1.0
 70
     8
 71
     3
 72
    10
 73
     6
 74
     0
 42
0.000000001
 43
0.00000001
 40
0.0
 40
0.0
 40
0.0
 40
0.0
 40
0.4489905825200946
 40
0.7295919064323296
 40
1.0
 40
1.0
 40
1.0
 40
1.0
 10
78.6191383333333
 20
101.6607130555556
 30
0.0
 10
78.33161752193445
 20
101.7054915849697
 30
0.0
 10
77.86440759572614
 20
101.7782549210271
 30
0.0
 10
77.59548659415917
 20
101.9550145041644
 30
0.0
 10
77.46691530220315
 20
102.1014405336957
 30
0.0
 10
77.40381888888889
 20
102.1732991666666
 30
0.0
  0
SPLINE
  5
10000179
102
{ACAD_XDICTIONARY
360
1000017A
102
}
330
1F
100
AcDbEntity
  8
VISIBLE
100
AcDbSpline
210
0.0
220
0.0
230
1.0
 70
    24
 71
     3
 72
     8
 73
     4
 74
     0
 42
0.000000001
 43
0.00000001
 40
0.0
 40
0.0
 40
0.0
 40
0.0
 40
1.0
 40
1.0
 40
1.0
 40
1.0
 10
203.263641111111
 20
108.2918769444444
 30
0.0
 10
204.1001948148147
 20
108.1076093518518
 30
0.0
 10
204.9367485185183
 20
107.9233417592592
 30
0.0
 10
205.773302222222
 20
107.7390741666666
 30
0.0
  0
SPLINE
  5
1000017C
102
{ACAD_XDICTIONARY
360
1000017D
102
}
330
1F
100
AcDbEntity
  8
VISIBLE
100
AcDbSpline
210
0.0
220
0.0
230
1.0
 70
     8
 71
     3
 72
    10
 73
     6
 74
     0
 42
0.000000001
 43
0.00000001
 40
0.0
 40
0.0
 40
0.0
 40
0.0
 40
0.4112558367703367
 40
0.7016486801729863
 40
1.0
 40
1.0
 40
1.0
 40
1.0
 10
346.7478883333335
 20
111.3571630555554
 30
0.0
 10
345.9690342870196
 20
111.2143263242098
 30
0.0
 10
344.6402217455726
 20
110.9706308065586
 30
0.0
 10
343.531847484622
 20
111.0348151977176
 30
0.0
 10
342.7892651671776
 20
111.2569443581188
 30
0.0
 10
342.4129550000001
 20
111.3695102777778
 30
0.0
  0
SPLINE
  5
1000017F
102
{ACAD_XDICTIONARY
360
10000180
102
}
330
1F
100
AcDbEntity
  8
VISIBLE
100
AcDbSpline
210
0.0
220
0.0
230
1.0
 70
    24
 71
     3
 72
     8
 73
     4
 74
     0
 42
0.000000001
 43
0.00000001
 40
0.0
 40
0.0
 40
0.0
 40
0.0
 40
1.0
 40
1.0
 40
1.0
 40
1.0
 10
2.67031611111105
 20
99.2392463888889
 30
0.0
 10
1.613511481481435
 20
99.48760194444446
 30
0.0
 10
0.5567068518518192
 20
99.73595750000003
 30
0.0
 10
-0.500097777777796
 20
99.9843130555556
 30
0.0
  0
SPLINE
  5
10000182
102
{ACAD_XDICTIONARY
360
10000183
102
}
330
1F
100
AcDbEntity
  8
VISIBLE
100
AcDbSpline
210
0.0
220
0.0
230
1.0
 70
     8
 71
     3
 72
    11
 73
     7
 74
     0
 42
0.000000001
 43
0.00000001
 40
0.0
 40
0.0
 40
0.0
 40
0.0
 40
0.3655267233901015
 40
0.622190204466131
 40
0.8065322791760657
 40
1.0
 40
1.0
 40
1.0
 40
1.0
 10
564.1807077777779
 20
112.8307158333332
 30
0.0
 10
563.2246362008151
 20
112.460351164681
 30
0.0
 10
561.5972357075277
 20
111.8299259339932
 30
0.0
 10
560.1524732870859
 20
111.5046925471579
 30
0.0
 10
559.3824579317101
 20
111.5748480273401
 30
0.0
 10
558.8797607795392
 20
111.7666122319754
 30
0.0
 10
558.6223411111109
 20
111.8648102777778
 30
0.0
  0
SPLINE
  5
10000185
102
{ACAD_XDICTIONARY
360
10000186
102
}
330
1F
100
AcDbEntity
  8
VISIBLE
100
AcDbSpline
210
0.0
220
0.0
230
1.0
 70
    24
 71
     3
 72
     8
 73
     4
 74
     0
 42
0.000000001
 43
0.00000001
 40
0.0
 40
0.0
 40
0.0
 40
0.0
 40
1.0
 40
1.0
 40
1.0
 40
1.0
 10
480.370585555556
 20
109.2397908333332
 30
0.0
 10
479.7198281481483
 20
109.5742241666665
 30
0.0
 10
479.0690707407406
 20
109.9086574999999
 30
0.0
 10
478.4183133333329
 20
110.2430908333332
 30
0.0
  0
SPLINE
  5
10000188
102
{ACAD_XDICTIONARY
360
10000189
102
}
330
1F
100
AcDbEntity
  8
VISIBLE
100
AcDbSpline
210
0.0
220
0.0
230
1.0
 70
     8
 71
     3
 72
     9
 73
     5
 74
     0
 42
0.000000001
 43
0.00000001
 40
0.0
 40
0.0
 40
0.0
 40
0.0
 40
0.504866801931903
 40
1.0
 40
1.0
 40
1.0
 40
1.0
 10
376.8084355555555
 20
106.4817741666666
 30
0.0
 10
376.8721471288478
 20
106.4920919734039
 30
0.0
 10
376.9983419450814
 20
106.5125286642259
 30
0.0
 10
377.1204895530964
 20
106.4900713207431
 30
0.0
 10
377.180968888889
 20
106.4789519444444
 30
0.0
  0
SPLINE
  5
1000018B
102
{ACAD_XDICTIONARY
360
1000018C
102
}
330
1F
100
AcDbEntity
  8
VISIBLE
100
AcDbSpline
210
0.0
220
0.0
230
1.0
 70
    24
 71
     3
 72
     8
 73
     4
 74
     0
 42
0.000000001
 43
0.00000001
 40
0.0
 40
0.0
 40
0.0
 40
0.0
 40
1.0
 40
1.0
 40
1.0
 40
1.0
 10
478.4183133333329
 20
110.2430908333332
 30
0.0
 10
476.4153587037032
 20
111.1509056481481
 30
0.0
 10
474.4124040740736
 20
112.0587204629629
 30
0.0
 10
472.409449444444
 20
112.9665352777778
 30
0.0
  0
SPLINE
  5
1000018E
102
{ACAD_XDICTIONARY
360
1000018F
102
}
330
1F
100
AcDbEntity
  8
VISIBLE
100
AcDbSpline
210
0.0
220
0.0
230
1.0
 70
    24
 71
     3
 72
     8
 73
     4
 74
     0
 42
0.000000001
 43
0.00000001
 40
0.0
 40
0.0
 40
0.0
 40
0.0
 40
1.0
 40
1.0
 40
1.0
 40
1.0
 10
76.5119966666666
 20
101.8409825
 30
0.0
 10
75.9706003703703
 20
101.6481306481481
 30
0.0
 10
75.429204074074
 20
101.4552787962963
 30
0.0
 10
74.88780777777771
 20
101.2624269444444
 30
0.0
  0
SPLINE
  5
10000191
102
{ACAD_XDICTIONARY
360
10000192
102
}
330
1F
100
AcDbEntity
  8
VISIBLE
100
AcDbSpline
210
0.0
220
0.0
230
1.0
 70
     8
 71
     3
 72
    12
 73
     8
 74
     0
 42
0.000000001
 43
0.00000001
 40
0.0
 40
0.0
 40
0.0
 40
0.0
 40
0.1566479201497581
 40
0.4491646049161537
 40
0.6887043206585688
 40
0.8481966963636529
 40
1.0
 40
1.0
 40
1.0
 40
1.0
 10
302.816118888889
 20
119.0314908333332
 30
0.0
 10
302.7053364661723
 20
119.032426402371
 30
0.0
 10
302.387684351266
 20
119.0351090073927
 30
0.0
 10
301.1598106785341
 20
119.6468478890557
 30
0.0
 10
300.3715809407929
 20
120.039697764128
 30
0.0
 10
299.949710142901
 20
120.1596245646479
 30
0.0
 10
299.6936615247806
 20
120.1489867135696
 30
0.0
 10
299.5687994444445
 20
120.1437991666666
 30
0.0
  0
SPLINE
  5
10000194
102
{ACAD_XDICTIONARY
360
10000195
102
}
330
1F
100
AcDbEntity
  8
VISIBLE
100
AcDbSpline
210
0.0
220
0.0
230
1.0
 70
     8
 71
     3
 72
     9
 73
     5
 74
     0
 42
0.000000001
 43
0.00000001
 40
0.0
 40
0.0
 40
0.0
 40
0.0
 40
0.4988390263588752
 40
1.0
 40
1.0
 40
1.0
 40
1.0
 10
519.112993888889
 20
104.316071388889
 30
0.0
 10
518.6987417577809
 20
104.2712990245457
 30
0.0
 10
517.8683092751182
 20
104.1815458938212
 30
0.0
 10
517.0618343261821
 20
104.4201522874513
 30
0.0
 10
516.657660555556
 20
104.5397325
 30
0.0
  0
SPLINE
  5
10000197
102
{ACAD_XDICTIONARY
360
10000198
102
}
330
1F
100
AcDbEntity
  8
VISIBLE
100
AcDbSpline
210
0.0
220
0.0
230
1.0
 70
    24
 71
     3
 72
     8
 73
     4
 74
     0
 42
0.000000001
 43
0.00000001
 40
0.0
 40
0.0
 40
0.0
 40
0.0
 40
1.0
 40
1.0
 40
1.0
 40
1.0
 10
472.409449444444
 20
112.9665352777778
 30
0.0
 10
469.9830438888886
 20
113.9623093518519
 30
0.0
 10
467.5566383333334
 20
114.9580834259259
 30
0.0
 10
465.130232777778
 20
115.9538575
 30
0.0
  0
SPLINE
  5
1000019A
102
{ACAD_XDICTIONARY
360
1000019B
102
}
330
1F
100
AcDbEntity
  8
VISIBLE
100
AcDbSpline
210
0.0
220
0.0
230
1.0
 70
     8
 71
     3
 72
    12
 73
     8
 74
     0
 42
0.000000001
 43
0.00000001
 40
0.0
 40
0.0
 40
0.0
 40
0.0
 40
0.1122809700517427
 40
0.2260716021983787
 40
0.3985423627927583
 40
0.6591856210164911
 40
1.0
 40
1.0
 40
1.0
 40
1.0
 10
463.9858216666671
 20
116.269593611111
 30
0.0
 10
464.0035096809806
 20
116.2831284003983
 30
0.0
 10
464.0391235319628
 20
116.3103799595732
 30
0.0
 10
464.1057981755294
 20
116.3357325072816
 30
0.0
 10
464.2753810619583
 20
116.3493041337665
 30
0.0
 10
464.6125009141942
 20
116.2214269750981
 30
0.0
 10
464.9429721348475
 20
116.0506358431149
 30
0.0
 10
465.130232777778
 20
115.9538575
 30
0.0
  0
SPLINE
  5
1000019D
102
{ACAD_XDICTIONARY
360
1000019E
102
}
330
1F
100
AcDbEntity
  8
VISIBLE
100
AcDbSpline
210
0.0
220
0.0
230
1.0
 70
    24
 71
     3
 72
     8
 73
     4
 74
     0
 42
0.000000001
 43
0.00000001
 40
0.0
 40
0.0
 40
0.0
 40
0.0
 40
1.0
 40
1.0
 40
1.0
 40
1.0
 10
534.719177222222
 20
102.9973880555556
 30
0.0
 10
534.0410207407408
 20
103.2198732407407
 30
0.0
 10
533.3628642592594
 20
103.4423584259259
 30
0.0
 10
532.684707777778
 20
103.664843611111
 30
0.0
  0
SPLINE
  5
100001A0
102
{ACAD_XDICTIONARY
360
100001A1
102
}
330
1F
100
AcDbEntity
  8
VISIBLE
100
AcDbSpline
210
0.0
220
0.0
230
1.0
 70
     8
 71
     3
 72
     9
 73
     5
 74
     0
 42
0.000000001
 43
0.00000001
 40
0.0
 40
0.0
 40
0.0
 40
0.0
 40
0.497217119734398
 40
1.0
 40
1.0
 40
1.0
 40
1.0
 10
463.6647938888891
 20
115.981021388889
 30
0.0
 10
462.6817143480201
 20
115.1373118756015
 30
0.0
 10
460.7045508477085
 20
113.4404485139011
 30
0.0
 10
458.2035842836409
 20
112.5677957190169
 30
0.0
 10
456.946141111111
 20
112.1290408333332
 30
0.0
  0
SPLINE
  5
100001A3
102
{ACAD_XDICTIONARY
360
100001A4
102
}
330
1F
100
AcDbEntity
  8
VISIBLE
100
AcDbSpline
210
0.0
220
0.0
230
1.0
 70
    24
 71
     3
 72
     8
 73
     4
 74
     0
 42
0.000000001
 43
0.00000001
 40
0.0
 40
0.0
 40
0.0
 40
0.0
 40
1.0
 40
1.0
 40
1.0
 40
1.0
 10
37.16316333333335
 20
106.1021852777778
 30
0.0
 10
35.86141333333333
 20
105.8501843518519
 30
0.0
 10
34.55966333333332
 20
105.5981834259259
 30
0.0
 10
33.2579133333333
 20
105.3461825
 30
0.0
  0
SPLINE
  5
100001A6
102
{ACAD_XDICTIONARY
360
100001A7
102
}
330
1F
100
AcDbEntity
  8
VISIBLE
100
AcDbSpline
210
0.0
220
0.0
230
1.0
 70
    24
 71
     3
 72
     8
 73
     4
 74
     0
 42
0.000000001
 43
0.00000001
 40
0.0
 40
0.0
 40
0.0
 40
0.0
 40
1.0
 40
1.0
 40
1.0
 40
1.0
 10
251.5056494444445
 20
107.655818611111
 30
0.0
 10
250.0232772222223
 20
107.4274537962962
 30
0.0
 10
248.5409050000002
 20
107.1990889814814
 30
0.0
 10
247.058532777778
 20
106.9707241666666
 30
0.0
  0
SPLINE
  5
100001A9
102
{ACAD_XDICTIONARY
360
100001AA
102
}
330
1F
100
AcDbEntity
  8
VISIBLE
100
AcDbSpline
210
0.0
220
0.0
230
1.0
 70
     8
 71
     3
 72
    12
 73
     8
 74
     0
 42
0.000000001
 43
0.00000001
 40
0.0
 40
0.0
 40
0.0
 40
0.0
 40
0.1832219030702806
 40
0.3498599789803739
 40
0.5099736822710514
 40
0.6706379763444703
 40
1.0
 40
1.0
 40
1.0
 40
1.0
 10
410.502241111111
 20
107.5506908333332
 30
0.0
 10
410.3172792853875
 20
107.2382206916323
 30
0.0
 10
409.9640969454195
 20
106.641562784605
 30
0.0
 10
409.2726390284878
 20
106.0879548887876
 30
0.0
 10
408.4572638292171
 20
105.784328785067
 30
0.0
 10
407.6105652762321
 20
105.6665753924956
 30
0.0
 10
405.614505412664
 20
105.5964894531758
 30
0.0
 10
404.2728911111111
 20
105.5493825
 30
0.0
  0
SPLINE
  5
100001AC
102
{ACAD_XDICTIONARY
360
100001AD
102
}
330
1F
100
AcDbEntity
  8
VISIBLE
100
AcDbSpline
210
0.0
220
0.0
230
1.0
 70
     8
 71
     3
 72
     9
 73
     5
 74
     0
 42
0.000000001
 43
0.00000001
 40
0.0
 40
0.0
 40
0.0
 40
0.0
 40
0.4982452541402165
 40
1.0
 40
1.0
 40
1.0
 40
1.0
 10
456.946141111111
 20
112.1290408333332
 30
0.0
 10
455.490370982455
 20
111.7290072260263
 30
0.0
 10
452.568576712346
 20
110.9261222933897
 30
0.0
 10
450.152721711822
 20
109.0451591356351
 30
0.0
 10
448.940555
 20
108.1013769444444
 30
0.0
  0
SPLINE
  5
100001AF
102
{ACAD_XDICTIONARY
360
100001B0
102
}
330
1F
100
AcDbEntity
  8
VISIBLE
100
AcDbSpline
210
0.0
220
0.0
230
1.0
 70
    24
 71
     3
 72
     8
 73
     4
 74
     0
 42
0.000000001
 43
0.00000001
 40
0.0
 40
0.0
 40
0.0
 40
0.0
 40
1.0
 40
1.0
 40
1.0
 40
1.0
 10
140.370066111111
 20
106.6225325
 30
0.0
 10
138.7911503703703
 20
106.637819537037
 30
0.0
 10
137.2122346296295
 20
106.653106574074
 30
0.0
 10
135.6333188888888
 20
106.668393611111
 30
0.0
  0
SPLINE
  5
100001B2
102
{ACAD_XDICTIONARY
360
100001B3
102
}
330
1F
100
AcDbEntity
  8
VISIBLE
100
AcDbSpline
210
0.0
220
0.0
230
1.0
 70
     8
 71
     3
 72
    11
 73
     7
 74
     0
 42
0.000000001
 43
0.00000001
 40
0.0
 40
0.0
 40
0.0
 40
0.0
 40
0.170693113122015
 40
0.3518399085970575
 40
0.6160968188342025
 40
1.0
 40
1.0
 40
1.0
 40
1.0
 10
441.282102222222
 20
110.8548075
 30
0.0
 10
441.3224338740548
 20
110.8599520852182
 30
0.0
 10
441.405567191122
 20
110.8705563231972
 30
0.0
 10
441.5491189437415
 20
110.8530075968795
 30
0.0
 10
441.8396191687479
 20
110.7645496749213
 30
0.0
 10
442.1678799504352
 20
110.5886033107811
 30
0.0
 10
442.362307777778
 20
110.4843908333332
 30
0.0
  0
SPLINE
  5
100001B5
102
{ACAD_XDICTIONARY
360
100001B6
102
}
330
1F
100
AcDbEntity
  8
VISIBLE
100
AcDbSpline
210
0.0
220
0.0
230
1.0
 70
     8
 71
     3
 72
     9
 73
     5
 74
     0
 42
0.000000001
 43
0.00000001
 40
0.0
 40
0.0
 40
0.0
 40
0.0
 40
0.5000895886422347
 40
1.0
 40
1.0
 40
1.0
 40
1.0
 10
213.75243
 20
105.6986075
 30
0.0
 10
212.9087208071866
 20
105.7244451243614
 30
0.0
 10
211.2216047144399
 20
105.7761111157122
 30
0.0
 10
209.6582337535145
 20
106.4100447155525
 30
0.0
 10
208.8766883333335
 20
106.7269547222222
 30
0.0
  0
SPLINE
  5
100001B8
102
{ACAD_XDICTIONARY
360
100001B9
102
}
330
1F
100
AcDbEntity
  8
VISIBLE
100
AcDbSpline
210
0.0
220
0.0
230
1.0
 70
     8
 71
     3
 72
    10
 73
     6
 74
     0
 42
0.000000001
 43
0.00000001
 40
0.0
 40
0.0
 40
0.0
 40
0.0
 40
0.331839035612113
 40
0.6276597881062065
 40
1.0
 40
1.0
 40
1.0
 40
1.0
 10
309.5636994444445
 20
119.4156658333332
 30
0.0
 10
309.232155745335
 20
119.5486996185293
 30
0.0
 10
308.6050545739881
 20
119.8003275117733
 30
0.0
 10
307.7714375466157
 20
119.7636271438745
 30
0.0
 10
306.9793333926569
 20
119.5653283819314
 30
0.0
 10
306.5379244444445
 20
119.4548241666666
 30
0.0
  0
SPLINE
  5
100001BB
102
{ACAD_XDICTIONARY
360
100001BC
102
}
330
1F
100
AcDbEntity
  8
VISIBLE
100
AcDbSpline
210
0.0
220
0.0
230
1.0
 70
     8
 71
     3
 72
    10
 73
     6
 74
     0
 42
0.000000001
 43
0.00000001
 40
0.0
 40
0.0
 40
0.0
 40
0.0
 40
0.3305165309557284
 40
0.6634594610925676
 40
1.0
 40
1.0
 40
1.0
 40
1.0
 10
441.2821022222221
 20
110.8548075
 30
0.0
 10
440.1861540383735
 20
110.6942298738144
 30
0.0
 10
437.9862120586513
 20
110.3718957835207
 30
0.0
 10
434.6090537482825
 20
110.5903921635438
 30
0.0
 10
432.3428065590134
 20
110.8835014340305
 30
0.0
 10
431.203593888889
 20
111.030843611111
 30
0.0
  0
SPLINE
  5
100001BE
102
{ACAD_XDICTIONARY
360
100001BF
102
}
330
1F
100
AcDbEntity
  8
VISIBLE
100
AcDbSpline
210
0.0
220
0.0
230
1.0
 70
     8
 71
     3
 72
    11
 73
     7
 74
     0
 42
0.000000001
 43
0.00000001
 40
0.0
 40
0.0
 40
0.0
 40
0.0
 40
0.1631905004751788
 40
0.3411604978518344
 40
0.6073804753399664
 40
1.0
 40
1.0
 40
1.0
 40
1.0
 10
220.386416111111
 20
105.172968611111
 30
0.0
 10
220.3775370577565
 20
105.1806546313922
 30
0.0
 10
220.3589748114613
 20
105.1967227634098
 30
0.0
 10
220.3173291514908
 20
105.2134991948418
 30
0.0
 10
220.2207402195912
 20
105.2286731194735
 30
0.0
 10
220.0977557450481
 20
105.2300209559804
 30
0.0
 10
220.0244661111111
 20
105.2308241666666
 30
0.0
  0
SPLINE
  5
100001C1
102
{ACAD_XDICTIONARY
360
100001C2
102
}
330
1F
100
AcDbEntity
  8
VISIBLE
100
AcDbSpline
210
0.0
220
0.0
230
1.0
 70
    24
 71
     3
 72
     8
 73
     4
 74
     0
 42
0.000000001
 43
0.00000001
 40
0.0
 40
0.0
 40
0.0
 40
0.0
 40
1.0
 40
1.0
 40
1.0
 40
1.0
 10
532.684707777778
 20
103.664843611111
 30
0.0
 10
530.8392096296296
 20
104.4910491666666
 30
0.0
 10
528.9937114814813
 20
105.3172547222222
 30
0.0
 10
527.148213333333
 20
106.1434602777778
 30
0.0
  0
SPLINE
  5
100001C4
102
{ACAD_XDICTIONARY
360
100001C5
102
}
330
1F
100
AcDbEntity
  8
VISIBLE
100
AcDbSpline
210
0.0
220
0.0
230
1.0
 70
    24
 71
     3
 72
     8
 73
     4
 74
     0
 42
0.000000001
 43
0.00000001
 40
0.0
 40
0.0
 40
0.0
 40
0.0
 40
1.0
 40
1.0
 40
1.0
 40
1.0
 10
401.421741111111
 20
105.557496388889
 30
0.0
 10
399.1920679629629
 20
106.5526825
 30
0.0
 10
396.9623948148147
 20
107.5478686111111
 30
0.0
 10
394.7327216666665
 20
108.5430547222222
 30
0.0
  0
SPLINE
  5
100001C7
102
{ACAD_XDICTIONARY
360
100001C8
102
}
330
1F
100
AcDbEntity
  8
VISIBLE
100
AcDbSpline
210
0.0
220
0.0
230
1.0
 70
    24
 71
     3
 72
     8
 73
     4
 74
     0
 42
0.000000001
 43
0.00000001
 40
0.0
 40
0.0
 40
0.0
 40
0.0
 40
1.0
 40
1.0
 40
1.0
 40
1.0
 10
67.985005
 20
100.6129630555556
 30
0.0
 10
67.45548555555554
 20
100.8209843518519
 30
0.0
 10
66.92596611111107
 20
101.0290056481481
 30
0.0
 10
66.3964466666666
 20
101.2370269444444
 30
0.0
  0
SPLINE
  5
100001CA
102
{ACAD_XDICTIONARY
360
100001CB
102
}
330
1F
100
AcDbEntity
  8
VISIBLE
100
AcDbSpline
210
0.0
220
0.0
230
1.0
 70
     8
 71
     3
 72
     9
 73
     5
 74
     0
 42
0.000000001
 43
0.00000001
 40
0.0
 40
0.0
 40
0.0
 40
0.0
 40
0.4968512603720915
 40
1.0
 40
1.0
 40
1.0
 40
1.0
 10
232.9728216666665
 20
104.7214130555556
 30
0.0
 10
233.0948235199121
 20
104.7464995475227
 30
0.0
 10
233.3403735727674
 20
104.7969904971648
 30
0.0
 10
233.5912881847714
 20
104.7492926984283
 30
0.0
 10
233.7175355555555
 20
104.725293611111
 30
0.0
  0
SPLINE
  5
100001CD
102
{ACAD_XDICTIONARY
360
100001CE
102
}
330
1F
100
AcDbEntity
  8
VISIBLE
100
AcDbSpline
210
0.0
220
0.0
230
1.0
 70
     8
 71
     3
 72
    13
 73
     9
 74
     0
 42
0.000000001
 43
0.00000001
 40
0.0
 40
0.0
 40
0.0
 40
0.0
 40
0.1086431579909841
 40
0.2574982153719036
 40
0.4032923742746592
 40
0.5932268185570512
 40
0.8809107524353856
 40
1.0
 40
1.0
 40
1.0
 40
1.0
 10
429.8355216666665
 20
110.9751047222222
 30
0.0
 10
429.8616348155087
 20
110.9736954856304
 30
0.0
 10
429.9235263266629
 20
110.9703554142063
 30
0.0
 10
430.0866032402118
 20
110.9783645020934
 30
0.0
 10
430.2482718005789
 20
110.9881865867032
 30
0.0
 10
430.4896598662021
 20
111.0048362627474
 30
0.0
 10
431.092879178216
 20
111.0413179530393
 30
0.0
 10
431.1785209213959
 20
111.0332156792227
 30
0.0
 10
431.203593888889
 20
111.030843611111
 30
0.0
  0
SPLINE
  5
100001D0
102
{ACAD_XDICTIONARY
360
100001D1
102
}
330
1F
100
AcDbEntity
  8
VISIBLE
100
AcDbSpline
210
0.0
220
0.0
230
1.0
 70
    24
 71
     3
 72
     8
 73
     4
 74
     0
 42
0.000000001
 43
0.00000001
 40
0.0
 40
0.0
 40
0.0
 40
0.0
 40
1.0
 40
1.0
 40
1.0
 40
1.0
 10
566.778210555555
 20
113.4964075
 30
0.0
 10
565.912376296296
 20
113.2745102777777
 30
0.0
 10
565.0465420370368
 20
113.0526130555555
 30
0.0
 10
564.1807077777779
 20
112.8307158333332
 30
0.0
  0
SPLINE
  5
100001D3
102
{ACAD_XDICTIONARY
360
100001D4
102
}
330
1F
100
AcDbEntity
  8
VISIBLE
100
AcDbSpline
210
0.0
220
0.0
230
1.0
 70
     8
 71
     3
 72
    11
 73
     7
 74
     0
 42
0.000000001
 43
0.00000001
 40
0.0
 40
0.0
 40
0.0
 40
0.0
 40
0.2608920552903017
 40
0.5055028534323704
 40
0.747827240921302
 40
1.0
 40
1.0
 40
1.0
 40
1.0
 10
429.8355216666665
 20
110.9751047222222
 30
0.0
 10
429.567941742424
 20
110.9997635244259
 30
0.0
 10
429.0494805149432
 20
111.0475422690194
 30
0.0
 10
428.3606892645183
 20
110.8822336701703
 30
0.0
 10
427.7554625423256
 20
110.5221806360515
 30
0.0
 10
427.4786599229797
 20
110.1156289785659
 30
0.0
 10
427.337502222222
 20
109.9083047222222
 30
0.0
  0
SPLINE
  5
100001D6
102
{ACAD_XDICTIONARY
360
100001D7
102
}
330
1F
100
AcDbEntity
  8
VISIBLE
100
AcDbSpline
210
0.0
220
0.0
230
1.0
 70
    24
 71
     3
 72
     8
 73
     4
 74
     0
 42
0.000000001
 43
0.00000001
 40
0.0
 40
0.0
 40
0.0
 40
0.0
 40
1.0
 40
1.0
 40
1.0
 40
1.0
 10
608.499827222222
 20
61.9304836615003
 30
0.0
 10
608.499827222222
 20
82.9484101261854
 30
0.0
 10
608.499827222222
 20
103.9663365908705
 30
0.0
 10
608.499827222222
 20
124.9842630555556
 30
0.0
  0
SPLINE
  5
100001D9
102
{ACAD_XDICTIONARY
360
100001DA
102
}
330
1F
100
AcDbEntity
  8
VISIBLE
100
AcDbSpline
210
0.0
220
0.0
230
1.0
 70
    24
 71
     3
 72
     8
 73
     4
 74
     0
 42
0.000000001
 43
0.00000001
 40
0.0
 40
0.0
 40
0.0
 40
0.0
 40
1.0
 40
1.0
 40
1.0
 40
1.0
 10
425.183793888889
 20
108.5776269444444
 30
0.0
 10
423.7426966666667
 20
108.4341639814815
 30
0.0
 10
422.3015994444443
 20
108.2907010185185
 30
0.0
 10
420.8605022222221
 20
108.1472380555556
 30
0.0
  0
SPLINE
  5
100001DC
102
{ACAD_XDICTIONARY
360
100001DD
102
}
330
1F
100
AcDbEntity
  8
VISIBLE
100
AcDbSpline
210
0.0
220
0.0
230
1.0
 70
    24
 71
     3
 72
     8
 73
     4
 74
     0
 42
0.000000001
 43
0.00000001
 40
0.0
 40
0.0
 40
0.0
 40
0.0
 40
1.0
 40
1.0
 40
1.0
 40
1.0
 10
43.99541055555549
 20
104.9807047222222
 30
0.0
 10
41.71799481481478
 20
105.3545315740741
 30
0.0
 10
39.44057907407407
 20
105.7283584259259
 30
0.0
 10
37.16316333333335
 20
106.1021852777778
 30
0.0
  0
SPLINE
  5
100001DF
102
{ACAD_XDICTIONARY
360
100001E0
102
}
330
1F
100
AcDbEntity
  8
VISIBLE
100
AcDbSpline
210
0.0
220
0.0
230
1.0
 70
     8
 71
     3
 72
    12
 73
     8
 74
     0
 42
0.000000001
 43
0.00000001
 40
0.0
 40
0.0
 40
0.0
 40
0.0
 40
0.235533379594945
 40
0.453513084943332
 40
0.6049592063585126
 40
0.7602171072894974
 40
1.0
 40
1.0
 40
1.0
 40
1.0
 10
414.245566111111
 20
107.2786991666666
 30
0.0
 10
413.9217635477602
 20
107.1043780885336
 30
0.0
 10
413.298290562019
 20
106.7687276170347
 30
0.0
 10
412.3361244982795
 20
106.6157183261307
 30
0.0
 10
411.8656214526167
 20
106.7052000445739
 30
0.0
 10
411.3698245716576
 20
106.8394362252334
 30
0.0
 10
410.8299410320656
 20
107.2820387791481
 30
0.0
 10
410.502241111111
 20
107.5506908333332
 30
0.0
  0
SPLINE
  5
100001E2
102
{ACAD_XDICTIONARY
360
100001E3
102
}
330
1F
100
AcDbEntity
  8
VISIBLE
100
AcDbSpline
210
0.0
220
0.0
230
1.0
 70
     8
 71
     3
 72
    10
 73
     6
 74
     0
 42
0.000000001
 43
0.00000001
 40
0.0
 40
0.0
 40
0.0
 40
0.0
 40
0.4334941890805447
 40
0.7219114521772088
 40
1.0
 40
1.0
 40
1.0
 40
1.0
 10
402.9111688888891
 20
105.5148102777778
 30
0.0
 10
402.6142967192711
 20
105.4913173255405
 30
0.0
 10
402.1199061957568
 20
105.4521937762687
 30
0.0
 10
401.7521407218304
 20
105.4600461201433
 30
0.0
 10
401.5305274734578
 20
105.525410212324
 30
0.0
 10
401.421741111111
 20
105.557496388889
 30
0.0
  0
SPLINE
  5
100001E5
102
{ACAD_XDICTIONARY
360
100001E6
102
}
330
1F
100
AcDbEntity
  8
VISIBLE
100
AcDbSpline
210
0.0
220
0.0
230
1.0
 70
     8
 71
     3
 72
    10
 73
     6
 74
     0
 42
0.000000001
 43
0.00000001
 40
0.0
 40
0.0
 40
0.0
 40
0.0
 40
0.4069527271516025
 40
0.6948937552251568
 40
1.0
 40
1.0
 40
1.0
 40
1.0
 10
86.02323833333331
 20
100.7131519444444
 30
0.0
 10
85.24648839026125
 20
100.6272085426843
 30
0.0
 10
83.92014592146835
 20
100.4804555436225
 30
0.0
 10
82.80068511347594
 20
100.5197719975814
 30
0.0
 10
82.08738219222138
 20
100.9279171279552
 30
0.0
 10
81.7204077777778
 20
101.137896388889
 30
0.0
  0
SPLINE
  5
100001E8
102
{ACAD_XDICTIONARY
360
100001E9
102
}
330
1F
100
AcDbEntity
  8
VISIBLE
100
AcDbSpline
210
0.0
220
0.0
230
1.0
 70
     8
 71
     3
 72
    10
 73
     6
 74
     0
 42
0.000000001
 43
0.00000001
 40
0.0
 40
0.0
 40
0.0
 40
0.0
 40
0.3011209639425692
 40
0.5890095506564562
 40
1.0
 40
1.0
 40
1.0
 40
1.0
 10
394.7327216666665
 20
108.5430547222222
 30
0.0
 10
394.1115229881264
 20
108.8330010092891
 30
0.0
 10
392.8964234157662
 20
109.4001522631367
 30
0.0
 10
391.0159609003867
 20
109.6995179884067
 30
0.0
 10
388.781808804531
 20
109.0988087885086
 30
0.0
 10
387.467968888889
 20
108.7455491666666
 30
0.0
  0
SPLINE
  5
100001EB
102
{ACAD_XDICTIONARY
360
100001EC
102
}
330
1F
100
AcDbEntity
  8
VISIBLE
100
AcDbSpline
210
0.0
220
0.0
230
1.0
 70
     8
 71
     3
 72
    11
 73
     7
 74
     0
 42
0.000000001
 43
0.00000001
 40
0.0
 40
0.0
 40
0.0
 40
0.0
 40
0.3693167527256799
 40
0.5253806975116446
 40
0.7362464206246979
 40
1.0
 40
1.0
 40
1.0
 40
1.0
 10
163.628705
 20
106.2729297222222
 30
0.0
 10
161.8602529771476
 20
105.3680189389091
 30
0.0
 10
159.3444977333767
 20
104.0807156822492
 30
0.0
 10
158.5317058595987
 20
103.6578098083541
 30
0.0
 10
157.0058097770513
 20
102.8682525389027
 30
0.0
 10
155.6369729642742
 20
102.1609930000945
 30
0.0
 10
154.8762883333335
 20
101.7679575
 30
0.0
  0
SPLINE
  5
100001EE
102
{ACAD_XDICTIONARY
360
100001EF
102
}
330
1F
100
AcDbEntity
  8
VISIBLE
100
AcDbSpline
210
0.0
220
0.0
230
1.0
 70
     8
 71
     3
 72
     9
 73
     5
 74
     0
 42
0.000000001
 43
0.00000001
 40
0.0
 40
0.0
 40
0.0
 40
0.0
 40
0.4997601729913477
 40
1.0
 40
1.0
 40
1.0
 40
1.0
 10
386.3443716666665
 20
108.7106241666666
 30
0.0
 10
386.5327407338736
 20
108.6735314695048
 30
0.0
 10
386.9096596589644
 20
108.599310474783
 30
0.0
 10
387.2818063117018
 20
108.6967873509803
 30
0.0
 10
387.467968888889
 20
108.7455491666666
 30
0.0
  0
SPLINE
  5
100001F1
102
{ACAD_XDICTIONARY
360
100001F2
102
}
330
1F
100
AcDbEntity
  8
VISIBLE
100
AcDbSpline
210
0.0
220
0.0
230
1.0
 70
     8
 71
     3
 72
    10
 73
     6
 74
     0
 42
0.000000001
 43
0.00000001
 40
0.0
 40
0.0
 40
0.0
 40
0.0
 40
0.2981851231687843
 40
0.5872005391019889
 40
1.0
 40
1.0
 40
1.0
 40
1.0
 10
376.8084355555555
 20
106.4817741666666
 30
0.0
 10
376.3618356171867
 20
106.4572394606871
 30
0.0
 10
375.4823694594314
 20
106.4089245332865
 30
0.0
 10
374.2374201641322
 20
106.6954442572604
 30
0.0
 10
372.9746162327908
 20
107.6024555358245
 30
0.0
 10
372.2318494444445
 20
108.1359491666666
 30
0.0
  0
SPLINE
  5
100001F4
102
{ACAD_XDICTIONARY
360
100001F5
102
}
330
1F
100
AcDbEntity
  8
VISIBLE
100
AcDbSpline
210
0.0
220
0.0
230
1.0
 70
    24
 71
     3
 72
     8
 73
     4
 74
     0
 42
0.000000001
 43
0.00000001
 40
0.0
 40
0.0
 40
0.0
 40
0.0
 40
1.0
 40
1.0
 40
1.0
 40
1.0
 10
208.8766883333335
 20
106.7269547222222
 30
0.0
 10
207.8422262962963
 20
107.0643278703703
 30
0.0
 10
206.8077642592592
 20
107.4017010185185
 30
0.0
 10
205.773302222222
 20
107.7390741666666
 30
0.0
  0
SPLINE
  5
100001F7
102
{ACAD_XDICTIONARY
360
100001F8
102
}
330
1F
100
AcDbEntity
  8
VISIBLE
100
AcDbSpline
210
0.0
220
0.0
230
1.0
 70
     8
 71
     3
 72
    10
 73
     6
 74
     0
 42
0.000000001
 43
0.00000001
 40
0.0
 40
0.0
 40
0.0
 40
0.0
 40
0.4232010546794337
 40
0.7115196671449
 40
1.0
 40
1.0
 40
1.0
 40
1.0
 10
369.0903633333335
 20
109.259193611111
 30
0.0
 10
367.9955498864556
 20
109.1177664867647
 30
0.0
 10
366.1548614224384
 20
108.8799878249974
 30
0.0
 10
364.8644112559944
 20
108.2090042141093
 30
0.0
 10
364.1826911682768
 20
107.5418261656075
 30
0.0
 10
363.8417355555555
 20
107.208143611111
 30
0.0
  0
SPLINE
  5
100001FA
102
{ACAD_XDICTIONARY
360
100001FB
102
}
330
1F
100
AcDbEntity
  8
VISIBLE
100
AcDbSpline
210
0.0
220
0.0
230
1.0
 70
    24
 71
     3
 72
     8
 73
     4
 74
     0
 42
0.000000001
 43
0.00000001
 40
0.0
 40
0.0
 40
0.0
 40
0.0
 40
1.0
 40
1.0
 40
1.0
 40
1.0
 10
103.2634883333332
 20
97.4721825
 30
0.0
 10
100.460904074074
 20
97.96995194444443
 30
0.0
 10
97.6583198148148
 20
98.46772138888888
 30
0.0
 10
94.8557355555556
 20
98.96549083333329
 30
0.0
  0
SPLINE
  5
100001FD
102
{ACAD_XDICTIONARY
360
100001FE
102
}
330
1F
100
AcDbEntity
  8
VISIBLE
100
AcDbSpline
210
0.0
220
0.0
230
1.0
 70
    24
 71
     3
 72
     8
 73
     4
 74
     0
 42
0.000000001
 43
0.00000001
 40
0.0
 40
0.0
 40
0.0
 40
0.0
 40
1.0
 40
1.0
 40
1.0
 40
1.0
 10
363.8417355555555
 20
107.208143611111
 30
0.0
 10
362.567855
 20
107.5444584259258
 30
0.0
 10
361.2939744444445
 20
107.8807732407406
 30
0.0
 10
360.020093888889
 20
108.2170880555554
 30
0.0
  0
SPLINE
  5
10000200
102
{ACAD_XDICTIONARY
360
10000201
102
}
330
1F
100
AcDbEntity
  8
VISIBLE
100
AcDbSpline
210
0.0
220
0.0
230
1.0
 70
     8
 71
     3
 72
    10
 73
     6
 74
     0
 42
0.000000001
 43
0.00000001
 40
0.0
 40
0.0
 40
0.0
 40
0.0
 40
0.280702204243379
 40
0.5753717164372497
 40
1.0
 40
1.0
 40
1.0
 40
1.0
 10
527.148213333333
 20
106.1434602777778
 30
0.0
 10
527.0768772002302
 20
106.1630072722682
 30
0.0
 10
526.9306553582677
 20
106.2030738894914
 30
0.0
 10
526.6831151693817
 20
106.1878810761988
 30
0.0
 10
526.3832929132245
 20
106.1178024962545
 30
0.0
 10
526.2062966666671
 20
106.0764325
 30
0.0
  0
SPLINE
  5
10000203
102
{ACAD_XDICTIONARY
360
10000204
102
}
330
1F
100
AcDbEntity
  8
VISIBLE
100
AcDbSpline
210
0.0
220
0.0
230
1.0
 70
    24
 71
     3
 72
     8
 73
     4
 74
     0
 42
0.000000001
 43
0.00000001
 40
0.0
 40
0.0
 40
0.0
 40
0.0
 40
1.0
 40
1.0
 40
1.0
 40
1.0
 10
360.020093888889
 20
108.2170880555554
 30
0.0
 10
358.202817962963
 20
108.4935482407406
 30
0.0
 10
356.3855420370371
 20
108.7700084259258
 30
0.0
 10
354.568266111111
 20
109.046468611111
 30
0.0
  0
SPLINE
  5
10000206
102
{ACAD_XDICTIONARY
360
10000207
102
}
330
1F
100
AcDbEntity
  8
VISIBLE
100
AcDbSpline
210
0.0
220
0.0
230
1.0
 70
    24
 71
     3
 72
     8
 73
     4
 74
     0
 42
0.000000001
 43
0.00000001
 40
0.0
 40
0.0
 40
0.0
 40
0.0
 40
1.0
 40
1.0
 40
1.0
 40
1.0
 10
354.568266111111
 20
109.046468611111
 30
0.0
 10
353.0163966666667
 20
109.7128658333333
 30
0.0
 10
351.4645272222224
 20
110.3792630555555
 30
0.0
 10
349.912657777778
 20
111.0456602777778
 30
0.0
  0
SPLINE
  5
10000209
102
{ACAD_XDICTIONARY
360
1000020A
102
}
330
1F
100
AcDbEntity
  8
VISIBLE
100
AcDbSpline
210
0.0
220
0.0
230
1.0
 70
     8
 71
     3
 72
     9
 73
     5
 74
     0
 42
0.000000001
 43
0.00000001
 40
0.0
 40
0.0
 40
0.0
 40
0.0
 40
0.5008256485843524
 40
1.0
 40
1.0
 40
1.0
 40
1.0
 10
342.412955
 20
111.3695102777778
 30
0.0
 10
341.3364469796325
 20
111.7396589165668
 30
0.0
 10
339.1869803470617
 20
112.4787357586481
 30
0.0
 10
336.9252518537348
 20
112.4546721927018
 30
0.0
 10
335.796255
 20
112.4426602777778
 30
0.0
  0
SPLINE
  5
1000020C
102
{ACAD_XDICTIONARY
360
1000020D
102
}
330
1F
100
AcDbEntity
  8
VISIBLE
100
AcDbSpline
210
0.0
220
0.0
230
1.0
 70
     8
 71
     3
 72
    11
 73
     7
 74
     0
 42
0.000000001
 43
0.00000001
 40
0.0
 40
0.0
 40
0.0
 40
0.0
 40
0.2553741278870985
 40
0.489131612962338
 40
0.7286762114990559
 40
1.0
 40
1.0
 40
1.0
 40
1.0
 10
323.368952222222
 20
110.897493611111
 30
0.0
 10
323.0256499801983
 20
110.8597279815663
 30
0.0
 10
322.3681049862554
 20
110.7873934680955
 30
0.0
 10
321.5126202620284
 20
110.9728117880849
 30
0.0
 10
320.7465666607773
 20
111.4749750540074
 30
0.0
 10
320.2764277778218
 20
112.0445529230794
 30
0.0
 10
320.0267355555555
 20
112.3470575
 30
0.0
  0
SPLINE
  5
1000020F
102
{ACAD_XDICTIONARY
360
10000210
102
}
330
1F
100
AcDbEntity
  8
VISIBLE
100
AcDbSpline
210
0.0
220
0.0
230
1.0
 70
    24
 71
     3
 72
     8
 73
     4
 74
     0
 42
0.000000001
 43
0.00000001
 40
0.0
 40
0.0
 40
0.0
 40
0.0
 40
1.0
 40
1.0
 40
1.0
 40
1.0
 10
317.660655
 20
114.859893611111
 30
0.0
 10
314.9616698148149
 20
116.3784843518517
 30
0.0
 10
312.2626846296297
 20
117.8970750925925
 30
0.0
 10
309.5636994444445
 20
119.4156658333332
 30
0.0
  0
SPLINE
  5
10000212
102
{ACAD_XDICTIONARY
360
10000213
102
}
330
1F
100
AcDbEntity
  8
VISIBLE
100
AcDbSpline
210
0.0
220
0.0
230
1.0
 70
     8
 71
     3
 72
     9
 73
     5
 74
     0
 42
0.000000001
 43
0.00000001
 40
0.0
 40
0.0
 40
0.0
 40
0.0
 40
0.5047923132991966
 40
1.0
 40
1.0
 40
1.0
 40
1.0
 10
496.7825133333329
 20
107.4321575
 30
0.0
 10
496.1893411904809
 20
107.7007890243523
 30
0.0
 10
495.0142596228257
 20
108.2329514944909
 30
0.0
 10
493.7603318793558
 20
108.224937301221
 30
0.0
 10
493.139377222222
 20
108.220968611111
 30
0.0
  0
SPLINE
  5
10000215
102
{ACAD_XDICTIONARY
360
10000216
102
}
330
1F
100
AcDbEntity
  8
VISIBLE
100
AcDbSpline
210
0.0
220
0.0
230
1.0
 70
     8
 71
     3
 72
    13
 73
     9
 74
     0
 42
0.000000001
 43
0.00000001
 40
0.0
 40
0.0
 40
0.0
 40
0.0
 40
0.2479127078116234
 40
0.4101783233845961
 40
0.5412347452908408
 40
0.612629968457916
 40
0.6652627031853201
 40
1.0
 40
1.0
 40
1.0
 40
1.0
 10
306.5379244444445
 20
119.4548241666666
 30
0.0
 10
306.1629736290238
 20
119.4121309614938
 30
0.0
 10
305.5426072985579
 20
119.3414938914047
 30
0.0
 10
305.114486316125
 20
119.2678965800092
 30
0.0
 10
304.8176620790133
 20
119.2198963976191
 30
0.0
 10
304.7187428108359
 20
119.20464795191
 30
0.0
 10
304.6518067715395
 20
119.1888497831778
 30
0.0
 10
303.6670633060191
 20
119.1044355431182
 30
0.0
 10
302.816118888889
 20
119.0314908333332
 30
0.0
  0
ENDSEC
  0
SECTION
  2
OBJECTS
  0
DICTIONARY
  5
C
330
0
100
AcDbDictionary
  3
ACAD_GROUP
350
D
  3
ACAD_LAYOUT
350
1A
  3
ACAD_MATERIAL
350
43
  3
ACAD_MLEADERSTYLE
350
6B
  3
ACAD_MLINESTYLE
350
17
  3
ACAD_PLOTSETTINGS
350
19
  3
ACAD_SCALELIST
350
47
  3
ACAD_VISUALSTYLE
350
2A
  3
ACDBHEADERROUNDTRIPXREC
350
1000021A
  3
ACDBVARIABLEDICTIONARY
350
1000023B
  3
DWGPROPS
350
10000242
  3
ONSHAPE_DATA
350
10000001
  0
DICTIONARY
  5
10000243
330
8
100
AcDbDictionary
280
     1
  3
ACAD_XREC_ROUNDTRIP
360
10000244
  0
DICTIONARY
  5
10000218
330
1F
100
AcDbDictionary
280
     1
  3
ACAD_SORTENTS
360
10000219
  0
DICTIONARY
  5
1000004E
330
1000004D
100
AcDbDictionary
280
     1
  3
BTDETID
360
1000004F
  0
DICTIONARY
  5
10000051
330
10000050
100
AcDbDictionary
280
     1
  3
BTDETID
360
10000052
  0
DICTIONARY
  5
10000054
330
10000053
100
AcDbDictionary
280
     1
  3
BTDETID
360
10000055
  0
DICTIONARY
  5
10000057
330
10000056
100
AcDbDictionary
280
     1
  3
BTDETID
360
10000058
  0
DICTIONARY
  5
1000005A
330
10000059
100
AcDbDictionary
280
     1
  3
BTDETID
360
1000005B
  0
DICTIONARY
  5
1000005D
330
1000005C
100
AcDbDictionary
280
     1
  3
BTDETID
360
1000005E
  0
DICTIONARY
  5
10000060
330
1000005F
100
AcDbDictionary
280
     1
  3
BTDETID
360
10000061
  0
DICTIONARY
  5
10000063
330
10000062
100
AcDbDictionary
280
     1
  3
BTDETID
360
10000064
  0
DICTIONARY
  5
10000066
330
10000065
100
AcDbDictionary
280
     1
  3
BTDETID
360
10000067
  0
DICTIONARY
  5
10000069
330
10000068
100
AcDbDictionary
280
     1
  3
BTDETID
360
1000006A
  0
DICTIONARY
  5
1000006C
330
1000006B
100
AcDbDictionary
280
     1
  3
BTDETID
360
1000006D
  0
DICTIONARY
  5
1000006F
330
1000006E
100
AcDbDictionary
280
     1
  3
BTDETID
360
10000070
  0
DICTIONARY
  5
10000072
330
10000071
100
AcDbDictionary
280
     1
  3
BTDETID
360
10000073
  0
DICTIONARY
  5
10000075
330
10000074
100
AcDbDictionary
280
     1
  3
BTDETID
360
10000076
  0
DICTIONARY
  5
10000078
330
10000077
100
AcDbDictionary
280
     1
  3
BTDETID
360
10000079
  0
DICTIONARY
  5
1000007B
330
1000007A
100
AcDbDictionary
280
     1
  3
BTDETID
360
1000007C
  0
DICTIONARY
  5
1000007E
330
1000007D
100
AcDbDictionary
280
     1
  3
BTDETID
360
1000007F
  0
DICTIONARY
  5
10000081
330
10000080
100
AcDbDictionary
280
     1
  3
BTDETID
360
10000082
  0
DICTIONARY
  5
10000084
330
10000083
100
AcDbDictionary
280
     1
  3
BTDETID
360
10000085
  0
DICTIONARY
  5
10000087
330
10000086
100
AcDbDictionary
280
     1
  3
BTDETID
360
10000088
  0
DICTIONARY
  5
1000008A
330
10000089
100
AcDbDictionary
280
     1
  3
BTDETID
360
1000008B
  0
DICTIONARY
  5
1000008D
330
1000008C
100
AcDbDictionary
280
     1
  3
BTDETID
360
1000008E
  0
DICTIONARY
  5
10000090
330
1000008F
100
AcDbDictionary
280
     1
  3
BTDETID
360
10000091
  0
DICTIONARY
  5
10000093
330
10000092
100
AcDbDictionary
280
     1
  3
BTDETID
360
10000094
  0
DICTIONARY
  5
10000096
330
10000095
100
AcDbDictionary
280
     1
  3
BTDETID
360
10000097
  0
DICTIONARY
  5
10000099
330
10000098
100
AcDbDictionary
280
     1
  3
BTDETID
360
1000009A
  0
DICTIONARY
  5
1000009C
330
1000009B
100
AcDbDictionary
280
     1
  3
BTDETID
360
1000009D
  0
DICTIONARY
  5
1000009F
330
1000009E
100
AcDbDictionary
280
     1
  3
BTDETID
360
100000A0
  0
DICTIONARY
  5
100000A2
330
100000A1
100
AcDbDictionary
280
     1
  3
BTDETID
360
100000A3
  0
DICTIONARY
  5
100000A5
330
100000A4
100
AcDbDictionary
280
     1
  3
BTDETID
360
100000A6
  0
DICTIONARY
  5
100000A8
330
100000A7
100
AcDbDictionary
280
     1
  3
BTDETID
360
100000A9
  0
DICTIONARY
  5
100000AB
330
100000AA
100
AcDbDictionary
280
     1
  3
BTDETID
360
100000AC
  0
DICTIONARY
  5
100000AE
330
100000AD
100
AcDbDictionary
280
     1
  3
BTDETID
360
100000AF
  0
DICTIONARY
  5
100000B1
330
100000B0
100
AcDbDictionary
280
     1
  3
BTDETID
360
100000B2
  0
DICTIONARY
  5
100000B4
330
100000B3
100
AcDbDictionary
280
     1
  3
BTDETID
360
100000B5
  0
DICTIONARY
  5
100000B7
330
100000B6
100
AcDbDictionary
280
     1
  3
BTDETID
360
100000B8
  0
DICTIONARY
  5
100000BA
330
100000B9
100
AcDbDictionary
280
     1
  3
BTDETID
360
100000BB
  0
DICTIONARY
  5
100000BD
330
100000BC
100
AcDbDictionary
280
     1
  3
BTDETID
360
100000BE
  0
DICTIONARY
  5
100000C0
330
100000BF
100
AcDbDictionary
280
     1
  3
BTDETID
360
100000C1
  0
DICTIONARY
  5
100000C3
330
100000C2
100
AcDbDictionary
280
     1
  3
BTDETID
360
100000C4
  0
DICTIONARY
  5
100000C6
330
100000C5
100
AcDbDictionary
280
     1
  3
BTDETID
360
100000C7
  0
DICTIONARY
  5
100000C9
330
100000C8
100
AcDbDictionary
280
     1
  3
BTDETID
360
100000CA
  0
DICTIONARY
  5
100000CC
330
100000CB
100
AcDbDictionary
280
     1
  3
BTDETID
360
100000CD
  0
DICTIONARY
  5
100000CF
330
100000CE
100
AcDbDictionary
280
     1
  3
BTDETID
360
100000D0
  0
DICTIONARY
  5
100000D2
330
100000D1
100
AcDbDictionary
280
     1
  3
BTDETID
360
100000D3
  0
DICTIONARY
  5
100000D5
330
100000D4
100
AcDbDictionary
280
     1
  3
BTDETID
360
100000D6
  0
DICTIONARY
  5
100000D8
330
100000D7
100
AcDbDictionary
280
     1
  3
BTDETID
360
100000D9
  0
DICTIONARY
  5
100000DB
330
100000DA
100
AcDbDictionary
280
     1
  3
BTDETID
360
100000DC
  0
DICTIONARY
  5
100000DE
330
100000DD
100
AcDbDictionary
280
     1
  3
BTDETID
360
100000DF
  0
DICTIONARY
  5
100000E1
330
100000E0
100
AcDbDictionary
280
     1
  3
BTDETID
360
100000E2
  0
DICTIONARY
  5
100000E4
330
100000E3
100
AcDbDictionary
280
     1
  3
BTDETID
360
100000E5
  0
DICTIONARY
  5
100000E7
330
100000E6
100
AcDbDictionary
280
     1
  3
BTDETID
360
100000E8
  0
DICTIONARY
  5
100000EA
330
100000E9
100
AcDbDictionary
280
     1
  3
BTDETID
360
100000EB
  0
DICTIONARY
  5
100000ED
330
100000EC
100
AcDbDictionary
280
     1
  3
BTDETID
360
100000EE
  0
DICTIONARY
  5
100000F0
330
100000EF
100
AcDbDictionary
280
     1
  3
BTDETID
360
100000F1
  0
DICTIONARY
  5
100000F3
330
100000F2
100
AcDbDictionary
280
     1
  3
BTDETID
360
100000F4
  0
DICTIONARY
  5
100000F6
330
100000F5
100
AcDbDictionary
280
     1
  3
BTDETID
360
100000F7
  0
DICTIONARY
  5
100000F9
330
100000F8
100
AcDbDictionary
280
     1
  3
BTDETID
360
100000FA
  0
DICTIONARY
  5
100000FC
330
100000FB
100
AcDbDictionary
280
     1
  3
BTDETID
360
100000FD
  0
DICTIONARY
  5
100000FF
330
100000FE
100
AcDbDictionary
280
     1
  3
BTDETID
360
10000100
  0
DICTIONARY
  5
10000102
330
10000101
100
AcDbDictionary
280
     1
  3
BTDETID
360
10000103
  0
DICTIONARY
  5
10000105
330
10000104
100
AcDbDictionary
280
     1
  3
BTDETID
360
10000106
  0
DICTIONARY
  5
10000108
330
10000107
100
AcDbDictionary
280
     1
  3
BTDETID
360
10000109
  0
DICTIONARY
  5
1000010B
330
1000010A
100
AcDbDictionary
280
     1
  3
BTDETID
360
1000010C
  0
DICTIONARY
  5
1000010E
330
1000010D
100
AcDbDictionary
280
     1
  3
BTDETID
360
1000010F
  0
DICTIONARY
  5
10000111
330
10000110
100
AcDbDictionary
280
     1
  3
BTDETID
360
10000112
  0
DICTIONARY
  5
10000114
330
10000113
100
AcDbDictionary
280
     1
  3
BTDETID
360
10000115
  0
DICTIONARY
  5
10000117
330
10000116
100
AcDbDictionary
280
     1
  3
BTDETID
360
10000118
  0
DICTIONARY
  5
1000011A
330
10000119
100
AcDbDictionary
280
     1
  3
BTDETID
360
1000011B
  0
DICTIONARY
  5
1000011D
330
1000011C
100
AcDbDictionary
280
     1
  3
BTDETID
360
1000011E
  0
DICTIONARY
  5
10000120
330
1000011F
100
AcDbDictionary
280
     1
  3
BTDETID
360
10000121
  0
DICTIONARY
  5
10000123
330
10000122
100
AcDbDictionary
280
     1
  3
BTDETID
360
10000124
  0
DICTIONARY
  5
10000126
330
10000125
100
AcDbDictionary
280
     1
  3
BTDETID
360
10000127
  0
DICTIONARY
  5
10000129
330
10000128
100
AcDbDictionary
280
     1
  3
BTDETID
360
1000012A
  0
DICTIONARY
  5
1000012C
330
1000012B
100
AcDbDictionary
280
     1
  3
BTDETID
360
1000012D
  0
DICTIONARY
  5
1000012F
330
1000012E
100
AcDbDictionary
280
     1
  3
BTDETID
360
10000130
  0
DICTIONARY
  5
10000132
330
10000131
100
AcDbDictionary
280
     1
  3
BTDETID
360
10000133
  0
DICTIONARY
  5
10000135
330
10000134
100
AcDbDictionary
280
     1
  3
BTDETID
360
10000136
  0
DICTIONARY
  5
10000138
330
10000137
100
AcDbDictionary
280
     1
  3
BTDETID
360
10000139
  0
DICTIONARY
  5
1000013B
330
1000013A
100
AcDbDictionary
280
     1
  3
BTDETID
360
1000013C
  0
DICTIONARY
  5
1000013E
330
1000013D
100
AcDbDictionary
280
     1
  3
BTDETID
360
1000013F
  0
DICTIONARY
  5
10000141
330
10000140
100
AcDbDictionary
280
     1
  3
BTDETID
360
10000142
  0
DICTIONARY
  5
10000144
330
10000143
100
AcDbDictionary
280
     1
  3
BTDETID
360
10000145
  0
DICTIONARY
  5
10000147
330
10000146
100
AcDbDictionary
280
     1
  3
BTDETID
360
10000148
  0
DICTIONARY
  5
1000014A
330
10000149
100
AcDbDictionary
280
     1
  3
BTDETID
360
1000014B
  0
DICTIONARY
  5
1000014D
330
1000014C
100
AcDbDictionary
280
     1
  3
BTDETID
360
1000014E
  0
DICTIONARY
  5
10000150
330
1000014F
100
AcDbDictionary
280
     1
  3
BTDETID
360
10000151
  0
DICTIONARY
  5
10000153
330
10000152
100
AcDbDictionary
280
     1
  3
BTDETID
360
10000154
  0
DICTIONARY
  5
10000156
330
10000155
100
AcDbDictionary
280
     1
  3
BTDETID
360
10000157
  0
DICTIONARY
  5
10000159
330
10000158
100
AcDbDictionary
280
     1
  3
BTDETID
360
1000015A
  0
DICTIONARY
  5
1000015C
330
1000015B
100
AcDbDictionary
280
     1
  3
BTDETID
360
1000015D
  0
DICTIONARY
  5
1000015F
330
1000015E
100
AcDbDictionary
280
     1
  3
BTDETID
360
10000160
  0
DICTIONARY
  5
10000162
330
10000161
100
AcDbDictionary
280
     1
  3
BTDETID
360
10000163
  0
DICTIONARY
  5
10000165
330
10000164
100
AcDbDictionary
280
     1
  3
BTDETID
360
10000166
  0
DICTIONARY
  5
10000168
330
10000167
100
AcDbDictionary
280
     1
  3
BTDETID
360
10000169
  0
DICTIONARY
  5
1000016B
330
1000016A
100
AcDbDictionary
280
     1
  3
BTDETID
360
1000016C
  0
DICTIONARY
  5
1000016E
330
1000016D
100
AcDbDictionary
280
     1
  3
BTDETID
360
1000016F
  0
DICTIONARY
  5
10000171
330
10000170
100
AcDbDictionary
280
     1
  3
BTDETID
360
10000172
  0
DICTIONARY
  5
10000174
330
10000173
100
AcDbDictionary
280
     1
  3
BTDETID
360
10000175
  0
DICTIONARY
  5
10000177
330
10000176
100
AcDbDictionary
280
     1
  3
BTDETID
360
10000178
  0
DICTIONARY
  5
1000017A
330
10000179
100
AcDbDictionary
280
     1
  3
BTDETID
360
1000017B
  0
DICTIONARY
  5
1000017D
330
1000017C
100
AcDbDictionary
280
     1
  3
BTDETID
360
1000017E
  0
DICTIONARY
  5
10000180
330
1000017F
100
AcDbDictionary
280
     1
  3
BTDETID
360
10000181
  0
DICTIONARY
  5
10000183
330
10000182
100
AcDbDictionary
280
     1
  3
BTDETID
360
10000184
  0
DICTIONARY
  5
10000186
330
10000185
100
AcDbDictionary
280
     1
  3
BTDETID
360
10000187
  0
DICTIONARY
  5
10000189
330
10000188
100
AcDbDictionary
280
     1
  3
BTDETID
360
1000018A
  0
DICTIONARY
  5
1000018C
330
1000018B
100
AcDbDictionary
280
     1
  3
BTDETID
360
1000018D
  0
DICTIONARY
  5
1000018F
330
1000018E
100
AcDbDictionary
280
     1
  3
BTDETID
360
10000190
  0
DICTIONARY
  5
10000192
330
10000191
100
AcDbDictionary
280
     1
  3
BTDETID
360
10000193
  0
DICTIONARY
  5
10000195
330
10000194
100
AcDbDictionary
280
     1
  3
BTDETID
360
10000196
  0
DICTIONARY
  5
10000198
330
10000197
100
AcDbDictionary
280
     1
  3
BTDETID
360
10000199
  0
DICTIONARY
  5
1000019B
330
1000019A
100
AcDbDictionary
280
     1
  3
BTDETID
360
1000019C
  0
DICTIONARY
  5
1000019E
330
1000019D
100
AcDbDictionary
280
     1
  3
BTDETID
360
1000019F
  0
DICTIONARY
  5
100001A1
330
100001A0
100
AcDbDictionary
280
     1
  3
BTDETID
360
100001A2
  0
DICTIONARY
  5
100001A4
330
100001A3
100
AcDbDictionary
280
     1
  3
BTDETID
360
100001A5
  0
DICTIONARY
  5
100001A7
330
100001A6
100
AcDbDictionary
280
     1
  3
BTDETID
360
100001A8
  0
DICTIONARY
  5
100001AA
330
100001A9
100
AcDbDictionary
280
     1
  3
BTDETID
360
100001AB
  0
DICTIONARY
  5
100001AD
330
100001AC
100
AcDbDictionary
280
     1
  3
BTDETID
360
100001AE
  0
DICTIONARY
  5
100001B0
330
100001AF
100
AcDbDictionary
280
     1
  3
BTDETID
360
100001B1
  0
DICTIONARY
  5
100001B3
330
100001B2
100
AcDbDictionary
280
     1
  3
BTDETID
360
100001B4
  0
DICTIONARY
  5
100001B6
330
100001B5
100
AcDbDictionary
280
     1
  3
BTDETID
360
100001B7
  0
DICTIONARY
  5
100001B9
330
100001B8
100
AcDbDictionary
280
     1
  3
BTDETID
360
100001BA
  0
DICTIONARY
  5
100001BC
330
100001BB
100
AcDbDictionary
280
     1
  3
BTDETID
360
100001BD
  0
DICTIONARY
  5
100001BF
330
100001BE
100
AcDbDictionary
280
     1
  3
BTDETID
360
100001C0
  0
DICTIONARY
  5
100001C2
330
100001C1
100
AcDbDictionary
280
     1
  3
BTDETID
360
100001C3
  0
DICTIONARY
  5
100001C5
330
100001C4
100
AcDbDictionary
280
     1
  3
BTDETID
360
100001C6
  0
DICTIONARY
  5
100001C8
330
100001C7
100
AcDbDictionary
280
     1
  3
BTDETID
360
100001C9
  0
DICTIONARY
  5
100001CB
330
100001CA
100
AcDbDictionary
280
     1
  3
BTDETID
360
100001CC
  0
DICTIONARY
  5
100001CE
330
100001CD
100
AcDbDictionary
280
     1
  3
BTDETID
360
100001CF
  0
DICTIONARY
  5
100001D1
330
100001D0
100
AcDbDictionary
280
     1
  3
BTDETID
360
100001D2
  0
DICTIONARY
  5
100001D4
330
100001D3
100
AcDbDictionary
280
     1
  3
BTDETID
360
100001D5
  0
DICTIONARY
  5
100001D7
330
100001D6
100
AcDbDictionary
280
     1
  3
BTDETID
360
100001D8
  0
DICTIONARY
  5
100001DA
330
100001D9
100
AcDbDictionary
280
     1
  3
BTDETID
360
100001DB
  0
DICTIONARY
  5
100001DD
330
100001DC
100
AcDbDictionary
280
     1
  3
BTDETID
360
100001DE
  0
DICTIONARY
  5
100001E0
330
100001DF
100
AcDbDictionary
280
     1
  3
BTDETID
360
100001E1
  0
DICTIONARY
  5
100001E3
330
100001E2
100
AcDbDictionary
280
     1
  3
BTDETID
360
100001E4
  0
DICTIONARY
  5
100001E6
330
100001E5
100
AcDbDictionary
280
     1
  3
BTDETID
360
100001E7
  0
DICTIONARY
  5
100001E9
330
100001E8
100
AcDbDictionary
280
     1
  3
BTDETID
360
100001EA
  0
DICTIONARY
  5
100001EC
330
100001EB
100
AcDbDictionary
280
     1
  3
BTDETID
360
100001ED
  0
DICTIONARY
  5
100001EF
330
100001EE
100
AcDbDictionary
280
     1
  3
BTDETID
360
100001F0
  0
DICTIONARY
  5
100001F2
330
100001F1
100
AcDbDictionary
280
     1
  3
BTDETID
360
100001F3
  0
DICTIONARY
  5
100001F5
330
100001F4
100
AcDbDictionary
280
     1
  3
BTDETID
360
100001F6
  0
DICTIONARY
  5
100001F8
330
100001F7
100
AcDbDictionary
280
     1
  3
BTDETID
360
100001F9
  0
DICTIONARY
  5
100001FB
330
100001FA
100
AcDbDictionary
280
     1
  3
BTDETID
360
100001FC
  0
DICTIONARY
  5
100001FE
330
100001FD
100
AcDbDictionary
280
     1
  3
BTDETID
360
100001FF
  0
DICTIONARY
  5
10000201
330
10000200
100
AcDbDictionary
280
     1
  3
BTDETID
360
10000202
  0
DICTIONARY
  5
10000204
330
10000203
100
AcDbDictionary
280
     1
  3
BTDETID
360
10000205
  0
DICTIONARY
  5
10000207
330
10000206
100
AcDbDictionary
280
     1
  3
BTDETID
360
10000208
  0
DICTIONARY
  5
1000020A
330
10000209
100
AcDbDictionary
280
     1
  3
BTDETID
360
1000020B
  0
DICTIONARY
  5
1000020D
330
1000020C
100
AcDbDictionary
280
     1
  3
BTDETID
360
1000020E
  0
DICTIONARY
  5
10000210
330
1000020F
100
AcDbDictionary
280
     1
  3
BTDETID
360
10000211
  0
DICTIONARY
  5
10000213
330
10000212
100
AcDbDictionary
280
     1
  3
BTDETID
360
10000214
  0
DICTIONARY
  5
10000216
330
10000215
100
AcDbDictionary
280
     1
  3
BTDETID
360
10000217
  0
DICTIONARY
  5
D
102
{ACAD_REACTORS
330
C
102
}
330
C
100
AcDbDictionary
  0
DICTIONARY
  5
1A
102
{ACAD_REACTORS
330
C
102
}
330
C
100
AcDbDictionary
  0
DICTIONARY
  5
43
102
{ACAD_REACTORS
330
C
102
}
330
C
100
AcDbDictionary
  3
BYBLOCK
350
45
  3
BYLAYER
350
44
  3
GLOBAL
350
46
  0
DICTIONARY
  5
6B
102
{ACAD_REACTORS
330
C
102
}
330
C
100
AcDbDictionary
  3
STANDARD
350
6C
  0
DICTIONARY
  5
17
102
{ACAD_REACTORS
330
C
102
}
330
C
100
AcDbDictionary
  3
STANDARD
350
18
  0
DICTIONARY
  5
19
102
{ACAD_REACTORS
330
C
102
}
330
C
100
AcDbDictionary
  0
DICTIONARY
  5
47
102
{ACAD_REACTORS
330
C
102
}
330
C
100
AcDbDictionary
  3
SCALE100_1
350
10000023
  3
SCALE10_1
350
1000001D
  3
SCALE12_1
350
1000001E
  3
SCALE16_1
350
1000001F
  3
SCALE1_1
350
10000006
  3
SCALE1_10
350
1000000D
  3
SCALE1_100
350
10000016
  3
SCALE1_12
350
1000000E
  3
SCALE1_16
350
1000000F
  3
SCALE1_2
350
10000007
  3
SCALE1_20
350
10000010
  3
SCALE1_25
350
10000011
  3
SCALE1_3
350
10000008
  3
SCALE1_32
350
10000012
  3
SCALE1_4
350
10000009
  3
SCALE1_40
350
10000013
  3
SCALE1_5
350
1000000A
  3
SCALE1_50
350
10000014
  3
SCALE1_6
350
1000000B
  3
SCALE1_8
350
1000000C
  3
SCALE1_80
350
10000015
  3
SCALE20_1
350
10000020
  3
SCALE2_1
350
10000017
  3
SCALE32_1
350
10000021
  3
SCALE3_1
350
10000018
  3
SCALE4_1
350
10000019
  3
SCALE50_1
350
10000022
  3
SCALE5_1
350
1000001A
  3
SCALE6_1
350
1000001B
  3
SCALE8_1
350
1000001C
  0
DICTIONARY
  5
2A
102
{ACAD_REACTORS
330
C
102
}
330
C
100
AcDbDictionary
  3
2DWIREFRAME
350
2F
  3
BASIC
350
32
  3
BRIGHTEN
350
36
  3
COLORCHANGE
350
3A
  3
CONCEPTUAL
350
34
  3
DIM
350
35
  3
EDGECOLOROFF
350
3D
  3
FACEPATTERN
350
39
  3
FLAT
350
2B
  3
FLATWITHEDGES
350
2C
  3
GOURAUD
350
2D
  3
GOURAUDWITHEDGES
350
2E
  3
HIDDEN
350
31
  3
JITTEROFF
350
3B
  3
LINEPATTERN
350
38
  3
OVERHANGOFF
350
3C
  3
REALISTIC
350
33
  3
SHADED
350
42
  3
SHADED_WITH_EDGES
350
41
  3
SHADES_OF_GRAY
350
3E
  3
SKETCHY
350
3F
  3
THICKEN
350
37
  3
WIREFRAME
350
30
  3
X-RAY
350
40
  0
DICTIONARY
  5
1000021A
102
{ACAD_REACTORS
330
C
102
}
330
C
100
AcDbDictionary
  3
CEPSNID
350
10000224
  3
CEPSNTYPE
350
10000223
  3
DIMSTYLEDATA
350
1000023A
  3
FINGERPRINTGUID
350
10000225
  3
HYPERLINKBASE
350
1000021D
  3
INSUNITS
350
10000222
  3
LAYOUTDICT
350
1000021F
  3
LWETCUNION
350
10000221
  3
PLOTSETDICT
350
10000220
  3
PSVPSCALE
350
10000227
  3
PUCSBASE
350
1000022A
  3
PUCSORGBACK
350
10000230
  3
PUCSORGBOTTOM
350
1000022C
  3
PUCSORGFRONT
350
1000022F
  3
PUCSORGLEFT
350
1000022D
  3
PUCSORGRIGHT
350
1000022E
  3
PUCSORGTOP
350
1000022B
  3
PUCSORTHOREF
350
10000228
  3
PUCSORTHOVIEW
350
10000229
  3
STYLESHEET
350
1000021E
  3
TSTACKALIGN
350
1000021B
  3
TSTACKSIZE
350
1000021C
  3
UCSBASE
350
10000233
  3
UCSORGBACK
350
10000239
  3
UCSORGBOTTOM
350
10000235
  3
UCSORGFRONT
350
10000238
  3
UCSORGLEFT
350
10000236
  3
UCSORGRIGHT
350
10000237
  3
UCSORGTOP
350
10000234
  3
UCSORTHOREF
350
10000231
  3
UCSORTHOVIEW
350
10000232
  3
VERSIONGUID
350
10000226
  0
DICTIONARY
  5
1000023B
102
{ACAD_REACTORS
330
C
102
}
330
C
100
AcDbDictionary
  3
CANNOSCALE
350
10000245
  3
CMLEADERSTYLE
350
1000023D
  3
CTABLESTYLE
350
1000023C
  3
DIMASSOC
350
10000240
  3
HIDETEXT
350
10000241
  3
MSLTSCALE
350
10000246
  0
XRECORD
  5
10000242
102
{ACAD_REACTORS
330
C
102
}
330
C
100
AcDbXrecord
  1
DWGPROPS COOKIE
  2

  3

  4

  6
File was created by BTDwgCreate
  7

  8

  9

300
=
301
=
302
=
303
=
304
=
305
=
306
=
307
=
308
=
309
=
 40
0.0
 41
2458630.9135361
 42
2458630.913536146
  1

 90
        0
  0
DICTIONARY
  5
10000001
102
{ACAD_REACTORS
330
C
102
}
330
C
100
AcDbDictionary
280
     1
  3
DIM_UNITS
360
10000003
  3
DWGGEN_VERSION
360
10000002
  3
FIRST_ANGLE
360
10000005
  0
XRECORD
  5
10000244
102
{ACAD_REACTORS
330
10000243
102
}
330
10000243
100
AcDbXrecord
102
VTR_0.000_0.000_1.000_1.000_VISUALSTYLE
340
2F
102
VTR_0.000_0.000_1.000_1.000_GRIDDISPLAY
 70
     3
102
VTR_0.000_0.000_1.000_1.000_GRIDMAJOR
 70
     5
102
VTR_0.000_0.000_1.000_1.000_DEFAULTLIGHTING
280
     1
102
VTR_0.000_0.000_1.000_1.000_DEFAULTLIGHTINGTYPE
 70
     1
102
VTR_0.000_0.000_1.000_1.000_BRIGHTNESS
141
0.0
102
VTR_0.000_0.000_1.000_1.000_CONTRAST
142
0.0
  0
SORTENTSTABLE
  5
10000219
102
{ACAD_REACTORS
330
10000218
102
}
330
10000218
100
AcDbSortentsTable
330
1F
  0
XRECORD
  5
1000004F
102
{ACAD_REACTORS
330
1000004E
102
}
330
1000004E
100
AcDbXrecord
1000
KFFC
  0
XRECORD
  5
10000052
102
{ACAD_REACTORS
330
10000051
102
}
330
10000051
100
AcDbXrecord
1000
KFtH
  0
XRECORD
  5
10000055
102
{ACAD_REACTORS
330
10000054
102
}
330
10000054
100
AcDbXrecord
1000
KFpH
  0
XRECORD
  5
10000058
102
{ACAD_REACTORS
330
10000057
102
}
330
10000057
100
AcDbXrecord
1000
KFlH
  0
XRECORD
  5
1000005B
102
{ACAD_REACTORS
330
1000005A
102
}
330
1000005A
100
AcDbXrecord
1000
KFhH
  0
XRECORD
  5
1000005E
102
{ACAD_REACTORS
330
1000005D
102
}
330
1000005D
100
AcDbXrecord
1000
KFVH
  0
XRECORD
  5
10000061
102
{ACAD_REACTORS
330
10000060
102
}
330
10000060
100
AcDbXrecord
1000
KFJH
  0
XRECORD
  5
10000064
102
{ACAD_REACTORS
330
10000063
102
}
330
10000063
100
AcDbXrecord
1000
KFBb
  0
XRECORD
  5
10000067
102
{ACAD_REACTORS
330
10000066
102
}
330
10000066
100
AcDbXrecord
1000
KFFH
  0
XRECORD
  5
1000006A
102
{ACAD_REACTORS
330
10000069
102
}
330
10000069
100
AcDbXrecord
1000
KFBH
  0
XRECORD
  5
1000006D
102
{ACAD_REACTORS
330
1000006C
102
}
330
1000006C
100
AcDbXrecord
1000
KFxG
  0
XRECORD
  5
10000070
102
{ACAD_REACTORS
330
1000006F
102
}
330
1000006F
100
AcDbXrecord
1000
KF1G
  0
XRECORD
  5
10000073
102
{ACAD_REACTORS
330
10000072
102
}
330
10000072
100
AcDbXrecord
1000
KFNb
  0
XRECORD
  5
10000076
102
{ACAD_REACTORS
330
10000075
102
}
330
10000075
100
AcDbXrecord
1000
KFtG
  0
XRECORD
  5
10000079
102
{ACAD_REACTORS
330
10000078
102
}
330
10000078
100
AcDbXrecord
1000
KFRb
  0
XRECORD
  5
1000007C
102
{ACAD_REACTORS
330
1000007B
102
}
330
1000007B
100
AcDbXrecord
1000
KFVb
  0
XRECORD
  5
1000007F
102
{ACAD_REACTORS
330
1000007E
102
}
330
1000007E
100
AcDbXrecord
1000
KFZG
  0
XRECORD
  5
10000082
102
{ACAD_REACTORS
330
10000081
102
}
330
10000081
100
AcDbXrecord
1000
KFhG
  0
XRECORD
  5
10000085
102
{ACAD_REACTORS
330
10000084
102
}
330
10000084
100
AcDbXrecord
1000
KFJG
  0
XRECORD
  5
10000088
102
{ACAD_REACTORS
330
10000087
102
}
330
10000087
100
AcDbXrecord
1000
KF5G
  0
XRECORD
  5
1000008B
102
{ACAD_REACTORS
330
1000008A
102
}
330
1000008A
100
AcDbXrecord
1000
KFFG
  0
XRECORD
  5
1000008E
102
{ACAD_REACTORS
330
1000008D
102
}
330
1000008D
100
AcDbXrecord
1000
KFBG
  0
XRECORD
  5
10000091
102
{ACAD_REACTORS
330
10000090
102
}
330
10000090
100
AcDbXrecord
1000
KFhb
  0
XRECORD
  5
10000094
102
{ACAD_REACTORS
330
10000093
102
}
330
10000093
100
AcDbXrecord
1000
KF5F
  0
XRECORD
  5
10000097
102
{ACAD_REACTORS
330
10000096
102
}
330
10000096
100
AcDbXrecord
1000
KF1F
  0
XRECORD
  5
1000009A
102
{ACAD_REACTORS
330
10000099
102
}
330
10000099
100
AcDbXrecord
1000
KFxF
  0
XRECORD
  5
1000009D
102
{ACAD_REACTORS
330
1000009C
102
}
330
1000009C
100
AcDbXrecord
1000
KFpF
  0
XRECORD
  5
100000A0
102
{ACAD_REACTORS
330
1000009F
102
}
330
1000009F
100
AcDbXrecord
1000
KFlF
  0
XRECORD
  5
100000A3
102
{ACAD_REACTORS
330
100000A2
102
}
330
100000A2
100
AcDbXrecord
1000
KFlb
  0
XRECORD
  5
100000A6
102
{ACAD_REACTORS
330
100000A5
102
}
330
100000A5
100
AcDbXrecord
1000
KFhF
  0
XRECORD
  5
100000A9
102
{ACAD_REACTORS
330
100000A8
102
}
330
100000A8
100
AcDbXrecord
1000
KFdF
  0
XRECORD
  5
100000AC
102
{ACAD_REACTORS
330
100000AB
102
}
330
100000AB
100
AcDbXrecord
1000
KFZF
  0
XRECORD
  5
100000AF
102
{ACAD_REACTORS
330
100000AE
102
}
330
100000AE
100
AcDbXrecord
1000
KFZb
  0
XRECORD
  5
100000B2
102
{ACAD_REACTORS
330
100000B1
102
}
330
100000B1
100
AcDbXrecord
1000
KFNF
  0
XRECORD
  5
100000B5
102
{ACAD_REACTORS
330
100000B4
102
}
330
100000B4
100
AcDbXrecord
1000
KFBF
  0
XRECORD
  5
100000B8
102
{ACAD_REACTORS
330
100000B7
102
}
330
100000B7
100
AcDbXrecord
1000
KF5E
  0
XRECORD
  5
100000BB
102
{ACAD_REACTORS
330
100000BA
102
}
330
100000BA
100
AcDbXrecord
1000
KFRG
  0
XRECORD
  5
100000BE
102
{ACAD_REACTORS
330
100000BD
102
}
330
100000BD
100
AcDbXrecord
1000
KF1E
  0
XRECORD
  5
100000C1
102
{ACAD_REACTORS
330
100000C0
102
}
330
100000C0
100
AcDbXrecord
1000
KFRH
  0
XRECORD
  5
100000C4
102
{ACAD_REACTORS
330
100000C3
102
}
330
100000C3
100
AcDbXrecord
1000
KFtE
  0
XRECORD
  5
100000C7
102
{ACAD_REACTORS
330
100000C6
102
}
330
100000C6
100
AcDbXrecord
1000
KFlE
  0
XRECORD
  5
100000CA
102
{ACAD_REACTORS
330
100000C9
102
}
330
100000C9
100
AcDbXrecord
1000
KFhE
  0
XRECORD
  5
100000CD
102
{ACAD_REACTORS
330
100000CC
102
}
330
100000CC
100
AcDbXrecord
1000
KFdE
  0
XRECORD
  5
100000D0
102
{ACAD_REACTORS
330
100000CF
102
}
330
100000CF
100
AcDbXrecord
1000
KFVF
  0
XRECORD
  5
100000D3
102
{ACAD_REACTORS
330
100000D2
102
}
330
100000D2
100
AcDbXrecord
1000
KFlP
  0
XRECORD
  5
100000D6
102
{ACAD_REACTORS
330
100000D5
102
}
330
100000D5
100
AcDbXrecord
1000
KFVE
  0
XRECORD
  5
100000D9
102
{ACAD_REACTORS
330
100000D8
102
}
330
100000D8
100
AcDbXrecord
1000
KFNE
  0
XRECORD
  5
100000DC
102
{ACAD_REACTORS
330
100000DB
102
}
330
100000DB
100
AcDbXrecord
1000
KFJE
  0
XRECORD
  5
100000DF
102
{ACAD_REACTORS
330
100000DE
102
}
330
100000DE
100
AcDbXrecord
1000
KFFE
  0
XRECORD
  5
100000E2
102
{ACAD_REACTORS
330
100000E1
102
}
330
100000E1
100
AcDbXrecord
1000
KFxB
  0
XRECORD
  5
100000E5
102
{ACAD_REACTORS
330
100000E4
102
}
330
100000E4
100
AcDbXrecord
1000
KFRF
  0
XRECORD
  5
100000E8
102
{ACAD_REACTORS
330
100000E7
102
}
330
100000E7
100
AcDbXrecord
1000
KFRC
  0
XRECORD
  5
100000EB
102
{ACAD_REACTORS
330
100000EA
102
}
330
100000EA
100
AcDbXrecord
1000
KFpB
  0
XRECORD
  5
100000EE
102
{ACAD_REACTORS
330
100000ED
102
}
330
100000ED
100
AcDbXrecord
1000
KFdc
  0
XRECORD
  5
100000F1
102
{ACAD_REACTORS
330
100000F0
102
}
330
100000F0
100
AcDbXrecord
1000
KFNB
  0
XRECORD
  5
100000F4
102
{ACAD_REACTORS
330
100000F3
102
}
330
100000F3
100
AcDbXrecord
1000
KFFc
  0
XRECORD
  5
100000F7
102
{ACAD_REACTORS
330
100000F6
102
}
330
100000F6
100
AcDbXrecord
1000
KFtD
  0
XRECORD
  5
100000FA
102
{ACAD_REACTORS
330
100000F9
102
}
330
100000F9
100
AcDbXrecord
1000
KFBB
  0
XRECORD
  5
100000FD
102
{ACAD_REACTORS
330
100000FC
102
}
330
100000FC
100
AcDbXrecord
1000
KFNH
  0
XRECORD
  5
10000100
102
{ACAD_REACTORS
330
100000FF
102
}
330
100000FF
100
AcDbXrecord
1000
KF1B
  0
XRECORD
  5
10000103
102
{ACAD_REACTORS
330
10000102
102
}
330
10000102
100
AcDbXrecord
1000
KFNG
  0
XRECORD
  5
10000106
102
{ACAD_REACTORS
330
10000105
102
}
330
10000105
100
AcDbXrecord
1000
KFdC
  0
XRECORD
  5
10000109
102
{ACAD_REACTORS
330
10000108
102
}
330
10000108
100
AcDbXrecord
1000
KFZE
  0
XRECORD
  5
1000010C
102
{ACAD_REACTORS
330
1000010B
102
}
330
1000010B
100
AcDbXrecord
1000
KFZD
  0
XRECORD
  5
1000010F
102
{ACAD_REACTORS
330
1000010E
102
}
330
1000010E
100
AcDbXrecord
1000
KFxE
  0
XRECORD
  5
10000112
102
{ACAD_REACTORS
330
10000111
102
}
330
10000111
100
AcDbXrecord
1000
JF9
  0
XRECORD
  5
10000115
102
{ACAD_REACTORS
330
10000114
102
}
330
10000114
100
AcDbXrecord
1000
JF5
  0
XRECORD
  5
10000118
102
{ACAD_REACTORS
330
10000117
102
}
330
10000117
100
AcDbXrecord
1000
KFlc
  0
XRECORD
  5
1000011B
102
{ACAD_REACTORS
330
1000011A
102
}
330
1000011A
100
AcDbXrecord
1000
KFlG
  0
XRECORD
  5
1000011E
102
{ACAD_REACTORS
330
1000011D
102
}
330
1000011D
100
AcDbXrecord
1000
JFZ
  0
XRECORD
  5
10000121
102
{ACAD_REACTORS
330
10000120
102
}
330
10000120
100
AcDbXrecord
1000
JFt
  0
XRECORD
  5
10000124
102
{ACAD_REACTORS
330
10000123
102
}
330
10000123
100
AcDbXrecord
1000
KFZB
  0
XRECORD
  5
10000127
102
{ACAD_REACTORS
330
10000126
102
}
330
10000126
100
AcDbXrecord
1000
KFlB
  0
XRECORD
  5
1000012A
102
{ACAD_REACTORS
330
10000129
102
}
330
10000129
100
AcDbXrecord
1000
JFB
  0
XRECORD
  5
1000012D
102
{ACAD_REACTORS
330
1000012C
102
}
330
1000012C
100
AcDbXrecord
1000
KFRE
  0
XRECORD
  5
10000130
102
{ACAD_REACTORS
330
1000012F
102
}
330
1000012F
100
AcDbXrecord
1000
JFl
  0
XRECORD
  5
10000133
102
{ACAD_REACTORS
330
10000132
102
}
330
10000132
100
AcDbXrecord
1000
JFN
  0
XRECORD
  5
10000136
102
{ACAD_REACTORS
330
10000135
102
}
330
10000135
100
AcDbXrecord
1000
KFBE
  0
XRECORD
  5
10000139
102
{ACAD_REACTORS
330
10000138
102
}
330
10000138
100
AcDbXrecord
1000
KFVY
  0
XRECORD
  5
1000013C
102
{ACAD_REACTORS
330
1000013B
102
}
330
1000013B
100
AcDbXrecord
1000
KFJB
  0
XRECORD
  5
1000013F
102
{ACAD_REACTORS
330
1000013E
102
}
330
1000013E
100
AcDbXrecord
1000
KFFD
  0
XRECORD
  5
10000142
102
{ACAD_REACTORS
330
10000141
102
}
330
10000141
100
AcDbXrecord
1000
KF1H
  0
XRECORD
  5
10000145
102
{ACAD_REACTORS
330
10000144
102
}
330
10000144
100
AcDbXrecord
1000
JFp
  0
XRECORD
  5
10000148
102
{ACAD_REACTORS
330
10000147
102
}
330
10000147
100
AcDbXrecord
1000
KFxb
  0
XRECORD
  5
1000014B
102
{ACAD_REACTORS
330
1000014A
102
}
330
1000014A
100
AcDbXrecord
1000
KF5C
  0
XRECORD
  5
1000014E
102
{ACAD_REACTORS
330
1000014D
102
}
330
1000014D
100
AcDbXrecord
1000
JFh
  0
XRECORD
  5
10000151
102
{ACAD_REACTORS
330
10000150
102
}
330
10000150
100
AcDbXrecord
1000
KFhc
  0
XRECORD
  5
10000154
102
{ACAD_REACTORS
330
10000153
102
}
330
10000153
100
AcDbXrecord
1000
KFhB
  0
XRECORD
  5
10000157
102
{ACAD_REACTORS
330
10000156
102
}
330
10000156
100
AcDbXrecord
1000
KFZc
  0
XRECORD
  5
1000015A
102
{ACAD_REACTORS
330
10000159
102
}
330
10000159
100
AcDbXrecord
1000
JFV
  0
XRECORD
  5
1000015D
102
{ACAD_REACTORS
330
1000015C
102
}
330
1000015C
100
AcDbXrecord
1000
KFlC
  0
XRECORD
  5
10000160
102
{ACAD_REACTORS
330
1000015F
102
}
330
1000015F
100
AcDbXrecord
1000
JFJ
  0
XRECORD
  5
10000163
102
{ACAD_REACTORS
330
10000162
102
}
330
10000162
100
AcDbXrecord
1000
JFR
  0
XRECORD
  5
10000166
102
{ACAD_REACTORS
330
10000165
102
}
330
10000165
100
AcDbXrecord
1000
KFFB
  0
XRECORD
  5
10000169
102
{ACAD_REACTORS
330
10000168
102
}
330
10000168
100
AcDbXrecord
1000
KFRc
  0
XRECORD
  5
1000016C
102
{ACAD_REACTORS
330
1000016B
102
}
330
1000016B
100
AcDbXrecord
1000
KFVG
  0
XRECORD
  5
1000016F
102
{ACAD_REACTORS
330
1000016E
102
}
330
1000016E
100
AcDbXrecord
1000
KF9C
  0
XRECORD
  5
10000172
102
{ACAD_REACTORS
330
10000171
102
}
330
10000171
100
AcDbXrecord
1000
KFlD
  0
XRECORD
  5
10000175
102
{ACAD_REACTORS
330
10000174
102
}
330
10000174
100
AcDbXrecord
1000
JFd
  0
XRECORD
  5
10000178
102
{ACAD_REACTORS
330
10000177
102
}
330
10000177
100
AcDbXrecord
1000
KFVK
  0
XRECORD
  5
1000017B
102
{ACAD_REACTORS
330
1000017A
102
}
330
1000017A
100
AcDbXrecord
1000
KFpb
  0
XRECORD
  5
1000017E
102
{ACAD_REACTORS
330
1000017D
102
}
330
1000017D
100
AcDbXrecord
1000
KFdD
  0
XRECORD
  5
10000181
102
{ACAD_REACTORS
330
10000180
102
}
330
10000180
100
AcDbXrecord
1000
KFxH
  0
XRECORD
  5
10000184
102
{ACAD_REACTORS
330
10000183
102
}
330
10000183
100
AcDbXrecord
1000
JF1
  0
XRECORD
  5
10000187
102
{ACAD_REACTORS
330
10000186
102
}
330
10000186
100
AcDbXrecord
1000
KF5B
  0
XRECORD
  5
1000018A
102
{ACAD_REACTORS
330
10000189
102
}
330
10000189
100
AcDbXrecord
1000
KF1b
  0
XRECORD
  5
1000018D
102
{ACAD_REACTORS
330
1000018C
102
}
330
1000018C
100
AcDbXrecord
1000
KF9B
  0
XRECORD
  5
10000190
102
{ACAD_REACTORS
330
1000018F
102
}
330
1000018F
100
AcDbXrecord
1000
KFJb
  0
XRECORD
  5
10000193
102
{ACAD_REACTORS
330
10000192
102
}
330
10000192
100
AcDbXrecord
1000
KF9D
  0
XRECORD
  5
10000196
102
{ACAD_REACTORS
330
10000195
102
}
330
10000195
100
AcDbXrecord
1000
KFdB
  0
XRECORD
  5
10000199
102
{ACAD_REACTORS
330
10000198
102
}
330
10000198
100
AcDbXrecord
1000
KFBC
  0
XRECORD
  5
1000019C
102
{ACAD_REACTORS
330
1000019B
102
}
330
1000019B
100
AcDbXrecord
1000
KFVc
  0
XRECORD
  5
1000019F
102
{ACAD_REACTORS
330
1000019E
102
}
330
1000019E
100
AcDbXrecord
1000
KFRB
  0
XRECORD
  5
100001A2
102
{ACAD_REACTORS
330
100001A1
102
}
330
100001A1
100
AcDbXrecord
1000
KFJC
  0
XRECORD
  5
100001A5
102
{ACAD_REACTORS
330
100001A4
102
}
330
100001A4
100
AcDbXrecord
1000
KFdH
  0
XRECORD
  5
100001A8
102
{ACAD_REACTORS
330
100001A7
102
}
330
100001A7
100
AcDbXrecord
1000
KFpE
  0
XRECORD
  5
100001AB
102
{ACAD_REACTORS
330
100001AA
102
}
330
100001AA
100
AcDbXrecord
1000
KFtC
  0
XRECORD
  5
100001AE
102
{ACAD_REACTORS
330
100001AD
102
}
330
100001AD
100
AcDbXrecord
1000
KFNC
  0
XRECORD
  5
100001B1
102
{ACAD_REACTORS
330
100001B0
102
}
330
100001B0
100
AcDbXrecord
1000
KF9F
  0
XRECORD
  5
100001B4
102
{ACAD_REACTORS
330
100001B3
102
}
330
100001B3
100
AcDbXrecord
1000
KFNc
  0
XRECORD
  5
100001B7
102
{ACAD_REACTORS
330
100001B6
102
}
330
100001B6
100
AcDbXrecord
1000
KFFF
  0
XRECORD
  5
100001BA
102
{ACAD_REACTORS
330
100001B9
102
}
330
100001B9
100
AcDbXrecord
1000
KF1D
  0
XRECORD
  5
100001BD
102
{ACAD_REACTORS
330
100001BC
102
}
330
100001BC
100
AcDbXrecord
1000
KFVC
  0
XRECORD
  5
100001C0
102
{ACAD_REACTORS
330
100001BF
102
}
330
100001BF
100
AcDbXrecord
1000
KF9E
  0
XRECORD
  5
100001C3
102
{ACAD_REACTORS
330
100001C2
102
}
330
100001C2
100
AcDbXrecord
1000
KFVB
  0
XRECORD
  5
100001C6
102
{ACAD_REACTORS
330
100001C5
102
}
330
100001C5
100
AcDbXrecord
1000
KFxC
  0
XRECORD
  5
100001C9
102
{ACAD_REACTORS
330
100001C8
102
}
330
100001C8
100
AcDbXrecord
1000
KF9G
  0
XRECORD
  5
100001CC
102
{ACAD_REACTORS
330
100001CB
102
}
330
100001CB
100
AcDbXrecord
1000
KFtb
  0
XRECORD
  5
100001CF
102
{ACAD_REACTORS
330
100001CE
102
}
330
100001CE
100
AcDbXrecord
1000
KFJc
  0
XRECORD
  5
100001D2
102
{ACAD_REACTORS
330
100001D1
102
}
330
100001D1
100
AcDbXrecord
1000
JFx
  0
XRECORD
  5
100001D5
102
{ACAD_REACTORS
330
100001D4
102
}
330
100001D4
100
AcDbXrecord
1000
KFZC
  0
XRECORD
  5
100001D8
102
{ACAD_REACTORS
330
100001D7
102
}
330
100001D7
100
AcDbXrecord
1000
JFF
  0
XRECORD
  5
100001DB
102
{ACAD_REACTORS
330
100001DA
102
}
330
100001DA
100
AcDbXrecord
1000
KFhC
  0
XRECORD
  5
100001DE
102
{ACAD_REACTORS
330
100001DD
102
}
330
100001DD
100
AcDbXrecord
1000
KFZH
  0
XRECORD
  5
100001E1
102
{ACAD_REACTORS
330
100001E0
102
}
330
100001E0
100
AcDbXrecord
1000
KFpC
  0
XRECORD
  5
100001E4
102
{ACAD_REACTORS
330
100001E3
102
}
330
100001E3
100
AcDbXrecord
1000
KFBc
  0
XRECORD
  5
100001E7
102
{ACAD_REACTORS
330
100001E6
102
}
330
100001E6
100
AcDbXrecord
1000
KFpG
  0
XRECORD
  5
100001EA
102
{ACAD_REACTORS
330
100001E9
102
}
330
100001E9
100
AcDbXrecord
1000
KF1C
  0
XRECORD
  5
100001ED
102
{ACAD_REACTORS
330
100001EC
102
}
330
100001EC
100
AcDbXrecord
1000
KFtF
  0
XRECORD
  5
100001F0
102
{ACAD_REACTORS
330
100001EF
102
}
330
100001EF
100
AcDbXrecord
1000
KF5b
  0
XRECORD
  5
100001F3
102
{ACAD_REACTORS
330
100001F2
102
}
330
100001F2
100
AcDbXrecord
1000
KFBD
  0
XRECORD
  5
100001F6
102
{ACAD_REACTORS
330
100001F5
102
}
330
100001F5
100
AcDbXrecord
1000
KFJF
  0
XRECORD
  5
100001F9
102
{ACAD_REACTORS
330
100001F8
102
}
330
100001F8
100
AcDbXrecord
1000
KFJD
  0
XRECORD
  5
100001FC
102
{ACAD_REACTORS
330
100001FB
102
}
330
100001FB
100
AcDbXrecord
1000
KFdG
  0
XRECORD
  5
100001FF
102
{ACAD_REACTORS
330
100001FE
102
}
330
100001FE
100
AcDbXrecord
1000
KFND
  0
XRECORD
  5
10000202
102
{ACAD_REACTORS
330
10000201
102
}
330
10000201
100
AcDbXrecord
1000
KFlW
  0
XRECORD
  5
10000205
102
{ACAD_REACTORS
330
10000204
102
}
330
10000204
100
AcDbXrecord
1000
KFRD
  0
XRECORD
  5
10000208
102
{ACAD_REACTORS
330
10000207
102
}
330
10000207
100
AcDbXrecord
1000
KFVD
  0
XRECORD
  5
1000020B
102
{ACAD_REACTORS
330
1000020A
102
}
330
1000020A
100
AcDbXrecord
1000
KFhD
  0
XRECORD
  5
1000020E
102
{ACAD_REACTORS
330
1000020D
102
}
330
1000020D
100
AcDbXrecord
1000
KFpD
  0
XRECORD
  5
10000211
102
{ACAD_REACTORS
330
10000210
102
}
330
10000210
100
AcDbXrecord
1000
KFxD
  0
XRECORD
  5
10000214
102
{ACAD_REACTORS
330
10000213
102
}
330
10000213
100
AcDbXrecord
1000
KFtB
  0
XRECORD
  5
10000217
102
{ACAD_REACTORS
330
10000216
102
}
330
10000216
100
AcDbXrecord
1000
KF5D
  0
MATERIAL
  5
45
102
{ACAD_REACTORS
330
43
102
}
102
{ACAD_XDICTIONARY
360
10000249
102
}
330
43
100
AcDbMaterial
  1
BYBLOCK
  0
MATERIAL
  5
44
102
{ACAD_REACTORS
330
43
102
}
102
{ACAD_XDICTIONARY
360
10000247
102
}
330
43
100
AcDbMaterial
  1
BYLAYER
  0
MATERIAL
  5
46
102
{ACAD_REACTORS
330
43
102
}
102
{ACAD_XDICTIONARY
360
1000024B
102
}
330
43
100
AcDbMaterial
  1
GLOBAL
  0
ACAD_PROXY_OBJECT
  5
6C
102
{ACAD_REACTORS
330
6B
102
}
330
6B
100
AcDbProxyObject
 90
      499
 91
      505
 93
      610
310
40901902A4063FBFFFFFE056BD1B81E855B9FC0AD7A3703D0AD73F4214DD185B99185C9900AD7A3703D0AC73F90141901A02B5E8DC0F42B1CFC02B5E8DC0F42B1CFE5764000000000000300FC0
340
14
340
0
340
11
340
0
 94
        0
1001
ACAD_MLEADERVER
1070
     2
  0
MLINESTYLE
  5
18
102
{ACAD_REACTORS
330
17
102
}
330
17
100
AcDbMlineStyle
  2
Standard
 70
     0
  3

 62
   256
 51
90.0
 52
90.0
 71
     2
 49
0.5
 62
   256
  6
BYLAYER
 49
-0.5
 62
   256
  6
BYLAYER
  0
ACAD_PROXY_OBJECT
  5
10000023
102
{ACAD_REACTORS
330
47
102
}
330
47
100
AcDbProxyObject
 90
      499
 91
      503
 93
      121
310
9053130303A310000000000001650100
  0
ACAD_PROXY_OBJECT
  5
1000001D
102
{ACAD_REACTORS
330
47
102
}
330
47
100
AcDbProxyObject
 90
      499
 91
      503
 93
      113
310
90431303A310000000000000910100
  0
ACAD_PROXY_OBJECT
  5
1000001E
102
{ACAD_REACTORS
330
47
102
}
330
47
100
AcDbProxyObject
 90
      499
 91
      503
 93
      113
310
90431323A310000000000000A10100
  0
ACAD_PROXY_OBJECT
  5
1000001F
102
{ACAD_REACTORS
330
47
102
}
330
47
100
AcDbProxyObject
 90
      499
 91
      503
 93
      113
310
90431363A310000000000000C10100
  0
ACAD_PROXY_OBJECT
  5
10000006
102
{ACAD_REACTORS
330
47
102
}
330
47
100
AcDbProxyObject
 90
      499
 91
      503
 93
       41
310
903313A31500
  0
ACAD_PROXY_OBJECT
  5
1000000D
102
{ACAD_REACTORS
330
47
102
}
330
47
100
AcDbProxyObject
 90
      499
 91
      503
 93
      113
310
904313A31304000000000000244000
  0
ACAD_PROXY_OBJECT
  5
10000016
102
{ACAD_REACTORS
330
47
102
}
330
47
100
AcDbProxyObject
 90
      499
 91
      503
 93
      121
310
905313A3130304000000000000594000
  0
ACAD_PROXY_OBJECT
  5
1000000E
102
{ACAD_REACTORS
330
47
102
}
330
47
100
AcDbProxyObject
 90
      499
 91
      503
 93
      113
310
904313A31324000000000000284000
  0
ACAD_PROXY_OBJECT
  5
1000000F
102
{ACAD_REACTORS
330
47
102
}
330
47
100
AcDbProxyObject
 90
      499
 91
      503
 93
      113
310
904313A31364000000000000304000
  0
ACAD_PROXY_OBJECT
  5
10000007
102
{ACAD_REACTORS
330
47
102
}
330
47
100
AcDbProxyObject
 90
      499
 91
      503
 93
      105
310
903313A324000000000000004000
  0
ACAD_PROXY_OBJECT
  5
10000010
102
{ACAD_REACTORS
330
47
102
}
330
47
100
AcDbProxyObject
 90
      499
 91
      503
 93
      113
310
904313A32304000000000000344000
  0
ACAD_PROXY_OBJECT
  5
10000011
102
{ACAD_REACTORS
330
47
102
}
330
47
100
AcDbProxyObject
 90
      499
 91
      503
 93
      113
310
904313A32354000000000000394000
  0
ACAD_PROXY_OBJECT
  5
10000008
102
{ACAD_REACTORS
330
47
102
}
330
47
100
AcDbProxyObject
 90
      499
 91
      503
 93
      105
310
903313A334000000000000084000
  0
ACAD_PROXY_OBJECT
  5
10000012
102
{ACAD_REACTORS
330
47
102
}
330
47
100
AcDbProxyObject
 90
      499
 91
      503
 93
      113
310
904313A33324000000000000404000
  0
ACAD_PROXY_OBJECT
  5
10000009
102
{ACAD_REACTORS
330
47
102
}
330
47
100
AcDbProxyObject
 90
      499
 91
      503
 93
      105
310
903313A344000000000000104000
  0
ACAD_PROXY_OBJECT
  5
10000013
102
{ACAD_REACTORS
330
47
102
}
330
47
100
AcDbProxyObject
 90
      499
 91
      503
 93
      113
310
904313A34304000000000000444000
  0
ACAD_PROXY_OBJECT
  5
1000000A
102
{ACAD_REACTORS
330
47
102
}
330
47
100
AcDbProxyObject
 90
      499
 91
      503
 93
      105
310
903313A354000000000000144000
  0
ACAD_PROXY_OBJECT
  5
10000014
102
{ACAD_REACTORS
330
47
102
}
330
47
100
AcDbProxyObject
 90
      499
 91
      503
 93
      113
310
904313A35304000000000000494000
  0
ACAD_PROXY_OBJECT
  5
1000000B
102
{ACAD_REACTORS
330
47
102
}
330
47
100
AcDbProxyObject
 90
      499
 91
      503
 93
      105
310
903313A364000000000000184000
  0
ACAD_PROXY_OBJECT
  5
1000000C
102
{ACAD_REACTORS
330
47
102
}
330
47
100
AcDbProxyObject
 90
      499
 91
      503
 93
      105
310
903313A384000000000000204000
  0
ACAD_PROXY_OBJECT
  5
10000015
102
{ACAD_REACTORS
330
47
102
}
330
47
100
AcDbProxyObject
 90
      499
 91
      503
 93
      113
310
904313A38304000000000000544000
  0
ACAD_PROXY_OBJECT
  5
10000020
102
{ACAD_REACTORS
330
47
102
}
330
47
100
AcDbProxyObject
 90
      499
 91
      503
 93
      113
310
90432303A310000000000000D10100
  0
ACAD_PROXY_OBJECT
  5
10000017
102
{ACAD_REACTORS
330
47
102
}
330
47
100
AcDbProxyObject
 90
      499
 91
      503
 93
      105
310
903323A310000000000000010100
  0
ACAD_PROXY_OBJECT
  5
10000021
102
{ACAD_REACTORS
330
47
102
}
330
47
100
AcDbProxyObject
 90
      499
 91
      503
 93
      113
310
90433323A310000000000001010100
  0
ACAD_PROXY_OBJECT
  5
10000018
102
{ACAD_REACTORS
330
47
102
}
330
47
100
AcDbProxyObject
 90
      499
 91
      503
 93
      105
310
903333A310000000000000210100
  0
ACAD_PROXY_OBJECT
  5
10000019
102
{ACAD_REACTORS
330
47
102
}
330
47
100
AcDbProxyObject
 90
      499
 91
      503
 93
      105
310
903343A310000000000000410100
  0
ACAD_PROXY_OBJECT
  5
10000022
102
{ACAD_REACTORS
330
47
102
}
330
47
100
AcDbProxyObject
 90
      499
 91
      503
 93
      113
310
90435303A310000000000001250100
  0
ACAD_PROXY_OBJECT
  5
1000001A
102
{ACAD_REACTORS
330
47
102
}
330
47
100
AcDbProxyObject
 90
      499
 91
      503
 93
      105
310
903353A310000000000000510100
  0
ACAD_PROXY_OBJECT
  5
1000001B
102
{ACAD_REACTORS
330
47
102
}
330
47
100
AcDbProxyObject
 90
      499
 91
      503
 93
      105
310
903363A310000000000000610100
  0
ACAD_PROXY_OBJECT
  5
1000001C
102
{ACAD_REACTORS
330
47
102
}
330
47
100
AcDbProxyObject
 90
      499
 91
      503
 93
      105
310
903383A310000000000000810100
  0
ACAD_PROXY_OBJECT
  5
2F
102
{ACAD_REACTORS
330
2A
102
}
330
2A
100
AcDbProxyObject
 90
      499
 91
      501
 93
      436
310
42CC9915DA5C99599C985B595049028333333333333E33F0000000000000F90107901411070040501600405405064090741402480A0340
1001
ACAD
1000
AcDbSavedByObjectVersion
1070
     0
  0
ACAD_PROXY_OBJECT
  5
32
102
{ACAD_REACTORS
330
2A
102
}
330
2A
100
AcDbProxyObject
 90
      499
 91
      501
 93
      388
310
4150985CDA58D07406404333333333333E33F0000000000000F90107A41107004050150841D405064090741402480A0350
1001
ACAD
1000
AcDbSavedByObjectVersion
1070
     0
  0
ACAD_PROXY_OBJECT
  5
36
102
{ACAD_REACTORS
330
2A
102
}
330
2A
100
AcDbProxyObject
 90
      499
 91
      501
 93
      428
310
42109C9A59DA1D195B90C409028333333333333E33F0000000000000F9010790141107004050150841D405064090741402480A029950
1001
ACAD
1000
AcDbSavedByObjectVersion
1070
     0
  0
ACAD_PROXY_OBJECT
  5
3A
102
{ACAD_REACTORS
330
2A
102
}
330
2A
100
AcDbProxyObject
 90
      499
 91
      501
 93
      452
310
42D0DBDB1BDC90DA185B99D95104090240C333333333333E33F0000000000000F90108901411070040501508421405064090741402480A0350
1001
ACAD
1000
AcDbSavedByObjectVersion
1070
     0
  0
ACAD_PROXY_OBJECT
  5
34
102
{ACAD_REACTORS
330
2A
102
}
330
2A
100
AcDbProxyObject
 90
      499
 91
      501
 93
      500
310
4290DBDB98D95C1D1D585B10940D028333333333333E33F0000000000000F90107902409070040501000000000018199010841D405064090740C02480A0340
1001
ACAD
1000
AcDbSavedByObjectVersion
1070
     0
  0
ACAD_PROXY_OBJECT
  5
35
102
{ACAD_REACTORS
330
2A
102
}
330
2A
100
AcDbProxyObject
 90
      499
 91
      501
 93
      412
310
40D11A5B50B409028333333333333E33F0000000000000F9010790141107004050150841D405064090741402480A02677FFFFFD0
1001
ACAD
1000
AcDbSavedByObjectVersion
1070
     0
  0
ACAD_PROXY_OBJECT
  5
3D
102
{ACAD_REACTORS
330
2A
102
}
330
2A
100
AcDbProxyObject
 90
      499
 91
      501
 93
      452
310
43115919D950DBDB1BDC93D999916409028333333333333E33F0000000000000F9010790141107004050150841D405064090741402480A0350
1001
ACAD
1000
AcDbSavedByObjectVersion
1070
     0
  0
ACAD_PROXY_OBJECT
  5
39
102
{ACAD_REACTORS
330
2A
102
}
330
2A
100
AcDbProxyObject
 90
      499
 91
      501
 93
      444
310
42D19858D95C185D1D195C9B90F409028333333333333E33F0000000000000F9010790141107004050150841D405064090741402480A0350
1001
ACAD
1000
AcDbSavedByObjectVersion
1070
     0
  0
ACAD_PROXY_OBJECT
  5
2B
102
{ACAD_REACTORS
330
2A
102
}
330
2A
100
AcDbProxyObject
 90
      499
 91
      501
 93
      380
310
41119B185D240901404333333333333E33F0000000000000F9010740A907004050150841D405064090741402480A1B50
1001
ACAD
1000
AcDbSavedByObjectVersion
1070
     0
  0
ACAD_PROXY_OBJECT
  5
2C
102
{ACAD_REACTORS
330
2A
102
}
330
2A
100
AcDbProxyObject
 90
      499
 91
      501
 93
      468
310
43519B185D15DA5D1A115919D95CD0140901404333333333333E33F0000000000000F90107409019070040501600405405064090741402480A1B50
1001
ACAD
1000
AcDbSavedByObjectVersion
1070
     0
  0
ACAD_PROXY_OBJECT
  5
2D
102
{ACAD_REACTORS
330
2A
102
}
330
2A
100
AcDbProxyObject
 90
      499
 91
      501
 93
      404
310
41D1DBDD5C985D5910240902404333333333333E33F0000000000000F9010740A9070040501641D405064090741402480A1B50
1001
ACAD
1000
AcDbSavedByObjectVersion
1070
     0
  0
ACAD_PROXY_OBJECT
  5
2E
102
{ACAD_REACTORS
330
2A
102
}
330
2A
100
AcDbProxyObject
 90
      499
 91
      501
 93
      492
310
4411DBDD5C985D5915DA5D1A115919D95CD0340902404333333333333E33F0000000000000F90107409019070040501600405405064090741402480A1B50
1001
ACAD
1000
AcDbSavedByObjectVersion
1070
     0
  0
ACAD_PROXY_OBJECT
  5
31
102
{ACAD_REACTORS
330
2A
102
}
330
2A
100
AcDbProxyObject
 90
      499
 91
      501
 93
      476
310
41921A5919195B90640502408333333333333E33F0000000000000F901079024090700405020000000000001110200405405064090740C02480A0340
1001
ACAD
1000
AcDbSavedByObjectVersion
1070
     0
  0
ACAD_PROXY_OBJECT
  5
3B
102
{ACAD_REACTORS
330
2A
102
}
330
2A
100
AcDbProxyObject
 90
      499
 91
      501
 93
      428
310
42529A5D1D195C93D999914409028333333333333E33F0000000000000F9010790141107004050150A41D405064090741402480A0350
1001
ACAD
1000
AcDbSavedByObjectVersion
1070
     0
  0
ACAD_PROXY_OBJECT
  5
38
102
{ACAD_REACTORS
330
2A
102
}
330
2A
100
AcDbProxyObject
 90
      499
 91
      501
 93
      444
310
42D31A5B995C185D1D195C9B90E409028333333333333E33F0000000000000F9010790141107004050750841D405064090741402483A0350
1001
ACAD
1000
AcDbSavedByObjectVersion
1070
     0
  0
ACAD_PROXY_OBJECT
  5
3C
102
{ACAD_REACTORS
330
2A
102
}
330
2A
100
AcDbProxyObject
 90
      499
 91
      501
 93
      444
310
42D3DD995C9A185B99D3D999915409028333333333333E33F0000000000000F9010790141107004050150941D405064090741402480A0350
1001
ACAD
1000
AcDbSavedByObjectVersion
1070
     0
  0
ACAD_PROXY_OBJECT
  5
33
102
{ACAD_REACTORS
330
2A
102
}
330
2A
100
AcDbProxyObject
 90
      499
 91
      501
 93
      428
310
425499585B1A5CDD1A58D08409038333333333333E33F0000000000000F9010740A907004050150800405405064090740C02480A1B40
1001
ACAD
1000
AcDbSavedByObjectVersion
1070
     0
  0
ACAD_PROXY_OBJECT
  5
42
102
{ACAD_REACTORS
330
2A
102
}
330
2A
100
AcDbProxyObject
 90
      499
 91
      501
 93
      420
310
4194DA1859195911B40902404333333333333E33F0000000000000F9010740A41107004050150800405405064090840C02480A0B40
1001
ACAD
1000
AcDbSavedByObjectVersion
1070
     0
  0
ACAD_PROXY_OBJECT
  5
41
102
{ACAD_REACTORS
330
2A
102
}
330
2A
100
AcDbProxyObject
 90
      499
 91
      501
 93
      516
310
4454DA18591959081DDA5D1A08195919D95CD1A40902404333333333333E33F0000000000000F901074090142907004050250800405405064090740C02480A0B40
1001
ACAD
1000
AcDbSavedByObjectVersion
1070
     0
  0
ACAD_PROXY_OBJECT
  5
3E
102
{ACAD_REACTORS
330
2A
102
}
330
2A
100
AcDbProxyObject
 90
      499
 91
      501
 93
      532
310
4394DA1859195CC81BD98811DC985E5174090240C333333333333E33F0000000000000F901079024090741D01000000000000111010841D405064090740C02480A0340
1001
ACAD
1000
AcDbSavedByObjectVersion
1070
     0
  0
ACAD_PROXY_OBJECT
  5
3F
102
{ACAD_REACTORS
330
2A
102
}
330
2A
100
AcDbProxyObject
 90
      499
 91
      501
 93
      476
310
41D4DAD95D18DA1E51840502408333333333333E33F0000000000000F901079024090741D01000000000000111010B41D405064090741802480A0340
1001
ACAD
1000
AcDbSavedByObjectVersion
1070
     0
  0
ACAD_PROXY_OBJECT
  5
37
102
{ACAD_REACTORS
330
2A
102
}
330
2A
100
AcDbProxyObject
 90
      499
 91
      501
 93
      412
310
41D51A1A58DAD95B90D409028333333333333E33F0000000000000F9010790141107004050150C41D405064090741402480A0350
1001
ACAD
1000
AcDbSavedByObjectVersion
1070
     0
  0
ACAD_PROXY_OBJECT
  5
30
102
{ACAD_REACTORS
330
2A
102
}
330
2A
100
AcDbProxyObject
 90
      499
 91
      501
 93
      420
310
4255DA5C99599C985B595059028333333333333E33F0000000000000F90107901411070040501600405405064090740C02480A0340
1001
ACAD
1000
AcDbSavedByObjectVersion
1070
     0
  0
ACAD_PROXY_OBJECT
  5
40
102
{ACAD_REACTORS
330
2A
102
}
330
2A
100
AcDbProxyObject
 90
      499
 91
      501
 93
      404
310
41560B54985E51940902404000000000000E03F0000000000000F9010740501907004050150841D405064090740C02480A1B40
1001
ACAD
1000
AcDbSavedByObjectVersion
1070
     0
  0
XRECORD
  5
10000224
102
{ACAD_REACTORS
330
1000021A
102
}
330
1000021A
100
AcDbXrecord
340
0
  0
XRECORD
  5
10000223
102
{ACAD_REACTORS
330
1000021A
102
}
330
1000021A
100
AcDbXrecord
 90
        0
  0
XRECORD
  5
1000023A
102
{ACAD_REACTORS
330
1000021A
102
}
330
1000021A
100
AcDbXrecord
1000
DSTYLE
1002
{
1070
   143
 40
0.0393700787401575
1070
   340
340
11
1002
}
  0
XRECORD
  5
10000225
102
{ACAD_REACTORS
330
1000021A
102
}
330
1000021A
100
AcDbXrecord
  1
{39747376-3263-7878-f472-663975617631}
  0
XRECORD
  5
1000021D
102
{ACAD_REACTORS
330
1000021A
102
}
330
1000021A
100
AcDbXrecord
  1

  0
XRECORD
  5
10000222
102
{ACAD_REACTORS
330
1000021A
102
}
330
1000021A
100
AcDbXrecord
 90
        1
  0
XRECORD
  5
1000021F
102
{ACAD_REACTORS
330
1000021A
102
}
330
1000021A
100
AcDbXrecord
340
1A
  0
XRECORD
  5
10000221
102
{ACAD_REACTORS
330
1000021A
102
}
330
1000021A
100
AcDbXrecord
 90
    10781
  0
XRECORD
  5
10000220
102
{ACAD_REACTORS
330
1000021A
102
}
330
1000021A
100
AcDbXrecord
340
19
  0
XRECORD
  5
10000227
102
{ACAD_REACTORS
330
1000021A
102
}
330
1000021A
100
AcDbXrecord
 40
0.0
  0
XRECORD
  5
1000022A
102
{ACAD_REACTORS
330
1000021A
102
}
330
1000021A
100
AcDbXrecord
340
0
  0
XRECORD
  5
10000230
102
{ACAD_REACTORS
330
1000021A
102
}
330
1000021A
100
AcDbXrecord
 10
0.0
 20
0.0
 30
0.0
  0
XRECORD
  5
1000022C
102
{ACAD_REACTORS
330
1000021A
102
}
330
1000021A
100
AcDbXrecord
 10
0.0
 20
0.0
 30
0.0
  0
XRECORD
  5
1000022F
102
{ACAD_REACTORS
330
1000021A
102
}
330
1000021A
100
AcDbXrecord
 10
0.0
 20
0.0
 30
0.0
  0
XRECORD
  5
1000022D
102
{ACAD_REACTORS
330
1000021A
102
}
330
1000021A
100
AcDbXrecord
 10
0.0
 20
0.0
 30
0.0
  0
XRECORD
  5
1000022E
102
{ACAD_REACTORS
330
1000021A
102
}
330
1000021A
100
AcDbXrecord
 10
0.0
 20
0.0
 30
0.0
  0
XRECORD
  5
1000022B
102
{ACAD_REACTORS
330
1000021A
102
}
330
1000021A
100
AcDbXrecord
 10
0.0
 20
0.0
 30
0.0
  0
XRECORD
  5
10000228
102
{ACAD_REACTORS
330
1000021A
102
}
330
1000021A
100
AcDbXrecord
340
0
  0
XRECORD
  5
10000229
102
{ACAD_REACTORS
330
1000021A
102
}
330
1000021A
100
AcDbXrecord
 70
     0
  0
XRECORD
  5
1000021E
102
{ACAD_REACTORS
330
1000021A
102
}
330
1000021A
100
AcDbXrecord
  1

  0
XRECORD
  5
1000021B
102
{ACAD_REACTORS
330
1000021A
102
}
330
1000021A
100
AcDbXrecord
 90
        1
  0
XRECORD
  5
1000021C
102
{ACAD_REACTORS
330
1000021A
102
}
330
1000021A
100
AcDbXrecord
 90
       70
  0
XRECORD
  5
10000233
102
{ACAD_REACTORS
330
1000021A
102
}
330
1000021A
100
AcDbXrecord
340
0
  0
XRECORD
  5
10000239
102
{ACAD_REACTORS
330
1000021A
102
}
330
1000021A
100
AcDbXrecord
 10
0.0
 20
0.0
 30
0.0
  0
XRECORD
  5
10000235
102
{ACAD_REACTORS
330
1000021A
102
}
330
1000021A
100
AcDbXrecord
 10
0.0
 20
0.0
 30
0.0
  0
XRECORD
  5
10000238
102
{ACAD_REACTORS
330
1000021A
102
}
330
1000021A
100
AcDbXrecord
 10
0.0
 20
0.0
 30
0.0
  0
XRECORD
  5
10000236
102
{ACAD_REACTORS
330
1000021A
102
}
330
1000021A
100
AcDbXrecord
 10
0.0
 20
0.0
 30
0.0
  0
XRECORD
  5
10000237
102
{ACAD_REACTORS
330
1000021A
102
}
330
1000021A
100
AcDbXrecord
 10
0.0
 20
0.0
 30
0.0
  0
XRECORD
  5
10000234
102
{ACAD_REACTORS
330
1000021A
102
}
330
1000021A
100
AcDbXrecord
 10
0.0
 20
0.0
 30
0.0
  0
XRECORD
  5
10000231
102
{ACAD_REACTORS
330
1000021A
102
}
330
1000021A
100
AcDbXrecord
340
0
  0
XRECORD
  5
10000232
102
{ACAD_REACTORS
330
1000021A
102
}
330
1000021A
100
AcDbXrecord
 70
     0
  0
XRECORD
  5
10000226
102
{ACAD_REACTORS
330
1000021A
102
}
330
1000021A
100
AcDbXrecord
  1
{FAEB1C32-E019-11D5-929B-00C0DF256EC4}
  0
DICTIONARYVAR
  5
10000245
102
{ACAD_REACTORS
330
1000023B
102
}
330
1000023B
100
DictionaryVariables
280
     0
  1
1:1
  0
DICTIONARYVAR
  5
1000023D
102
{ACAD_REACTORS
330
1000023B
102
}
330
1000023B
100
DictionaryVariables
280
     0
  1
Standard
  0
DICTIONARYVAR
  5
1000023C
102
{ACAD_REACTORS
330
1000023B
102
}
330
1000023B
100
DictionaryVariables
280
     0
  1
Standard
  0
DICTIONARYVAR
  5
10000240
102
{ACAD_REACTORS
330
1000023B
102
}
330
1000023B
100
DictionaryVariables
280
     0
  1
2
  0
DICTIONARYVAR
  5
10000241
102
{ACAD_REACTORS
330
1000023B
102
}
330
1000023B
100
DictionaryVariables
280
     0
  1
1
  0
DICTIONARYVAR
  5
10000246
102
{ACAD_REACTORS
330
1000023B
102
}
330
1000023B
100
DictionaryVariables
280
     0
  1
1
  0
XRECORD
  5
10000003
102
{ACAD_REACTORS
330
10000001
102
}
330
10000001
100
AcDbXrecord
 70
     4
  0
XRECORD
  5
10000002
102
{ACAD_REACTORS
330
10000001
102
}
330
10000001
100
AcDbXrecord
1040
86.0
  0
ACAD_PROXY_OBJECT
  5
10000005
102
{ACAD_REACTORS
330
10000001
102
}
330
10000001
100
AcDbProxyObject
 90
      499
 91
      509
 93
       34
310
40C8804000
  0
DICTIONARY
  5
10000249
330
45
100
AcDbDictionary
280
     1
  3
ACAD_XREC_ROUNDTRIP
360
1000024A
  0
DICTIONARY
  5
10000247
330
44
100
AcDbDictionary
280
     1
  3
ACAD_XREC_ROUNDTRIP
360
10000248
  0
DICTIONARY
  5
1000024B
330
46
100
AcDbDictionary
280
     1
  3
ACAD_XREC_ROUNDTRIP
360
1000024C
  0
XRECORD
  5
1000024A
102
{ACAD_REACTORS
330
10000249
102
}
330
10000249
100
AcDbXrecord
102
MATERIAL
148
0.0
149
0.0
149
0.0
 93
        0
 94
      127
282
     0
 72
     1
 77
     1
171
     1
175
     1
179
     1
273
     0
  0
XRECORD
  5
10000248
102
{ACAD_REACTORS
330
10000247
102
}
330
10000247
100
AcDbXrecord
102
MATERIAL
148
0.0
149
0.0
149
0.0
 93
        0
 94
      127
282
     0
 72
     1
 77
     1
171
     1
175
     1
179
     1
273
     0
  0
XRECORD
  5
1000024C
102
{ACAD_REACTORS
330
1000024B
102
}
330
1000024B
100
AcDbXrecord
102
MATERIAL
148
0.0
149
0.0
149
0.0
 93
        0
 94
      127
282
     0
 72
     1
 77
     1
171
     1
175
     1
179
     1
273
     0
  0
ENDSEC
  0
EOF
