<?xml version="1.0" encoding="utf-8"?>
<!-- Generator: Adobe Illustrator 23.0.3, SVG Export Plug-In . SVG Version: 6.00 Build 0)  -->
<svg version="1.1" id="Layer_1" xmlns="http://www.w3.org/2000/svg" xmlns:xlink="http://www.w3.org/1999/xlink" x="0px" y="0px"
	 viewBox="0 0 283.5 198.4" style="enable-background:new 0 0 283.5 198.4;" xml:space="preserve">
<style type="text/css">
	.st0{fill:none;stroke:#7D26CD;stroke-width:1.000000e-03;stroke-linecap:round;stroke-linejoin:round;}
</style>
<polygon class="st0" points="268.6,175.8 268.6,35.4 155.2,35.4 152.4,35.4 152.4,175.8 265.8,175.8 "/>
<path class="st0" d="M80.1,23.4c-4.7,0-9.4,0-14.2,0c-0.8,0-1.4,0.6-1.4,1.4c0,1.4,0,2.8,0,4.2c-15.6,0-31.2,0-46.8,0
	c-0.9,0-1.9,0-2.8,0c0,48.9,0,97.8,0,146.6c37.8,0,75.6,0,113.4,0c0.9,0,1.9,0,2.8,0c0-48.9,0-97.8,0-146.6c-16.5,0-33.1,0-49.6,0
	c0-1.4,0-2.8,0-4.2C81.5,24.1,80.9,23.4,80.1,23.4z"/>
</svg>
