<?xml version="1.0" encoding="utf-8"?>
<!-- Generator: Adobe Illustrator 23.0.3, SVG Export Plug-In . SVG Version: 6.00 Build 0)  -->
<svg version="1.1" id="Layer_1" xmlns="http://www.w3.org/2000/svg" xmlns:xlink="http://www.w3.org/1999/xlink" x="0px" y="0px"
	 viewBox="0 0 283.46 198.43" style="enable-background:new 0 0 283.46 198.43;" xml:space="preserve">
<style type="text/css">
	.st0{fill:none;stroke:#000000;stroke-width:1.000000e-03;stroke-linecap:round;stroke-linejoin:round;}
</style>
<path class="st0" d="M18,50.9c-0.58,0-4.23-0.15-4.83,0.12c-0.62,0.28-0.84,0.65-0.84,1.32c0,3.22,0,6.44,0,9.66
	c0,1.51-0.05,3.03,0,4.54c0.01,0.28,0.09,0.51,0.25,0.75c0.42,0.61,0.93,0.62,1.57,0.62c0.88,0,1.76,0,2.63,0c0.22,0,0.44,0,0.66,0
	c0.11,0,0.22,0,0.33,0c0.05,0,0.11,0,0.16,0c0.28,0,0.07,0.27,0.07,0.42c0,0.67,0,1.34,0,2.01c0,10.73,0,21.46,0,32.19
	c0,5.37,0,10.73,0,16.1c0,2.68,0,5.37,0,8.05c0,0.67,0,1.34,0,2.01c0,0.34,0,0.67,0,1.01c0,0.17,0,0.34,0,0.5
	c0,0.03,0.03,0.07-0.02,0.07c-0.05,0-0.11,0-0.16,0c-0.44,0-0.88,0-1.32,0c-0.88,0-1.76,0-2.63,0c-0.65,0-1.07,0.16-1.38,0.77
	c-0.23,0.45-0.16,0.88-0.16,1.34c0,1.61,0,3.22,0,4.83c0,2.16-0.23,6.63,0.01,8.8c0.07,0.67,0.35,1,0.99,1.2
	c0.79,0.25,1.55,0.06,2.32,0.06c0.44,0,0.88,0,1.32,0c0.22,0,0.44,0,0.66,0c0.11,0,0.22,0,0.33,0c0.01,0,0.03,0,0.04,0
	c0.23,0,0.01,0.23,0.01,0.35c0,0.17,0,0.34,0,0.5c0,0.67,0,1.34,0,2.01c0,1.34,0,2.68,0,4.02c0,0.32,0,0.64,0,0.96
	c0,0.29-0.13,0.65,0.31,0.65c0.64,0,1.29,0,1.93,0c1.29,0,2.57,0,3.86,0c2.57,0,5.15,0,7.72,0c5.15,0,10.29,0,15.44,0
	c10.29,0,20.58,0,30.88,0s20.58,0,30.88,0c5.15,0,10.29,0,15.44,0c1.29,0,2.57,0,3.86,0c0.64,0,1.29,0,1.93,0c0.32,0,0.64,0,0.96,0
	c0.34,0,0.18-0.6,0.18-0.78c0-1.29,0-2.57,0-3.86c0-0.64,0-1.29,0-1.93c0-0.32,0-0.64,0-0.96c0-0.16,0-0.32,0-0.48
	c0-0.08,0-0.16,0-0.24s-0.16-0.24,0-0.24c0.58,0,4.23,0.15,4.83-0.12c0.62-0.28,0.84-0.65,0.84-1.32c0-3.22,0-6.44,0-9.66
	c0-1.51,0.05-3.03,0-4.54c-0.01-0.28-0.09-0.51-0.25-0.75c-0.42-0.61-0.93-0.62-1.57-0.62c-0.88,0-1.76,0-2.63,0
	c-0.22,0-0.44,0-0.66,0c-0.11,0-0.22,0-0.33,0c-0.05,0-0.11,0-0.16,0c-0.28,0-0.07-0.27-0.07-0.42c0-0.67,0-1.34,0-2.01
	c0-10.73,0-21.46,0-32.19c0-5.37,0-10.73,0-16.1c0-2.68,0-5.37,0-8.05c0-0.67,0-1.34,0-2.01c0-0.34,0-0.67,0-1.01
	c0-0.17,0-0.34,0-0.5c0-0.03-0.03-0.07,0.02-0.07c0.05,0,0.11,0,0.16,0c0.44,0,0.88,0,1.32,0c0.88,0,1.76,0,2.63,0
	c0.65,0,1.07-0.16,1.38-0.77c0.23-0.45,0.16-0.88,0.16-1.34c0-1.61,0-3.22,0-4.83c0-2.16,0.23-6.63-0.01-8.8
	c-0.07-0.67-0.35-1-0.99-1.2c-0.79-0.25-1.55-0.06-2.32-0.06c-0.44,0-0.88,0-1.32,0c-0.22,0-0.44,0-0.66,0c-0.11,0-0.22,0-0.33,0
	c-0.01,0-0.03,0-0.04,0c-0.23,0-0.01-0.23-0.01-0.35c0-0.17,0-0.34,0-0.5c0-0.67,0-1.34,0-2.01c0-1.34,0-2.68,0-4.02
	c0-0.32,0-0.64,0-0.96c0-0.29,0.13-0.65-0.31-0.65c-0.64,0-1.29,0-1.93,0c-1.29,0-2.57,0-3.86,0c-2.57,0-5.15,0-7.72,0
	c-5.15,0-10.29,0-15.44,0c-10.29,0-20.58,0-30.88,0s-20.58,0-30.88,0c-5.15,0-10.29,0-15.44,0c-1.29,0-2.57,0-3.86,0
	c-0.64,0-1.29,0-1.93,0c-0.32,0-0.64,0-0.96,0c-0.34,0-0.18,0.6-0.18,0.78C18,45.75,18,48.32,18,50.9z"/>
<path class="st0" d="M150.07,51.21c-0.62,0.28-0.84,0.68-0.84,1.35c0,3.22,0,6.44,0,9.66c0,1.51-0.05,3.03,0,4.54
	c0.01,0.28,0.09,0.51,0.25,0.75c0.42,0.61,0.93,0.62,1.57,0.62c0.88,0,1.76,0,2.63,0c0.22,0,0.44,0,0.66,0c0.11,0,0.22,0,0.33,0
	c0.05,0,0.11,0,0.16,0c0.28,0,0.07,0.27,0.07,0.42c0,0.67,0,1.34,0,2.01c0,10.73,0,21.46,0,32.19c0,5.37,0,10.73,0,16.1
	c0,2.68,0,5.37,0,8.05c0,0.67,0,1.34,0,2.01c0,0.34,0,0.67,0,1.01c0,0.17,0,0.34,0,0.5c0,0.03,0.03,0.07-0.02,0.07
	c-0.05,0-0.11,0-0.16,0c-0.44,0-0.88,0-1.32,0c-0.88,0-1.76,0-2.63,0c-0.65,0-1.07,0.16-1.38,0.77c-0.23,0.45-0.16,0.88-0.16,1.34
	c0,1.61,0,3.22,0,4.83c0,2.16-0.23,6.63,0.01,8.8c0.07,0.67,0.35,1,0.99,1.2c0.79,0.25,1.55,0.06,2.32,0.06c0.44,0,0.88,0,1.32,0
	c0.22,0,0.44,0,0.66,0c0.11,0,0.22,0,0.33,0c0.01,0,0.03,0,0.04,0c0.23,0,0.01,0.23,0.01,0.35c0,0.17,0,0.34,0,0.5
	c0,0.67,0,1.34,0,2.01c0,1.34,0,2.68,0,4.02c0,0.32,0,0.64,0,0.96c0,0.29-0.13,0.65,0.31,0.65c0.64,0,1.29,0,1.93,0
	c1.29,0,2.57,0,3.86,0c2.57,0,5.15,0,7.72,0c5.15,0,10.29,0,15.44,0c10.29,0,20.58,0,30.88,0c10.29,0,20.58,0,30.88,0
	c5.15,0,10.29,0,15.44,0c1.29,0,2.57,0,3.86,0c0.64,0,1.29,0,1.93,0c0.32,0,0.64,0,0.96,0c0.34,0,0.18-0.6,0.18-0.78
	c0-1.29,0-2.57,0-3.86c0-0.64,0-1.29,0-1.93c0-0.32,0-0.64,0-0.96c0-0.16,0-0.32,0-0.48c0-0.08,0-0.16,0-0.24s-0.16-0.24,0-0.24
	c0.58,0,4.23,0.15,4.83-0.12c0.62-0.28,0.84-0.65,0.84-1.32c0-3.22,0-6.44,0-9.66c0-1.51,0.05-3.03,0-4.54
	c-0.01-0.28-0.09-0.51-0.25-0.75c-0.42-0.61-0.93-0.62-1.57-0.62c-0.88,0-1.76,0-2.63,0c-0.22,0-0.44,0-0.66,0
	c-0.11,0-0.22,0-0.33,0c-0.05,0-0.11,0-0.16,0c-0.28,0-0.07-0.27-0.07-0.42c0-0.67,0-1.34,0-2.01c0-10.73,0-21.46,0-32.19
	c0-5.37,0-10.73,0-16.1c0-2.68,0-5.37,0-8.05c0-0.67,0-1.34,0-2.01c0-0.34,0-0.67,0-1.01c0-0.17,0-0.34,0-0.5
	c0-0.03-0.03-0.07,0.02-0.07c0.05,0,0.11,0,0.16,0c0.44,0,0.88,0,1.32,0c0.88,0,1.76,0,2.63,0c0.65,0,1.07-0.16,1.38-0.77
	c0.23-0.45,0.16-0.88,0.16-1.34c0-1.61,0-3.22,0-4.83c0-2.16,0.23-6.63-0.01-8.8c-0.07-0.67-0.35-0.97-0.99-1.17
	C272.17,50.97,150.68,50.94,150.07,51.21z"/>
</svg>
